ply
format ascii 1.0
comment VCGLIB generated
comment TextureFile fanshawe.bmp
element vertex 24
property float x
property float y
property float z
property float nx
property float ny
property float nz
property uchar red
property uchar green
property uchar blue
property uchar alpha
property float texture_u
property float texture_v
element face 12
property list uchar int vertex_indices
end_header
1.00001 19.2 57.11 0.5773507 0.5773499 0.5773503 255 255 255 255 0.468757 -0.675163
0.999995 19.2 -57.11 0.5773503 0.5773503 -0.5773503 255 255 255 255 0.468661 -0.624734
-1.000004 19.2 -57.11 -0.5773504 0.57735 -0.5773503 255 255 255 255 0.466650 -0.570078
-0.9999894 19.2 57.11 -0.5773503 0.5773503 0.5773503 255 255 255 255 0.461317 -0.613319
-0.999995 -19.2 57.11 -0.5773506 -0.5773499 0.5773504 255 255 255 255 0.466595 -0.570430
-1.00001 -19.2 -57.11 -0.5773504 -0.5773503 -0.5773501 255 255 255 255 0.456743 -0.649018
0.9999894 -19.2 -57.11 0.5773503 -0.57735 -0.5773504 255 255 255 255 0.463622 -0.642456
1.000004 -19.2 57.11 0.5773504 -0.5773503 0.5773501 255 255 255 255 0.469356 -0.674724
-0.9999894 19.2 57.11 -0.5773503 0.5773503 0.5773503 255 255 255 255 0.459382 -0.624217
-1.000004 19.2 -57.11 -0.5773504 0.57735 -0.5773503 255 255 255 255 0.461801 -0.624586
-1.00001 -19.2 -57.11 -0.5773504 -0.5773503 -0.5773501 255 255 255 255 0.468757 -0.675163
-1.000004 19.2 -57.11 -0.5773504 0.57735 -0.5773503 255 255 255 255 0.460750 -0.647510
0.999995 19.2 -57.11 0.5773503 0.5773503 -0.5773503 255 255 255 255 0.460975 -0.617510
0.9999894 -19.2 -57.11 0.5773503 -0.57735 -0.5773504 255 255 255 255 0.464221 -0.642018
-0.999995 -19.2 57.11 -0.5773506 -0.5773499 0.5773504 255 255 255 255 0.468757 -0.675163
-1.00001 -19.2 -57.11 -0.5773504 -0.5773503 -0.5773501 255 255 255 255 0.463622 -0.642456
1.000004 -19.2 57.11 0.5773504 -0.5773503 0.5773501 255 255 255 255 0.468816 -0.589199
1.00001 19.2 57.11 0.5773507 0.5773499 0.5773503 255 255 255 255 0.469356 -0.674724
-0.9999894 19.2 57.11 -0.5773503 0.5773503 0.5773503 255 255 255 255 0.464221 -0.642018
-0.999995 -19.2 57.11 -0.5773506 -0.5773499 0.5773504 255 255 255 255 0.463681 -0.624618
0.9999894 -19.2 -57.11 0.5773503 -0.57735 -0.5773504 255 255 255 255 1.000207 0.000256
0.999995 19.2 -57.11 0.5773503 0.5773503 -0.5773503 255 255 255 255 0.999873 1.001679
1.00001 19.2 57.11 0.5773507 0.5773499 0.5773503 255 255 255 255 0.000849 1.001280
1.000004 -19.2 57.11 0.5773504 -0.5773503 0.5773501 255 255 255 255 0.000495 -0.001422
3 0 1 2 
3 0 2 3 
3 4 8 9 
3 4 9 5 
3 10 11 12 
3 10 12 6 
3 13 7 14 
3 13 14 15 
3 16 17 18 
3 16 18 19 
3 20 21 22 
3 20 22 23 
