ply
format ascii 1.0
comment VCGLIB generated
element vertex 329
property float x
property float y
property float z
property float nx
property float ny
property float nz
property uchar red
property uchar green
property uchar blue
property uchar alpha
property float texture_u
property float texture_v
element face 574
property list uchar int vertex_indices
end_header
0 0.252536 0 0 1 0 255 255 255 255 0.000000 1.000000
0 0.247893 0.047141 0 0.979598 0.2009671 255 255 255 255 0.000000 0.937500
0.009197 0.247893 0.046235 0.03918674 0.9796014 0.1970927 255 255 255 255 0.031250 0.937500
0 0.252536 0 0 1 0 255 255 255 255 0.031250 1.000000
0.01804 0.247893 0.043553 0.07690849 0.979602 0.1856476 255 255 255 255 0.062500 0.937500
0 0.252536 0 0 1 0 255 255 255 255 0.062500 1.000000
0.02619 0.247893 0.039196 0.111639 0.9796004 0.167092 255 255 255 255 0.093750 0.937500
0 0.252536 0 0 1 0 255 255 255 255 0.093750 1.000000
0.033334 0.247893 0.033334 0.1420965 0.9796005 0.1420965 255 255 255 255 0.125000 0.937500
0 0.252536 0 0 1 0 255 255 255 255 0.125000 1.000000
0.039196 0.247893 0.02619 0.167092 0.9796004 0.111639 255 255 255 255 0.156250 0.937500
0 0.252536 0 0 1 0 255 255 255 255 0.156250 1.000000
0.043553 0.247893 0.01804 0.185648 0.9796044 0.07687767 255 255 255 255 0.187500 0.937500
0 0.252536 0 0 1 0 255 255 255 255 0.187500 1.000000
0.046235 0.247893 0.009197 0.1970927 0.9796014 0.03918674 255 255 255 255 0.218750 0.937500
0 0.252536 0 0 1 0 255 255 255 255 0.218750 1.000000
0.047141 0.247893 -0 0.2009671 0.979598 0 255 255 255 255 0.250000 0.937500
0 0.252536 0 0 1 0 255 255 255 255 0.250000 1.000000
0.046235 0.247893 -0.009197 0.1970927 0.9796014 -0.03918674 255 255 255 255 0.281250 0.937500
0 0.252536 0 0 1 0 255 255 255 255 0.281250 1.000000
0.043553 0.247893 -0.01804 0.1856476 0.979602 -0.07690849 255 255 255 255 0.312500 0.937500
0 0.252536 0 0 1 0 255 255 255 255 0.312500 1.000000
0.039196 0.247893 -0.02619 0.167092 0.9796004 -0.111639 255 255 255 255 0.343750 0.937500
0 0.252536 0 0 1 0 255 255 255 255 0.343750 1.000000
0.033334 0.247893 -0.033334 0.1420965 0.9796005 -0.1420965 255 255 255 255 0.375000 0.937500
0 0.252536 0 0 1 0 255 255 255 255 0.375000 1.000000
0.02619 0.247893 -0.039196 0.111639 0.9796004 -0.167092 255 255 255 255 0.406250 0.937500
0 0.252536 0 0 1 0 255 255 255 255 0.406250 1.000000
0.01804 0.247893 -0.043553 0.07690849 0.979602 -0.1856476 255 255 255 255 0.437500 0.937500
0 0.252536 0 0 1 0 255 255 255 255 0.437500 1.000000
0.009197 0.247893 -0.046235 0.03918674 0.9796014 -0.1970927 255 255 255 255 0.468750 0.937500
0 0.252536 0 0 1 0 255 255 255 255 0.468750 1.000000
-0 0.247893 -0.047141 0 0.979598 -0.2009671 255 255 255 255 0.500000 0.937500
0 0.252536 0 0 1 0 255 255 255 255 0.500000 1.000000
-0.009197 0.247893 -0.046235 -0.03918674 0.9796014 -0.1970927 255 255 255 255 0.531250 0.937500
0 0.252536 0 0 1 0 255 255 255 255 0.531250 1.000000
-0.01804 0.247893 -0.043553 -0.07690849 0.979602 -0.1856476 255 255 255 255 0.562500 0.937500
0 0.252536 0 0 1 0 255 255 255 255 0.562500 1.000000
-0.02619 0.247893 -0.039196 -0.111639 0.9796004 -0.167092 255 255 255 255 0.593750 0.937500
0 0.252536 0 0 1 0 255 255 255 255 0.593750 1.000000
-0.033334 0.247893 -0.033334 -0.1420965 0.9796005 -0.1420965 255 255 255 255 0.625000 0.937500
0 0.252536 0 0 1 0 255 255 255 255 0.625000 1.000000
-0.039196 0.247893 -0.02619 -0.167092 0.9796004 -0.111639 255 255 255 255 0.656250 0.937500
0 0.252536 0 0 1 0 255 255 255 255 0.656250 1.000000
-0.043553 0.247893 -0.01804 -0.185648 0.9796044 -0.07687767 255 255 255 255 0.687500 0.937500
0 0.252536 0 0 1 0 255 255 255 255 0.687500 1.000000
-0.046235 0.247893 -0.009197 -0.1970927 0.9796014 -0.03918674 255 255 255 255 0.718750 0.937500
0 0.252536 0 0 1 0 255 255 255 255 0.718750 1.000000
-0.047141 0.247893 0 -0.2009671 0.979598 0 255 255 255 255 0.750000 0.937500
0 0.252536 0 0 1 0 255 255 255 255 0.750000 1.000000
-0.046235 0.247893 0.009197 -0.1970927 0.9796014 0.03918674 255 255 255 255 0.781250 0.937500
0 0.252536 0 0 1 0 255 255 255 255 0.781250 1.000000
-0.043553 0.247893 0.01804 -0.1856476 0.979602 0.07690849 255 255 255 255 0.812500 0.937500
0 0.252536 0 0 1 0 255 255 255 255 0.812500 1.000000
-0.039196 0.247893 0.02619 -0.167092 0.9796004 0.111639 255 255 255 255 0.843750 0.937500
0 0.252536 0 0 1 0 255 255 255 255 0.843750 1.000000
-0.033334 0.247893 0.033334 -0.1420965 0.9796005 0.1420965 255 255 255 255 0.875000 0.937500
0 0.252536 0 0 1 0 255 255 255 255 0.875000 1.000000
-0.02619 0.247893 0.039196 -0.111639 0.9796004 0.167092 255 255 255 255 0.906250 0.937500
0 0.252536 0 0 1 0 255 255 255 255 0.906250 1.000000
-0.01804 0.247893 0.043553 -0.07690849 0.979602 0.1856476 255 255 255 255 0.937500 0.937500
0 0.252536 0 0 1 0 255 255 255 255 0.937500 1.000000
-0.009197 0.247893 0.046235 -0.03918674 0.9796014 0.1970927 255 255 255 255 0.968750 0.937500
0 0.252536 0 0 1 0 255 255 255 255 0.968750 1.000000
0 0.247893 0.047141 0 0.979598 0.2009671 255 255 255 255 1.000000 0.937500
0.01804 0.234142 0.090694 0.07565689 0.921713 0.3804225 255 255 255 255 0.031250 0.875000
0 0.234142 0.092471 0 0.9217141 0.3878701 255 255 255 255 0.000000 0.875000
0.035387 0.234142 0.085432 0.1484156 0.9217122 0.3583567 255 255 255 255 0.062500 0.875000
0.051374 0.234142 0.076886 0.2154966 0.921714 0.3224974 255 255 255 255 0.093750 0.875000
0.065387 0.234142 0.065387 0.2742754 0.9217082 0.2742754 255 255 255 255 0.125000 0.875000
0.076886 0.234142 0.051374 0.3224974 0.921714 0.2154966 255 255 255 255 0.156250 0.875000
0.085432 0.234142 0.035387 0.3583567 0.9217122 0.1484156 255 255 255 255 0.187500 0.875000
0.090694 0.234142 0.01804 0.3804225 0.921713 0.07565689 255 255 255 255 0.218750 0.875000
0.092471 0.234142 -0 0.3878701 0.9217141 0 255 255 255 255 0.250000 0.875000
0.090694 0.234142 -0.01804 0.3804225 0.921713 -0.07565689 255 255 255 255 0.281250 0.875000
0.085432 0.234142 -0.035387 0.3583567 0.9217122 -0.1484156 255 255 255 255 0.312500 0.875000
0.076886 0.234142 -0.051374 0.3224974 0.921714 -0.2154966 255 255 255 255 0.343750 0.875000
0.065387 0.234142 -0.065387 0.2742754 0.9217082 -0.2742754 255 255 255 255 0.375000 0.875000
0.051374 0.234142 -0.076887 0.2154966 0.921714 -0.3224974 255 255 255 255 0.406250 0.875000
0.035387 0.234142 -0.085432 0.1484156 0.9217122 -0.3583567 255 255 255 255 0.437500 0.875000
0.01804 0.234142 -0.090694 0.07565689 0.921713 -0.3804225 255 255 255 255 0.468750 0.875000
-0 0.234142 -0.092471 0 0.9217141 -0.3878701 255 255 255 255 0.500000 0.875000
-0.01804 0.234142 -0.090694 -0.07565689 0.921713 -0.3804225 255 255 255 255 0.531250 0.875000
-0.035387 0.234142 -0.085432 -0.1484156 0.9217122 -0.3583567 255 255 255 255 0.562500 0.875000
-0.051374 0.234142 -0.076886 -0.2154966 0.921714 -0.3224974 255 255 255 255 0.593750 0.875000
-0.065387 0.234142 -0.065386 -0.2742754 0.9217082 -0.2742754 255 255 255 255 0.625000 0.875000
-0.076887 0.234142 -0.051374 -0.3224974 0.921714 -0.2154966 255 255 255 255 0.656250 0.875000
-0.085432 0.234142 -0.035387 -0.3583567 0.9217122 -0.1484156 255 255 255 255 0.687500 0.875000
-0.090694 0.234142 -0.01804 -0.3804225 0.921713 -0.07565689 255 255 255 255 0.718750 0.875000
-0.092471 0.234142 0 -0.3878701 0.9217141 0 255 255 255 255 0.750000 0.875000
-0.090694 0.234142 0.01804 -0.3804225 0.921713 0.07565689 255 255 255 255 0.781250 0.875000
-0.085432 0.234142 0.035387 -0.3583567 0.9217122 0.1484156 255 255 255 255 0.812500 0.875000
-0.076886 0.234142 0.051374 -0.3224974 0.921714 0.2154966 255 255 255 255 0.843750 0.875000
-0.065386 0.234142 0.065387 -0.2742754 0.9217082 0.2742754 255 255 255 255 0.875000 0.875000
-0.051374 0.234142 0.076887 -0.2154966 0.921714 0.3224974 255 255 255 255 0.906250 0.875000
-0.035387 0.234142 0.085432 -0.1484156 0.9217122 0.3583567 255 255 255 255 0.937500 0.875000
-0.01804 0.234142 0.090694 -0.07565689 0.921713 0.3804225 255 255 255 255 0.968750 0.875000
0 0.234142 0.092471 0 0.9217141 0.3878701 255 255 255 255 1.000000 0.875000
0.02619 0.211813 0.131667 0.109197 0.828654 0.5490069 255 255 255 255 0.031250 0.812500
0 0.211813 0.134246 0 0.8286448 0.5597749 255 255 255 255 0.000000 0.812500
0.051374 0.211813 0.124028 0.2142135 0.8286565 0.5171469 255 255 255 255 0.062500 0.812500
0.074583 0.211813 0.111622 0.3109907 0.8286567 0.465417 255 255 255 255 0.093750 0.812500
0.094927 0.211813 0.094927 0.3958049 0.8286598 0.3958049 255 255 255 255 0.125000 0.812500
0.111622 0.211813 0.074583 0.465417 0.8286567 0.3109907 255 255 255 255 0.156250 0.812500
0.124028 0.211813 0.051374 0.5171469 0.8286566 0.2142136 255 255 255 255 0.187500 0.812500
0.131667 0.211813 0.02619 0.5490069 0.828654 0.109197 255 255 255 255 0.218750 0.812500
0.134246 0.211813 -0 0.5597749 0.8286448 0 255 255 255 255 0.250000 0.812500
0.131667 0.211813 -0.02619 0.5490069 0.828654 -0.109197 255 255 255 255 0.281250 0.812500
0.124028 0.211813 -0.051374 0.5171469 0.8286566 -0.2142136 255 255 255 255 0.312500 0.812500
0.111622 0.211813 -0.074583 0.465417 0.8286567 -0.3109907 255 255 255 255 0.343750 0.812500
0.094927 0.211813 -0.094927 0.3958049 0.8286598 -0.3958049 255 255 255 255 0.375000 0.812500
0.074583 0.211813 -0.111622 0.3109907 0.8286567 -0.465417 255 255 255 255 0.406250 0.812500
0.051374 0.211813 -0.124028 0.2142135 0.8286565 -0.5171469 255 255 255 255 0.437500 0.812500
0.02619 0.211813 -0.131667 0.109197 0.828654 -0.5490069 255 255 255 255 0.468750 0.812500
-0 0.211813 -0.134246 0 0.8286448 -0.5597749 255 255 255 255 0.500000 0.812500
-0.02619 0.211813 -0.131667 -0.109197 0.828654 -0.5490069 255 255 255 255 0.531250 0.812500
-0.051374 0.211813 -0.124027 -0.2142135 0.8286565 -0.5171469 255 255 255 255 0.562500 0.812500
-0.074583 0.211813 -0.111622 -0.3109907 0.8286567 -0.465417 255 255 255 255 0.593750 0.812500
-0.094927 0.211813 -0.094926 -0.3958049 0.8286598 -0.3958049 255 255 255 255 0.625000 0.812500
-0.111622 0.211813 -0.074583 -0.465417 0.8286567 -0.3109907 255 255 255 255 0.656250 0.812500
-0.124028 0.211813 -0.051374 -0.5171469 0.8286566 -0.2142136 255 255 255 255 0.687500 0.812500
-0.131667 0.211813 -0.02619 -0.5490069 0.828654 -0.109197 255 255 255 255 0.718750 0.812500
-0.134246 0.211813 0 -0.5597749 0.8286448 0 255 255 255 255 0.750000 0.812500
-0.131667 0.211813 0.02619 -0.5490069 0.828654 0.109197 255 255 255 255 0.781250 0.812500
-0.124027 0.211813 0.051374 -0.5171469 0.8286566 0.2142136 255 255 255 255 0.812500 0.812500
-0.111622 0.211813 0.074584 -0.465417 0.8286567 0.3109907 255 255 255 255 0.843750 0.812500
-0.094926 0.211813 0.094927 -0.3958049 0.8286598 0.3958049 255 255 255 255 0.875000 0.812500
-0.074583 0.211813 0.111622 -0.3109907 0.8286567 0.465417 255 255 255 255 0.906250 0.812500
-0.051374 0.211813 0.124028 -0.2142135 0.8286565 0.5171469 255 255 255 255 0.937500 0.812500
-0.02619 0.211813 0.131667 -0.109197 0.828654 0.5490069 255 255 255 255 0.968750 0.812500
0 0.211813 0.134246 0 0.8286448 0.5597749 255 255 255 255 1.000000 0.812500
0.033334 0.181762 0.16758 0.1385274 0.7040482 0.6965101 255 255 255 255 0.031250 0.750000
0 0.181762 0.170863 0 0.7040481 0.7101523 255 255 255 255 0.000000 0.750000
0.065387 0.181762 0.157857 0.2717492 0.7040626 0.6560855 255 255 255 255 0.062500 0.750000
0.094927 0.181762 0.142068 0.3945284 0.7040585 0.5904651 255 255 255 255 0.093750 0.750000
0.120819 0.181762 0.120819 0.5021434 0.7040625 0.5021434 255 255 255 255 0.125000 0.750000
0.142068 0.181762 0.094927 0.5904651 0.7040585 0.3945284 255 255 255 255 0.156250 0.750000
0.157857 0.181762 0.065387 0.6560855 0.7040626 0.2717492 255 255 255 255 0.187500 0.750000
0.16758 0.181762 0.033334 0.6965101 0.7040482 0.1385274 255 255 255 255 0.218750 0.750000
0.170863 0.181762 -0 0.7101523 0.7040481 0 255 255 255 255 0.250000 0.750000
0.16758 0.181762 -0.033334 0.6965101 0.7040482 -0.1385274 255 255 255 255 0.281250 0.750000
0.157857 0.181762 -0.065387 0.6560855 0.7040626 -0.2717492 255 255 255 255 0.312500 0.750000
0.142068 0.181762 -0.094927 0.5904651 0.7040585 -0.3945284 255 255 255 255 0.343750 0.750000
0.120819 0.181762 -0.120819 0.5021434 0.7040625 -0.5021434 255 255 255 255 0.375000 0.750000
0.094926 0.181762 -0.142068 0.3945284 0.7040585 -0.5904651 255 255 255 255 0.406250 0.750000
0.065386 0.181762 -0.157857 0.2717492 0.7040626 -0.6560855 255 255 255 255 0.437500 0.750000
0.033334 0.181762 -0.16758 0.1385274 0.7040482 -0.6965101 255 255 255 255 0.468750 0.750000
-0 0.181762 -0.170863 0 0.7040481 -0.7101523 255 255 255 255 0.500000 0.750000
-0.033334 0.181762 -0.16758 -0.1385274 0.7040482 -0.6965101 255 255 255 255 0.531250 0.750000
-0.065387 0.181762 -0.157857 -0.2717492 0.7040626 -0.6560855 255 255 255 255 0.562500 0.750000
-0.094927 0.181762 -0.142068 -0.3945284 0.7040585 -0.5904651 255 255 255 255 0.593750 0.750000
-0.120819 0.181762 -0.120818 -0.5021434 0.7040625 -0.5021434 255 255 255 255 0.625000 0.750000
-0.142068 0.181762 -0.094926 -0.5904651 0.7040585 -0.3945284 255 255 255 255 0.656250 0.750000
-0.157857 0.181762 -0.065386 -0.6560855 0.7040626 -0.2717492 255 255 255 255 0.687500 0.750000
-0.16758 0.181762 -0.033334 -0.6965101 0.7040482 -0.1385274 255 255 255 255 0.718750 0.750000
-0.170863 0.181762 0 -0.7101523 0.7040481 0 255 255 255 255 0.750000 0.750000
-0.16758 0.181762 0.033334 -0.6965101 0.7040482 0.1385274 255 255 255 255 0.781250 0.750000
-0.157857 0.181762 0.065387 -0.6560855 0.7040626 0.2717492 255 255 255 255 0.812500 0.750000
-0.142067 0.181762 0.094927 -0.5904651 0.7040585 0.3945284 255 255 255 255 0.843750 0.750000
-0.120818 0.181762 0.120819 -0.5021434 0.7040625 0.5021434 255 255 255 255 0.875000 0.750000
-0.094926 0.181762 0.142068 -0.3945284 0.7040585 0.5904651 255 255 255 255 0.906250 0.750000
-0.065386 0.181762 0.157857 -0.2717492 0.7040626 0.6560855 255 255 255 255 0.937500 0.750000
-0.033333 0.181762 0.16758 -0.1385274 0.7040482 0.6965101 255 255 255 255 0.968750 0.750000
0 0.181762 0.170863 0 0.7040481 0.7101523 255 255 255 255 1.000000 0.750000
0.039196 0.145145 0.197054 0.1625745 0.5527596 0.8173288 255 255 255 255 0.031250 0.687500
0 0.145145 0.200914 0 0.5527549 0.8333439 255 255 255 255 0.000000 0.687500
0.076886 0.145145 0.18562 0.3188954 0.5527638 0.7699078 255 255 255 255 0.062500 0.687500
0.111622 0.145145 0.167054 0.4629728 0.5527592 0.6929022 255 255 255 255 0.093750 0.687500
0.142068 0.145145 0.142068 0.5892607 0.5527601 0.5892607 255 255 255 255 0.125000 0.687500
0.167054 0.145145 0.111622 0.6929022 0.5527592 0.4629728 255 255 255 255 0.156250 0.687500
0.18562 0.145145 0.076886 0.7699078 0.5527638 0.3188954 255 255 255 255 0.187500 0.687500
0.197054 0.145145 0.039196 0.8173288 0.5527596 0.1625745 255 255 255 255 0.218750 0.687500
0.200914 0.145145 -0 0.8333439 0.5527549 0 255 255 255 255 0.250000 0.687500
0.197054 0.145145 -0.039196 0.8173288 0.5527596 -0.1625745 255 255 255 255 0.281250 0.687500
0.18562 0.145145 -0.076887 0.7699078 0.5527638 -0.3188954 255 255 255 255 0.312500 0.687500
0.167054 0.145145 -0.111622 0.6929022 0.5527592 -0.4629728 255 255 255 255 0.343750 0.687500
0.142068 0.145145 -0.142068 0.5892607 0.5527601 -0.5892607 255 255 255 255 0.375000 0.687500
0.111622 0.145145 -0.167054 0.4629728 0.5527592 -0.6929022 255 255 255 255 0.406250 0.687500
0.076886 0.145145 -0.18562 0.3188954 0.5527638 -0.7699078 255 255 255 255 0.437500 0.687500
0.039196 0.145145 -0.197054 0.1625745 0.5527596 -0.8173288 255 255 255 255 0.468750 0.687500
-0 0.145145 -0.200914 0 0.5527549 -0.8333439 255 255 255 255 0.500000 0.687500
-0.039197 0.145145 -0.197053 -0.1625745 0.5527596 -0.8173288 255 255 255 255 0.531250 0.687500
-0.076887 0.145145 -0.18562 -0.3188954 0.5527638 -0.7699078 255 255 255 255 0.562500 0.687500
-0.111622 0.145145 -0.167054 -0.4629728 0.5527592 -0.6929022 255 255 255 255 0.593750 0.687500
-0.142068 0.145145 -0.142068 -0.5892607 0.5527601 -0.5892607 255 255 255 255 0.625000 0.687500
-0.167054 0.145145 -0.111622 -0.6929022 0.5527592 -0.4629728 255 255 255 255 0.656250 0.687500
-0.185621 0.145145 -0.076886 -0.7699078 0.5527638 -0.3188954 255 255 255 255 0.687500 0.687500
-0.197054 0.145145 -0.039196 -0.8173288 0.5527596 -0.1625745 255 255 255 255 0.718750 0.687500
-0.200914 0.145145 0 -0.8333439 0.5527549 0 255 255 255 255 0.750000 0.687500
-0.197053 0.145145 0.039197 -0.8173288 0.5527596 0.1625745 255 255 255 255 0.781250 0.687500
-0.18562 0.145145 0.076887 -0.7699078 0.5527638 0.3188954 255 255 255 255 0.812500 0.687500
-0.167054 0.145145 0.111622 -0.6929022 0.5527592 0.4629728 255 255 255 255 0.843750 0.687500
-0.142067 0.145145 0.142068 -0.5892607 0.5527601 0.5892607 255 255 255 255 0.875000 0.687500
-0.111622 0.145145 0.167054 -0.4629728 0.5527592 0.6929022 255 255 255 255 0.906250 0.687500
-0.076886 0.145145 0.185621 -0.3188954 0.5527638 0.7699078 255 255 255 255 0.937500 0.687500
-0.039196 0.145145 0.197054 -0.1625745 0.5527596 0.8173288 255 255 255 255 0.968750 0.687500
0 0.145145 0.200914 0 0.5527549 0.8333439 255 255 255 255 1.000000 0.687500
0.043553 0.103369 0.218954 0.1803984 0.3805423 0.9069973 255 255 255 255 0.031250 0.625000
0 0.103369 0.223244 0 0.380544 0.9247628 255 255 255 255 0.000000 0.625000
0.085432 0.103369 0.20625 0.3538679 0.3805414 0.8543804 255 255 255 255 0.062500 0.625000
0.124028 0.103369 0.18562 0.5137558 0.38054 0.7689241 255 255 255 255 0.093750 0.625000
0.157857 0.103369 0.157857 0.653906 0.3805443 0.653906 255 255 255 255 0.125000 0.625000
0.18562 0.103369 0.124028 0.7689241 0.38054 0.5137558 255 255 255 255 0.156250 0.625000
0.20625 0.103369 0.085432 0.8543804 0.3805414 0.3538679 255 255 255 255 0.187500 0.625000
0.218954 0.103369 0.043553 0.9069973 0.3805423 0.1803984 255 255 255 255 0.218750 0.625000
0.223244 0.103369 -0 0.9247628 0.380544 0 255 255 255 255 0.250000 0.625000
0.218954 0.103369 -0.043553 0.9069973 0.3805423 -0.1803984 255 255 255 255 0.281250 0.625000
0.20625 0.103369 -0.085432 0.854371 0.3805372 -0.3538951 255 255 255 255 0.312500 0.625000
0.18562 0.103369 -0.124028 0.7689241 0.38054 -0.5137558 255 255 255 255 0.343750 0.625000
0.157857 0.103369 -0.157857 0.653906 0.3805443 -0.653906 255 255 255 255 0.375000 0.625000
0.124027 0.103369 -0.18562 0.5137558 0.38054 -0.7689241 255 255 255 255 0.406250 0.625000
0.085431 0.103369 -0.20625 0.3538679 0.3805414 -0.8543804 255 255 255 255 0.437500 0.625000
0.043552 0.103369 -0.218954 0.1803984 0.3805423 -0.9069973 255 255 255 255 0.468750 0.625000
-0 0.103369 -0.223244 0 0.380544 -0.9247628 255 255 255 255 0.500000 0.625000
-0.043553 0.103369 -0.218954 -0.1803984 0.3805423 -0.9069973 255 255 255 255 0.531250 0.625000
-0.085432 0.103369 -0.20625 -0.3538951 0.3805372 -0.854371 255 255 255 255 0.562500 0.625000
-0.124028 0.103369 -0.18562 -0.5137558 0.38054 -0.7689241 255 255 255 255 0.593750 0.625000
-0.157857 0.103369 -0.157857 -0.653906 0.3805443 -0.653906 255 255 255 255 0.625000 0.625000
-0.185621 0.103369 -0.124027 -0.7689241 0.38054 -0.5137558 255 255 255 255 0.656250 0.625000
-0.20625 0.103369 -0.085431 -0.8543804 0.3805414 -0.3538679 255 255 255 255 0.687500 0.625000
-0.218954 0.103369 -0.043552 -0.9069973 0.3805423 -0.1803984 255 255 255 255 0.718750 0.625000
-0.223244 0.103369 0 -0.9247628 0.380544 0 255 255 255 255 0.750000 0.625000
-0.218954 0.103369 0.043553 -0.9069973 0.3805423 0.1803984 255 255 255 255 0.781250 0.625000
-0.20625 0.103369 0.085432 -0.854371 0.3805372 0.3538951 255 255 255 255 0.812500 0.625000
-0.18562 0.103369 0.124028 -0.7689114 0.3805491 0.513768 255 255 255 255 0.843750 0.625000
-0.157857 0.103369 0.157857 -0.653906 0.3805443 0.653906 255 255 255 255 0.875000 0.625000
-0.124027 0.103369 0.185621 -0.5137558 0.38054 0.7689241 255 255 255 255 0.906250 0.625000
-0.085431 0.103369 0.20625 -0.3538679 0.3805414 0.8543804 255 255 255 255 0.937500 0.625000
-0.043552 0.103369 0.218954 -0.1803984 0.3805423 0.9069973 255 255 255 255 0.968750 0.625000
0 0.103369 0.223244 0 0.380544 0.9247628 255 255 255 255 1.000000 0.625000
0.046235 0.05804 0.23244 0.1913843 0.1939173 0.9621685 255 255 255 255 0.031250 0.562500
0 0.05804 0.236994 0 0.193921 0.9810172 255 255 255 255 0.000000 0.562500
0.090694 0.05804 0.218954 0.3754109 0.1939165 0.906346 255 255 255 255 0.062500 0.562500
0.131667 0.05804 0.197054 0.5450158 0.1939206 0.8156915 255 255 255 255 0.093750 0.562500
0.16758 0.05804 0.16758 0.6936836 0.193923 0.6936836 255 255 255 255 0.125000 0.562500
0.197054 0.05804 0.131667 0.8156915 0.1939206 0.5450158 255 255 255 255 0.156250 0.562500
0.218954 0.05804 0.090694 0.906346 0.1939165 0.3754109 255 255 255 255 0.187500 0.562500
0.23244 0.05804 0.046235 0.9621685 0.1939173 0.1913843 255 255 255 255 0.218750 0.562500
0.236994 0.05804 -0 0.9810172 0.193921 0 255 255 255 255 0.250000 0.562500
0.23244 0.05804 -0.046235 0.9621685 0.1939173 -0.1913843 255 255 255 255 0.281250 0.562500
0.218954 0.05804 -0.090694 0.906346 0.1939165 -0.3754109 255 255 255 255 0.312500 0.562500
0.197053 0.05804 -0.131667 0.8156915 0.1939206 -0.5450158 255 255 255 255 0.343750 0.562500
0.16758 0.05804 -0.16758 0.6936836 0.193923 -0.6936836 255 255 255 255 0.375000 0.562500
0.131667 0.05804 -0.197054 0.5450158 0.1939206 -0.8156915 255 255 255 255 0.406250 0.562500
0.090694 0.05804 -0.218954 0.3754109 0.1939165 -0.906346 255 255 255 255 0.437500 0.562500
0.046235 0.05804 -0.232441 0.1913843 0.1939173 -0.9621685 255 255 255 255 0.468750 0.562500
-0 0.05804 -0.236994 0 0.193921 -0.9810172 255 255 255 255 0.500000 0.562500
-0.046236 0.05804 -0.23244 -0.1913843 0.1939173 -0.9621685 255 255 255 255 0.531250 0.562500
-0.090694 0.05804 -0.218954 -0.3754109 0.1939165 -0.906346 255 255 255 255 0.562500 0.562500
-0.131667 0.05804 -0.197053 -0.5450158 0.1939206 -0.8156915 255 255 255 255 0.593750 0.562500
-0.16758 0.05804 -0.16758 -0.6936836 0.193923 -0.6936836 255 255 255 255 0.625000 0.562500
-0.197054 0.05804 -0.131667 -0.8156915 0.1939206 -0.5450158 255 255 255 255 0.656250 0.562500
-0.218954 0.05804 -0.090693 -0.906346 0.1939165 -0.3754109 255 255 255 255 0.687500 0.562500
-0.232441 0.05804 -0.046235 -0.9621685 0.1939173 -0.1913843 255 255 255 255 0.718750 0.562500
-0.236994 0.05804 0 -0.9810172 0.193921 0 255 255 255 255 0.750000 0.562500
-0.23244 0.05804 0.046236 -0.9621685 0.1939173 0.1913843 255 255 255 255 0.781250 0.562500
-0.218954 0.05804 0.090694 -0.906346 0.1939165 0.3754109 255 255 255 255 0.812500 0.562500
-0.197053 0.05804 0.131667 -0.8156915 0.1939206 0.5450158 255 255 255 255 0.843750 0.562500
-0.16758 0.05804 0.167581 -0.6936836 0.193923 0.6936836 255 255 255 255 0.875000 0.562500
-0.131667 0.05804 0.197054 -0.5450158 0.1939206 0.8156915 255 255 255 255 0.906250 0.562500
-0.090693 0.05804 0.218954 -0.3754109 0.1939165 0.906346 255 255 255 255 0.937500 0.562500
-0.046235 0.05804 0.232441 -0.1913843 0.1939173 0.9621685 255 255 255 255 0.968750 0.562500
0 0.05804 0.236994 0 0.193921 0.9810172 255 255 255 255 1.000000 0.562500
0.047141 0.010899 0.236994 0.1948366 0.04889267 0.9796163 255 255 255 255 0.031250 0.500000
0 0.010899 0.241637 0 0.04889223 0.9988041 255 255 255 255 0.000000 0.500000
0.092471 0.010899 0.223244 0.3822216 0.04889198 0.9227764 255 255 255 255 0.062500 0.500000
0.134246 0.010899 0.200914 0.554896 0.0488917 0.8304819 255 255 255 255 0.093750 0.500000
0.170863 0.010899 0.170863 0.7062612 0.04889115 0.7062612 255 255 255 255 0.125000 0.500000
0.200914 0.010899 0.134246 0.8304819 0.0488917 0.554896 255 255 255 255 0.156250 0.500000
0.223244 0.010899 0.092471 0.9227764 0.04889198 0.3822216 255 255 255 255 0.187500 0.500000
0.236994 0.010899 0.047141 0.9796163 0.04889267 0.1948366 255 255 255 255 0.218750 0.500000
0.241637 0.010899 -0 0.9988041 0.04889223 0 255 255 255 255 0.250000 0.500000
0.236994 0.010899 -0.047141 0.9796163 0.04889267 -0.1948366 255 255 255 255 0.281250 0.500000
0.223244 0.010899 -0.092471 0.9227764 0.04889198 -0.3822216 255 255 255 255 0.312500 0.500000
0.200914 0.010899 -0.134247 0.8304819 0.0488917 -0.554896 255 255 255 255 0.343750 0.500000
0.170863 0.010899 -0.170863 0.7062612 0.04889115 -0.7062612 255 255 255 255 0.375000 0.500000
0.134246 0.010899 -0.200914 0.554896 0.0488917 -0.8304819 255 255 255 255 0.406250 0.500000
0.09247 0.010899 -0.223244 0.3822216 0.04889198 -0.9227764 255 255 255 255 0.437500 0.500000
0.047141 0.010899 -0.236994 0.1948366 0.04889267 -0.9796163 255 255 255 255 0.468750 0.500000
-0 0.010899 -0.241637 0 0.04889223 -0.9988041 255 255 255 255 0.500000 0.500000
-0.047141 0.010899 -0.236994 -0.1948366 0.04889267 -0.9796163 255 255 255 255 0.531250 0.500000
-0.092471 0.010899 -0.223244 -0.3822216 0.04889198 -0.9227764 255 255 255 255 0.562500 0.500000
-0.134247 0.010899 -0.200914 -0.554896 0.0488917 -0.8304819 255 255 255 255 0.593750 0.500000
-0.170864 0.010899 -0.170863 -0.7062612 0.04889115 -0.7062612 255 255 255 255 0.625000 0.500000
-0.200914 0.010899 -0.134246 -0.8304819 0.0488917 -0.554896 255 255 255 255 0.656250 0.500000
-0.223244 0.010899 -0.09247 -0.9227764 0.04889198 -0.3822216 255 255 255 255 0.687500 0.500000
-0.236994 0.010899 -0.047141 -0.9796163 0.04889267 -0.1948366 255 255 255 255 0.718750 0.500000
-0.241637 0.010899 0 -0.9988041 0.04889223 0 255 255 255 255 0.750000 0.500000
-0.236994 0.010899 0.047141 -0.9796163 0.04889267 0.1948366 255 255 255 255 0.781250 0.500000
-0.223244 0.010899 0.092471 -0.9227764 0.04889198 0.3822216 255 255 255 255 0.812500 0.500000
-0.200914 0.010899 0.134247 -0.8304819 0.0488917 0.554896 255 255 255 255 0.843750 0.500000
-0.170863 0.010899 0.170864 -0.7062461 0.04889219 0.7062762 255 255 255 255 0.875000 0.500000
-0.134246 0.010899 0.200914 -0.554896 0.0488917 0.8304819 255 255 255 255 0.906250 0.500000
-0.09247 0.010899 0.223244 -0.3822216 0.04889198 0.9227764 255 255 255 255 0.937500 0.500000
-0.047141 0.010899 0.236994 -0.1948366 0.04889267 0.9796163 255 255 255 255 0.968750 0.500000
0 0.010899 0.241637 0 0.04889223 0.9988041 255 255 255 255 1.000000 0.500000
0 -0.190375 0.241637 0 -0.6857038 0.7278807 255 255 255 255 0.000000 0.500000
0.047141 -0.190375 0.236994 0.1420049 -0.6856992 0.7138987 255 255 255 255 0.031250 0.500000
0.092471 -0.190375 0.223244 0.2785449 -0.6856972 0.672482 255 255 255 255 0.062500 0.500000
0.134246 -0.190375 0.200914 0.4043764 -0.6857008 0.6052225 255 255 255 255 0.093750 0.500000
0.170863 -0.190375 0.170863 0.5146824 -0.6857144 0.5146824 255 255 255 255 0.125000 0.500000
0.200914 -0.190375 0.134246 0.6052225 -0.6857008 0.4043764 255 255 255 255 0.156250 0.500000
0.223244 -0.190375 0.092471 0.6724821 -0.6856972 0.278545 255 255 255 255 0.187500 0.500000
0.236994 -0.190375 0.047141 0.7138987 -0.6856992 0.1420049 255 255 255 255 0.218750 0.500000
0.241637 -0.190375 -0 0.7278807 -0.6857038 0 255 255 255 255 0.250000 0.500000
0.236994 -0.190375 -0.047141 0.7138987 -0.6856992 -0.1420049 255 255 255 255 0.281250 0.500000
0.223244 -0.190375 -0.092471 0.6724821 -0.6856972 -0.278545 255 255 255 255 0.312500 0.500000
0.200914 -0.190375 -0.134247 0.6052225 -0.6857008 -0.4043764 255 255 255 255 0.343750 0.500000
0.170863 -0.190375 -0.170863 0.5146741 -0.6857035 -0.5147051 255 255 255 255 0.375000 0.500000
0.134246 -0.190375 -0.200914 0.4043764 -0.6857008 -0.6052225 255 255 255 255 0.406250 0.500000
0.09247 -0.190375 -0.223244 0.2785449 -0.6856972 -0.672482 255 255 255 255 0.437500 0.500000
0.047141 -0.190375 -0.236994 0.1420049 -0.6856992 -0.7138987 255 255 255 255 0.468750 0.500000
-0 -0.190375 -0.241637 0 -0.6857038 -0.7278807 255 255 255 255 0.500000 0.500000
-0.047141 -0.190375 -0.236994 -0.1420049 -0.6856992 -0.7138987 255 255 255 255 0.531250 0.500000
-0.092471 -0.190375 -0.223244 -0.2785449 -0.6856972 -0.672482 255 255 255 255 0.562500 0.500000
-0.134247 -0.190375 -0.200914 -0.4043764 -0.6857008 -0.6052225 255 255 255 255 0.593750 0.500000
-0.170864 -0.190375 -0.170863 -0.5147051 -0.6857035 -0.5146741 255 255 255 255 0.625000 0.500000
-0.200914 -0.190375 -0.134246 -0.6052225 -0.6857008 -0.4043764 255 255 255 255 0.656250 0.500000
-0.223244 -0.190375 -0.09247 -0.6724821 -0.6856972 -0.278545 255 255 255 255 0.687500 0.500000
-0.236994 -0.190375 -0.047141 -0.7138987 -0.6856992 -0.1420049 255 255 255 255 0.718750 0.500000
-0.241637 -0.190375 0 -0.7278807 -0.6857038 0 255 255 255 255 0.750000 0.500000
-0.236994 -0.190375 0.047141 -0.7138987 -0.6856992 0.1420049 255 255 255 255 0.781250 0.500000
-0.223244 -0.190375 0.092471 -0.6724821 -0.6856972 0.278545 255 255 255 255 0.812500 0.500000
-0.200914 -0.190375 0.134247 -0.6052225 -0.6857008 0.4043764 255 255 255 255 0.843750 0.500000
-0.170863 -0.190375 0.170864 -0.5146741 -0.6857035 0.5147051 255 255 255 255 0.875000 0.500000
-0.134246 -0.190375 0.200914 -0.4043764 -0.6857008 0.6052225 255 255 255 255 0.906250 0.500000
-0.09247 -0.190375 0.223244 -0.2785449 -0.6856972 0.672482 255 255 255 255 0.937500 0.500000
-0.047141 -0.190375 0.236994 -0.1419746 -0.6857023 0.7139018 255 255 255 255 0.968750 0.500000
0 -0.190375 0.241637 0 -0.6857038 0.7278807 255 255 255 255 1.000000 0.500000
3 0 1 2 
3 3 2 4 
3 5 4 6 
3 7 6 8 
3 9 8 10 
3 11 10 12 
3 13 12 14 
3 15 14 16 
3 17 16 18 
3 19 18 20 
3 21 20 22 
3 23 22 24 
3 25 24 26 
3 27 26 28 
3 29 28 30 
3 31 30 32 
3 33 32 34 
3 35 34 36 
3 37 36 38 
3 39 38 40 
3 41 40 42 
3 43 42 44 
3 45 44 46 
3 47 46 48 
3 49 48 50 
3 51 50 52 
3 53 52 54 
3 55 54 56 
3 57 56 58 
3 59 58 60 
3 61 60 62 
3 63 62 64 
3 65 2 1 
3 1 66 65 
3 67 4 2 
3 2 65 67 
3 68 6 4 
3 4 67 68 
3 69 8 6 
3 6 68 69 
3 70 10 8 
3 8 69 70 
3 71 12 10 
3 10 70 71 
3 72 14 12 
3 12 71 72 
3 73 16 14 
3 14 72 73 
3 74 18 16 
3 16 73 74 
3 75 20 18 
3 18 74 75 
3 76 22 20 
3 20 75 76 
3 77 24 22 
3 22 76 77 
3 78 26 24 
3 24 77 78 
3 79 28 26 
3 26 78 79 
3 80 30 28 
3 28 79 80 
3 81 32 30 
3 30 80 81 
3 82 34 32 
3 32 81 82 
3 83 36 34 
3 34 82 83 
3 84 38 36 
3 36 83 84 
3 85 40 38 
3 38 84 85 
3 86 42 40 
3 40 85 86 
3 87 44 42 
3 42 86 87 
3 88 46 44 
3 44 87 88 
3 89 48 46 
3 46 88 89 
3 90 50 48 
3 48 89 90 
3 91 52 50 
3 50 90 91 
3 92 54 52 
3 52 91 92 
3 93 56 54 
3 54 92 93 
3 94 58 56 
3 56 93 94 
3 95 60 58 
3 58 94 95 
3 96 62 60 
3 60 95 96 
3 97 64 62 
3 62 96 97 
3 98 65 66 
3 66 99 98 
3 100 67 65 
3 65 98 100 
3 101 68 67 
3 67 100 101 
3 102 69 68 
3 68 101 102 
3 103 70 69 
3 69 102 103 
3 104 71 70 
3 70 103 104 
3 105 72 71 
3 71 104 105 
3 106 73 72 
3 72 105 106 
3 107 74 73 
3 73 106 107 
3 108 75 74 
3 74 107 108 
3 109 76 75 
3 75 108 109 
3 110 77 76 
3 76 109 110 
3 111 78 77 
3 77 110 111 
3 112 79 78 
3 78 111 112 
3 113 80 79 
3 79 112 113 
3 114 81 80 
3 80 113 114 
3 115 82 81 
3 81 114 115 
3 116 83 82 
3 82 115 116 
3 117 84 83 
3 83 116 117 
3 118 85 84 
3 84 117 118 
3 119 86 85 
3 85 118 119 
3 120 87 86 
3 86 119 120 
3 121 88 87 
3 87 120 121 
3 122 89 88 
3 88 121 122 
3 123 90 89 
3 89 122 123 
3 124 91 90 
3 90 123 124 
3 125 92 91 
3 91 124 125 
3 126 93 92 
3 92 125 126 
3 127 94 93 
3 93 126 127 
3 128 95 94 
3 94 127 128 
3 129 96 95 
3 95 128 129 
3 130 97 96 
3 96 129 130 
3 131 98 99 
3 99 132 131 
3 133 100 98 
3 98 131 133 
3 134 101 100 
3 100 133 134 
3 135 102 101 
3 101 134 135 
3 136 103 102 
3 102 135 136 
3 137 104 103 
3 103 136 137 
3 138 105 104 
3 104 137 138 
3 139 106 105 
3 105 138 139 
3 140 107 106 
3 106 139 140 
3 141 108 107 
3 107 140 141 
3 142 109 108 
3 108 141 142 
3 143 110 109 
3 109 142 143 
3 144 111 110 
3 110 143 144 
3 145 112 111 
3 111 144 145 
3 146 113 112 
3 112 145 146 
3 147 114 113 
3 113 146 147 
3 148 115 114 
3 114 147 148 
3 149 116 115 
3 115 148 149 
3 150 117 116 
3 116 149 150 
3 151 118 117 
3 117 150 151 
3 152 119 118 
3 118 151 152 
3 153 120 119 
3 119 152 153 
3 154 121 120 
3 120 153 154 
3 155 122 121 
3 121 154 155 
3 156 123 122 
3 122 155 156 
3 157 124 123 
3 123 156 157 
3 158 125 124 
3 124 157 158 
3 159 126 125 
3 125 158 159 
3 160 127 126 
3 126 159 160 
3 161 128 127 
3 127 160 161 
3 162 129 128 
3 128 161 162 
3 163 130 129 
3 129 162 163 
3 164 131 132 
3 132 165 164 
3 166 133 131 
3 131 164 166 
3 167 134 133 
3 133 166 167 
3 168 135 134 
3 134 167 168 
3 169 136 135 
3 135 168 169 
3 170 137 136 
3 136 169 170 
3 171 138 137 
3 137 170 171 
3 172 139 138 
3 138 171 172 
3 173 140 139 
3 139 172 173 
3 174 141 140 
3 140 173 174 
3 175 142 141 
3 141 174 175 
3 176 143 142 
3 142 175 176 
3 177 144 143 
3 143 176 177 
3 178 145 144 
3 144 177 178 
3 179 146 145 
3 145 178 179 
3 180 147 146 
3 146 179 180 
3 181 148 147 
3 147 180 181 
3 182 149 148 
3 148 181 182 
3 183 150 149 
3 149 182 183 
3 184 151 150 
3 150 183 184 
3 185 152 151 
3 151 184 185 
3 186 153 152 
3 152 185 186 
3 187 154 153 
3 153 186 187 
3 188 155 154 
3 154 187 188 
3 189 156 155 
3 155 188 189 
3 190 157 156 
3 156 189 190 
3 191 158 157 
3 157 190 191 
3 192 159 158 
3 158 191 192 
3 193 160 159 
3 159 192 193 
3 194 161 160 
3 160 193 194 
3 195 162 161 
3 161 194 195 
3 196 163 162 
3 162 195 196 
3 197 164 165 
3 165 198 197 
3 199 166 164 
3 164 197 199 
3 200 167 166 
3 166 199 200 
3 201 168 167 
3 167 200 201 
3 202 169 168 
3 168 201 202 
3 203 170 169 
3 169 202 203 
3 204 171 170 
3 170 203 204 
3 205 172 171 
3 171 204 205 
3 206 173 172 
3 172 205 206 
3 207 174 173 
3 173 206 207 
3 208 175 174 
3 174 207 208 
3 209 176 175 
3 175 208 209 
3 210 177 176 
3 176 209 210 
3 211 178 177 
3 177 210 211 
3 212 179 178 
3 178 211 212 
3 213 180 179 
3 179 212 213 
3 214 181 180 
3 180 213 214 
3 215 182 181 
3 181 214 215 
3 216 183 182 
3 182 215 216 
3 217 184 183 
3 183 216 217 
3 218 185 184 
3 184 217 218 
3 219 186 185 
3 185 218 219 
3 220 187 186 
3 186 219 220 
3 221 188 187 
3 187 220 221 
3 222 189 188 
3 188 221 222 
3 223 190 189 
3 189 222 223 
3 224 191 190 
3 190 223 224 
3 225 192 191 
3 191 224 225 
3 226 193 192 
3 192 225 226 
3 227 194 193 
3 193 226 227 
3 228 195 194 
3 194 227 228 
3 229 196 195 
3 195 228 229 
3 230 197 198 
3 198 231 230 
3 232 199 197 
3 197 230 232 
3 233 200 199 
3 199 232 233 
3 234 201 200 
3 200 233 234 
3 235 202 201 
3 201 234 235 
3 236 203 202 
3 202 235 236 
3 237 204 203 
3 203 236 237 
3 238 205 204 
3 204 237 238 
3 239 206 205 
3 205 238 239 
3 240 207 206 
3 206 239 240 
3 241 208 207 
3 207 240 241 
3 242 209 208 
3 208 241 242 
3 243 210 209 
3 209 242 243 
3 244 211 210 
3 210 243 244 
3 245 212 211 
3 211 244 245 
3 246 213 212 
3 212 245 246 
3 247 214 213 
3 213 246 247 
3 248 215 214 
3 214 247 248 
3 249 216 215 
3 215 248 249 
3 250 217 216 
3 216 249 250 
3 251 218 217 
3 217 250 251 
3 252 219 218 
3 218 251 252 
3 253 220 219 
3 219 252 253 
3 254 221 220 
3 220 253 254 
3 255 222 221 
3 221 254 255 
3 256 223 222 
3 222 255 256 
3 257 224 223 
3 223 256 257 
3 258 225 224 
3 224 257 258 
3 259 226 225 
3 225 258 259 
3 260 227 226 
3 226 259 260 
3 261 228 227 
3 227 260 261 
3 262 229 228 
3 228 261 262 
3 263 230 231 
3 231 264 263 
3 265 232 230 
3 230 263 265 
3 266 233 232 
3 232 265 266 
3 267 234 233 
3 233 266 267 
3 268 235 234 
3 234 267 268 
3 269 236 235 
3 235 268 269 
3 270 237 236 
3 236 269 270 
3 271 238 237 
3 237 270 271 
3 272 239 238 
3 238 271 272 
3 273 240 239 
3 239 272 273 
3 274 241 240 
3 240 273 274 
3 275 242 241 
3 241 274 275 
3 276 243 242 
3 242 275 276 
3 277 244 243 
3 243 276 277 
3 278 245 244 
3 244 277 278 
3 279 246 245 
3 245 278 279 
3 280 247 246 
3 246 279 280 
3 281 248 247 
3 247 280 281 
3 282 249 248 
3 248 281 282 
3 283 250 249 
3 249 282 283 
3 284 251 250 
3 250 283 284 
3 285 252 251 
3 251 284 285 
3 286 253 252 
3 252 285 286 
3 287 254 253 
3 253 286 287 
3 288 255 254 
3 254 287 288 
3 289 256 255 
3 255 288 289 
3 290 257 256 
3 256 289 290 
3 291 258 257 
3 257 290 291 
3 292 259 258 
3 258 291 292 
3 293 260 259 
3 259 292 293 
3 294 261 260 
3 260 293 294 
3 295 262 261 
3 261 294 295 
3 263 264 296 
3 296 297 263 
3 265 263 297 
3 297 298 265 
3 266 265 298 
3 298 299 266 
3 267 266 299 
3 299 300 267 
3 268 267 300 
3 300 301 268 
3 269 268 301 
3 301 302 269 
3 270 269 302 
3 302 303 270 
3 271 270 303 
3 303 304 271 
3 272 271 304 
3 304 305 272 
3 273 272 305 
3 305 306 273 
3 274 273 306 
3 306 307 274 
3 275 274 307 
3 307 308 275 
3 276 275 308 
3 308 309 276 
3 277 276 309 
3 309 310 277 
3 278 277 310 
3 310 311 278 
3 279 278 311 
3 311 312 279 
3 280 279 312 
3 312 313 280 
3 281 280 313 
3 313 314 281 
3 282 281 314 
3 314 315 282 
3 283 282 315 
3 315 316 283 
3 284 283 316 
3 316 317 284 
3 285 284 317 
3 317 318 285 
3 286 285 318 
3 318 319 286 
3 287 286 319 
3 319 320 287 
3 288 287 320 
3 320 321 288 
3 289 288 321 
3 321 322 289 
3 290 289 322 
3 322 323 290 
3 291 290 323 
3 323 324 291 
3 292 291 324 
3 324 325 292 
3 293 292 325 
3 325 326 293 
3 294 293 326 
3 326 327 294 
3 295 294 327 
3 327 328 295 
3 327 326 325 
3 325 324 323 
3 323 322 321 
3 325 323 321 
3 321 320 319 
3 319 318 317 
3 321 319 317 
3 317 316 315 
3 315 314 313 
3 317 315 313 
3 321 317 313 
3 313 312 311 
3 311 310 309 
3 313 311 309 
3 309 308 307 
3 307 306 305 
3 309 307 305 
3 313 309 305 
3 305 304 303 
3 303 302 301 
3 305 303 301 
3 301 300 299 
3 299 298 297 
3 301 299 297 
3 305 301 297 
3 313 305 297 
3 321 313 297 
3 325 321 297 
3 327 325 297 
3 296 327 297 
