ply
format ascii 1.0
comment VCGLIB generated
element vertex 72
property float x
property float y
property float z
property float nx
property float ny
property float nz
property uchar red
property uchar green
property uchar blue
property uchar alpha
property float texture_u
property float texture_v
element face 34
property list uchar int vertex_indices
end_header
-0.9999999 -4.371139e-08 -1 0 -1 4.371139e-08 255 255 255 255 0.000000 1.000000
0.9999999 4.371139e-08 1 0 -1 4.371139e-08 255 255 255 255 1.000000 0.000000
-0.9999999 4.371139e-08 1 0 -1 4.371139e-08 255 255 255 255 0.000000 0.000000
-0.9999999 -4.371139e-08 -1 0 0.0747899 -0.9971993 255 255 255 255 0.000000 1.000000
0.6999999 4 -0.7000002 0 0.0747899 -0.9971993 255 255 255 255 1.000000 1.000000
0.9999999 -4.371139e-08 -1 0 0.0747899 -0.9971993 255 255 255 255 1.000000 1.000000
0.9999999 4.371139e-08 1 0 0.07478999 0.9971993 255 255 255 255 1.000000 0.000000
-0.6999999 4 0.6999998 0 0.07478999 0.9971993 255 255 255 255 0.000000 0.000000
-0.9999999 4.371139e-08 1 0 0.07478999 0.9971993 255 255 255 255 0.000000 0.000000
0.9999999 -4.371139e-08 -1 0.9971993 0.07478996 -3.269173e-09 255 255 255 255 1.000000 1.000000
0.6999999 4 0.6999998 0.9971993 0.07478996 -3.269173e-09 255 255 255 255 1.000000 0.000000
0.9999999 4.371139e-08 1 0.9971993 0.07478996 -3.269173e-09 255 255 255 255 1.000000 0.000000
-0.9999999 4.371139e-08 1 -0.9971993 0.07478996 -3.269173e-09 255 255 255 255 0.000000 0.000000
-0.6999999 4 -0.7000002 -0.9971993 0.07478996 -3.269173e-09 255 255 255 255 0.000000 1.000000
-0.9999999 -4.371139e-08 -1 -0.9971993 0.07478996 -3.269173e-09 255 255 255 255 0.000000 1.000000
0.6999999 4 -0.7000002 0.9986247 0.0524278 -2.291692e-09 255 255 255 255 1.000000 1.000000
0.4899999 8 0.4899996 0.9986247 0.0524278 -2.291692e-09 255 255 255 255 1.000000 0.000000
0.6999999 4 0.6999998 0.9986247 0.0524278 -2.291692e-09 255 255 255 255 1.000000 0.000000
-0.6999999 4 0.6999998 -0.9986247 0.0524278 -2.291692e-09 255 255 255 255 0.000000 0.000000
-0.4899999 8 -0.4900003 -0.9986247 0.0524278 -2.291692e-09 255 255 255 255 0.000000 1.000000
-0.6999999 4 -0.7000002 -0.9986247 0.0524278 -2.291692e-09 255 255 255 255 0.000000 1.000000
-0.6999999 4 -0.7000002 0 0.05242775 -0.9986247 255 255 255 255 0.000000 1.000000
0.4899999 8 -0.4900003 0 0.05242775 -0.9986247 255 255 255 255 1.000000 1.000000
0.6999999 4 -0.7000002 0 0.05242775 -0.9986247 255 255 255 255 1.000000 1.000000
0.6999999 4 0.6999998 0 0.05242784 0.9986247 255 255 255 255 1.000000 0.000000
-0.4899999 8 0.4899996 0 0.05242784 0.9986247 255 255 255 255 0.000000 0.000000
-0.6999999 4 0.6999998 0 0.05242784 0.9986247 255 255 255 255 0.000000 0.000000
0.4899999 8 -0.4900003 0.9973098 0.07330228 -3.204144e-09 255 255 255 255 1.000000 1.000000
0.196 12 0.1959995 0.9973098 0.07330228 -3.204144e-09 255 255 255 255 1.000000 0.000000
0.4899999 8 0.4899996 0.9973098 0.07330228 -3.204144e-09 255 255 255 255 1.000000 0.000000
-0.4899999 8 0.4899996 -0.9973098 0.07330228 -3.204144e-09 255 255 255 255 0.000000 0.000000
-0.196 12 -0.1960005 -0.9973098 0.07330228 -3.204144e-09 255 255 255 255 0.000000 1.000000
-0.4899999 8 -0.4900003 -0.9973098 0.07330228 -3.204144e-09 255 255 255 255 0.000000 1.000000
-0.4899999 8 -0.4900003 0 0.07330222 -0.9973098 255 255 255 255 0.000000 1.000000
0.196 12 -0.1960005 0 0.07330222 -0.9973098 255 255 255 255 1.000000 1.000000
0.4899999 8 -0.4900003 0 0.07330222 -0.9973098 255 255 255 255 1.000000 1.000000
0.4899999 8 0.4899996 0 0.07330231 0.9973098 255 255 255 255 1.000000 0.000000
-0.196 12 0.1959995 0 0.07330231 0.9973098 255 255 255 255 0.000000 0.000000
-0.4899999 8 0.4899996 0 0.07330231 0.9973098 255 255 255 255 0.000000 0.000000
0.196 12 -0.1960005 0 0 0 255 255 255 255 1.000000 1.000000
0 16 -6.993822e-07 0 0 0 255 255 255 255 0.000000 1.000000
0 16 -6.993822e-07 0 0 0 255 255 255 255 1.000000 1.000000
-0.196 12 0.1959995 0 0 0 255 255 255 255 0.000000 0.000000
0 16 -6.993822e-07 0 0 0 255 255 255 255 1.000000 0.000000
0 16 -6.993822e-07 0 0 0 255 255 255 255 0.000000 0.000000
0.196 12 0.1959995 0 0 0 255 255 255 255 1.000000 0.000000
-0.196 12 -0.1960005 0 0 0 255 255 255 255 0.000000 1.000000
0.9999999 -4.371139e-08 -1 0 -1 4.371139e-08 255 255 255 255 1.000000 1.000000
-0.6999999 4 -0.7000002 0 0.0747899 -0.9971993 255 255 255 255 0.000000 1.000000
0.6999999 4 0.6999998 0 0.07478999 0.9971993 255 255 255 255 1.000000 0.000000
0.6999999 4 -0.7000002 0.9971993 0.07478996 -3.269173e-09 255 255 255 255 1.000000 1.000000
-0.6999999 4 0.6999998 -0.9971993 0.07478996 -3.269173e-09 255 255 255 255 0.000000 0.000000
0.4899999 8 -0.4900003 0.9986247 0.05242781 -2.291692e-09 255 255 255 255 1.000000 1.000000
-0.4899999 8 0.4899996 -0.9986247 0.05242781 -2.291692e-09 255 255 255 255 0.000000 0.000000
-0.4899999 8 -0.4900003 0 0.05242776 -0.9986247 255 255 255 255 0.000000 1.000000
0.4899999 8 0.4899996 0 0.05242785 0.9986247 255 255 255 255 1.000000 0.000000
0.196 12 -0.1960005 0.9973098 0.07330227 -3.204144e-09 255 255 255 255 1.000000 1.000000
-0.196 12 0.1959995 -0.9973098 0.07330227 -3.204144e-09 255 255 255 255 0.000000 0.000000
-0.196 12 -0.1960005 0 0.07330222 -0.9973098 255 255 255 255 0.000000 1.000000
0.196 12 0.1959995 0 0.07330231 0.9973098 255 255 255 255 1.000000 0.000000
0.196 12 -0.1960005 0 0.04894124 -0.9988016 255 255 255 255 1.000000 1.000000
-0.196 12 -0.1960005 0 0.04894124 -0.9988016 255 255 255 255 0.000000 1.000000
0 16 -6.993822e-07 0 0.04894124 -0.9988016 255 255 255 255 0.000000 1.000000
-0.196 12 0.1959995 0 0.04894133 0.9988016 255 255 255 255 0.000000 0.000000
0.196 12 0.1959995 0 0.04894133 0.9988016 255 255 255 255 1.000000 0.000000
0 16 -6.993822e-07 0 0.04894133 0.9988016 255 255 255 255 1.000000 0.000000
0.196 12 0.1959995 0.9988016 0.04894129 -2.139292e-09 255 255 255 255 1.000000 0.000000
0.196 12 -0.1960005 0.9988016 0.04894129 -2.139292e-09 255 255 255 255 1.000000 1.000000
0 16 -6.993822e-07 0.9988016 0.04894129 -2.139292e-09 255 255 255 255 1.000000 1.000000
-0.196 12 -0.1960005 -0.9988016 0.04894129 -2.139292e-09 255 255 255 255 0.000000 1.000000
-0.196 12 0.1959995 -0.9988016 0.04894129 -2.139292e-09 255 255 255 255 0.000000 0.000000
0 16 -6.993822e-07 -0.9988016 0.04894129 -2.139292e-09 255 255 255 255 0.000000 0.000000
3 0 1 2 
3 3 4 5 
3 6 7 8 
3 9 10 11 
3 12 13 14 
3 15 16 17 
3 18 19 20 
3 21 22 23 
3 24 25 26 
3 27 28 29 
3 30 31 32 
3 33 34 35 
3 36 37 38 
3 39 40 41 
3 42 43 44 
3 45 41 43 
3 46 44 40 
3 0 47 1 
3 3 48 4 
3 6 49 7 
3 9 50 10 
3 12 51 13 
3 15 52 16 
3 18 53 19 
3 21 54 22 
3 24 55 25 
3 27 56 28 
3 30 57 31 
3 33 58 34 
3 36 59 37 
3 60 61 62 
3 63 64 65 
3 66 67 68 
3 69 70 71 
