ply
format ascii 1.0
comment VCGLIB generated
element vertex 66
property float x
property float y
property float z
property float nx
property float ny
property float nz
property uchar red
property uchar green
property uchar blue
property uchar alpha
element face 38
property list uchar int vertex_indices
end_header
0.1737945 0.243515 0.018883 0.225622 -0.9742149 0 192 192 192 255 
0.131741 0.407659 0.018883 -0.2256217 0.974215 0 192 192 192 255 
4.86826 4.59234 0.018883 0.2256215 -0.974215 0 192 192 192 255 
4.826205 4.75648 0.018883 -0.2256217 0.9742149 0 192 192 192 255 
4.86826 4.59234 0.21315 0.09525031 -0.4112821 0.9065177 192 192 192 255 
4.826205 4.75648 0.21315 -0.1987892 0.8583546 0.47298 192 192 192 255 
0.1737945 0.243515 0.21315 0.198789 -0.8583547 0.47298 192 192 192 255 
0.131741 0.407659 0.21315 -0.09525029 0.4112825 0.9065176 192 192 192 255 
4.826205 0.243515 0.213158 -0.09525029 -0.4112825 0.9065176 192 192 192 255 
4.86826 0.407659 0.213158 0.1987892 0.8583546 0.47298 192 192 192 255 
0.131741 4.59234 0.213158 -0.198789 -0.8583547 0.47298 192 192 192 255 
0.173795 4.75648 0.213158 0.09525031 0.4112821 0.9065177 192 192 192 255 
0.131741 4.59234 0.01889 -0.2256217 -0.9742149 0 192 192 192 255 
0.173795 4.75648 0.01889 0.2256217 0.974215 0 192 192 192 255 
4.826205 0.243515 0.01889 -0.2256215 -0.974215 0 192 192 192 255 
4.86826 0.407659 0.01889 0.225622 0.9742149 0 192 192 192 255 
5 0 0 0 0 1 192 192 192 255 
0 0 0 0 0 1 192 192 192 255 
5 5 0 0 0 1 192 192 192 255 
0 5 0 0 0 1 192 192 192 255 
0 0 0.321823 -0.1561738 -0.3123476 0.9370425 192 192 192 255 
5 0 0.321823 0.2672613 -0.5345225 0.8017837 192 192 192 255 
0 5 0.321823 -0.2672613 0.5345225 0.8017837 192 192 192 255 
5 5 0.321823 0.1561738 0.3123476 0.9370425 192 192 192 255 
0 5 0 -0.4472136 0.8944272 0 192 192 192 255 
5 5 0 0.4472136 0.8944272 0 192 192 192 255 
0 0 0 -0.4472136 -0.8944272 0 192 192 192 255 
5 0 0 0.4472136 -0.8944272 0 192 192 192 255 
0.1527685 0.325587 0.321823 0.1373606 0.5494423 0.8241634 192 192 192 255 
4.84723 0.325587 0.321823 -0.3015114 0.3015114 0.904534 192 192 192 255 
4.84723 4.67441 0.321823 -0.1373606 -0.5494423 0.8241634 192 192 192 255 
0.1527685 4.67441 0.321823 0.3015114 -0.3015114 0.904534 192 192 192 255 
0.1527685 4.67441 0 0.2425356 -0.9701425 0 192 192 192 255 
4.84723 4.67441 0 -0.7071068 -0.7071068 0 192 192 192 255 
4.84723 0.325587 0 -0.2425356 0.9701425 0 192 192 192 255 
0.1527685 0.325587 0 0.7071068 0.7071068 0 192 192 192 255 
0.131741 0.407659 0.21315 -0.0952503 0.4112825 0.9065175 192 192 192 255 
4.826205 4.75648 0.21315 -0.1987893 0.8583547 0.4729801 192 192 192 255 
0.1737945 0.243515 0.21315 0.198789 -0.8583547 0.47298 192 192 192 255 
4.86826 4.59234 0.21315 0.0952503 -0.4112821 0.9065177 192 192 192 255 
4.86826 0.407659 0.213158 0.1987893 0.8583547 0.4729801 192 192 192 255 
0.173795 4.75648 0.213158 0.0952503 0.4112821 0.9065177 192 192 192 255 
4.826205 0.243515 0.213158 -0.0952503 -0.4112825 0.9065175 192 192 192 255 
0.131741 4.59234 0.213158 -0.198789 -0.8583547 0.47298 192 192 192 255 
5 0 0.321823 0.2672613 -0.5345225 0.8017837 192 192 192 255 
5 0 0 0.4472136 -0.8944272 0 192 192 192 255 
5 5 0 0.4472136 0.8944272 0 192 192 192 255 
5 5 0.321823 0.1561738 0.3123476 0.9370425 192 192 192 255 
0 0 0 -0.4472136 -0.8944272 0 192 192 192 255 
0 0 0.321823 -0.1561738 -0.3123476 0.9370425 192 192 192 255 
0 5 0.321823 -0.2672613 0.5345225 0.8017837 192 192 192 255 
0 5 0 -0.4472136 0.8944272 0 192 192 192 255 
0 0 0.321823 -0.1561738 -0.3123476 0.9370426 192 192 192 255 
5 0 0.321823 0.2672613 -0.5345225 0.8017837 192 192 192 255 
5 5 0.321823 0.1561738 0.3123476 0.9370426 192 192 192 255 
0 5 0.321823 -0.2672613 0.5345225 0.8017837 192 192 192 255 
0.1527685 0.325587 0.321823 0.1373606 0.5494423 0.8241634 192 192 192 255 
4.84723 0.325587 0.321823 -0.3015113 0.3015113 0.904534 192 192 192 255 
4.84723 0.325587 0.321823 -0.3015114 0.3015114 0.904534 192 192 192 255 
4.84723 4.67441 0.321823 -0.1373606 -0.5494422 0.8241634 192 192 192 255 
4.84723 0.325587 0 -0.2425356 0.9701425 0 192 192 192 255 
4.84723 4.67441 0 -0.7071068 -0.7071068 0 192 192 192 255 
0.1527685 4.67441 0.321823 0.3015114 -0.3015114 0.904534 192 192 192 255 
0.1527685 0.325587 0.321823 0.1373606 0.5494422 0.8241634 192 192 192 255 
0.1527685 0.325587 0 0.7071068 0.7071068 0 192 192 192 255 
0.1527685 4.67441 0 0.2425356 -0.9701425 0 192 192 192 255 
3 4 5 7 
3 4 7 6 
3 1 36 37 
3 1 37 3 
3 38 0 2 
3 38 2 39 
3 8 9 11 
3 8 11 10 
3 40 15 13 
3 40 13 41 
3 14 42 43 
3 14 43 12 
3 19 17 16 
3 19 16 18 
3 22 23 25 
3 22 25 24 
3 26 27 21 
3 26 21 20 
3 44 45 46 
3 44 46 47 
3 48 49 50 
3 48 50 51 
3 52 53 29 
3 52 29 28 
3 53 54 30 
3 53 30 29 
3 54 55 31 
3 54 31 30 
3 55 52 28 
3 55 28 31 
3 56 57 34 
3 56 34 35 
3 58 59 33 
3 58 33 60 
3 30 31 32 
3 30 32 61 
3 62 63 64 
3 62 64 65 
