ply
format ascii 1.0
comment VCGLIB generated
element vertex 342
property float x
property float y
property float z
property float nx
property float ny
property float nz
property uchar red
property uchar green
property uchar blue
property uchar alpha
property float texture_u
property float texture_v
element face 220
property list uchar int vertex_indices
end_header
12.56 4.279998 -18.05017 0.9994744 0 -0.03241637 255 255 255 255 12.560000 4.279998
12.56 1.279997 -18.05017 0.9994745 0 -0.03241637 255 255 255 255 12.560000 1.279997
12.54507 4.279998 -18.51052 0.9994745 0 -0.03241637 255 255 255 255 12.545070 4.279998
12.54507 1.279997 -18.51052 0.9994744 0 -0.03241637 255 255 255 255 12.545070 1.279997
12.50092 4.279998 -18.96314 0.9952765 0 -0.09708122 255 255 255 255 12.500920 4.279998
12.54507 4.279998 -18.51052 0.9952765 0 -0.09708121 255 255 255 255 12.545070 4.279998
12.54507 1.279997 -18.51052 0.9952765 0 -0.09708122 255 255 255 255 12.545070 1.279997
12.50092 1.279997 -18.96314 0.9952765 0 -0.09708121 255 255 255 255 12.500920 1.279997
12.42844 4.279998 -19.40694 0.9869248 0 -0.1611819 255 255 255 255 12.428440 4.279998
12.50092 4.279998 -18.96314 0.9869248 0 -0.1611819 255 255 255 255 12.500920 4.279998
12.50092 1.279997 -18.96314 0.9869248 0 -0.1611819 255 255 255 255 12.500920 1.279997
12.42844 1.279997 -19.40694 0.9869248 0 -0.1611819 255 255 255 255 12.428440 1.279997
12.32859 4.279997 -19.841 0.9745473 0 -0.224182 255 255 255 255 12.328590 4.279997
12.42844 4.279998 -19.40694 0.9745473 0 -0.224182 255 255 255 255 12.428440 4.279998
12.42844 1.279997 -19.40694 0.9745473 0 -0.224182 255 255 255 255 12.428440 1.279997
12.32859 1.279997 -19.841 0.9745473 0 -0.224182 255 255 255 255 12.328590 1.279997
12.20229 4.279997 -20.26436 0.9582658 0 -0.2858785 255 255 255 255 12.202290 4.279997
12.32859 4.279997 -19.841 0.9582658 0 -0.2858785 255 255 255 255 12.328590 4.279997
12.32859 1.279997 -19.841 0.9582658 0 -0.2858785 255 255 255 255 12.328590 1.279997
12.20229 1.279997 -20.26436 0.9582658 0 -0.2858785 255 255 255 255 12.202290 1.279997
12.05046 4.279997 -20.67612 0.9382481 0 -0.3459633 255 255 255 255 12.050460 4.279997
12.20229 4.279997 -20.26436 0.938248 0 -0.3459632 255 255 255 255 12.202290 4.279997
12.20229 1.279997 -20.26436 0.9382481 0 -0.3459633 255 255 255 255 12.202290 1.279997
12.05046 1.279997 -20.67612 0.938248 0 -0.3459632 255 255 255 255 12.050460 1.279997
11.87404 4.279997 -21.07535 0.9146725 0 -0.4041958 255 255 255 255 11.874040 4.279997
12.05046 4.279997 -20.67612 0.9146725 0 -0.4041958 255 255 255 255 12.050460 4.279997
12.05046 1.279997 -20.67612 0.9146725 0 -0.4041958 255 255 255 255 12.050460 1.279997
11.87404 1.279997 -21.07535 0.9146725 0 -0.4041958 255 255 255 255 11.874040 1.279997
11.67394 4.279997 -21.46111 0.8876825 0 -0.460456 255 255 255 255 11.673940 4.279997
11.87404 4.279997 -21.07535 0.8876824 0 -0.460456 255 255 255 255 11.874040 4.279997
11.87404 1.279997 -21.07535 0.8876825 0 -0.460456 255 255 255 255 11.874040 1.279997
11.67394 1.279997 -21.46111 0.8876824 0 -0.460456 255 255 255 255 11.673940 1.279997
11.45111 4.279997 -21.83247 0.8574793 0 -0.5145184 255 255 255 255 11.451110 4.279997
11.67394 4.279997 -21.46111 0.8574793 0 -0.5145184 255 255 255 255 11.673940 4.279997
11.67394 1.279997 -21.46111 0.8574793 0 -0.5145184 255 255 255 255 11.673940 1.279997
11.45111 1.279997 -21.83247 0.8574793 0 -0.5145184 255 255 255 255 11.451110 1.279997
11.20647 4.279997 -22.18852 0.8241979 0 -0.5663019 255 255 255 255 11.206470 4.279997
11.45111 4.279997 -21.83247 0.8241979 0 -0.5663019 255 255 255 255 11.451110 4.279997
11.45111 1.279997 -21.83247 0.8241979 0 -0.5663019 255 255 255 255 11.451110 1.279997
11.20647 1.279997 -22.18852 0.8241979 0 -0.5663019 255 255 255 255 11.206470 1.279997
10.94094 4.279997 -22.52831 0.7879474 0 -0.6157426 255 255 255 255 10.940940 4.279997
11.20647 4.279997 -22.18852 0.7879474 0 -0.6157426 255 255 255 255 11.206470 4.279997
11.20647 1.279997 -22.18852 0.7879474 0 -0.6157426 255 255 255 255 11.206470 1.279997
10.94094 1.279997 -22.52831 0.7879474 0 -0.6157426 255 255 255 255 10.940940 1.279997
10.65545 4.279997 -22.85093 0.7488851 0 -0.6626999 255 255 255 255 10.655450 4.279997
10.94094 4.279997 -22.52831 0.7488851 0 -0.6626999 255 255 255 255 10.940940 4.279997
10.94094 1.279997 -22.52831 0.7488851 0 -0.6626999 255 255 255 255 10.940940 1.279997
10.65545 1.279997 -22.85093 0.7488851 0 -0.6626999 255 255 255 255 10.655450 1.279997
10.35093 4.279997 -23.15545 0.707109 0 -0.7071046 255 255 255 255 10.350930 4.279997
10.65545 4.279997 -22.85093 0.707109 0 -0.7071046 255 255 255 255 10.655450 4.279997
10.65545 1.279997 -22.85093 0.707109 0 -0.7071046 255 255 255 255 10.655450 1.279997
10.35093 1.279996 -23.15545 0.707109 0 -0.7071046 255 255 255 255 10.350930 1.279996
10.02831 4.279997 -23.44094 0.6626977 0 -0.7488871 255 255 255 255 10.028310 4.279997
10.35093 4.279997 -23.15545 0.6626977 0 -0.748887 255 255 255 255 10.350930 4.279997
10.35093 1.279996 -23.15545 0.6626977 0 -0.7488871 255 255 255 255 10.350930 1.279996
10.02831 1.279996 -23.44094 0.6626977 0 -0.748887 255 255 255 255 10.028310 1.279996
9.688516 4.279997 -23.70647 0.6157382 0 -0.7879508 255 255 255 255 9.688516 4.279997
10.02831 4.279997 -23.44094 0.6157382 0 -0.7879508 255 255 255 255 10.028310 4.279997
10.02831 1.279996 -23.44094 0.6157382 0 -0.7879508 255 255 255 255 10.028310 1.279996
9.688516 1.279996 -23.70647 0.6157382 0 -0.7879508 255 255 255 255 9.688516 1.279996
9.332473 4.279997 -23.95111 0.5663102 0 -0.8241923 255 255 255 255 9.332473 4.279997
9.688516 4.279997 -23.70647 0.5663101 0 -0.8241922 255 255 255 255 9.688516 4.279997
9.688516 1.279996 -23.70647 0.5663102 0 -0.8241923 255 255 255 255 9.688516 1.279996
9.332473 1.279996 -23.95111 0.5663101 0 -0.8241922 255 255 255 255 9.332473 1.279996
8.961107 4.279997 -24.17395 0.5145298 0 -0.8574725 255 255 255 255 8.961107 4.279997
9.332473 4.279997 -23.95111 0.5145298 0 -0.8574725 255 255 255 255 9.332473 4.279997
9.332473 1.279996 -23.95111 0.5145298 0 -0.8574725 255 255 255 255 9.332473 1.279996
8.961107 1.279996 -24.17395 0.5145298 0 -0.8574725 255 255 255 255 8.961107 1.279996
8.575349 4.279997 -24.37404 0.4604396 0 -0.887691 255 255 255 255 8.575349 4.279997
8.961107 4.279997 -24.17395 0.4604396 0 -0.887691 255 255 255 255 8.961107 4.279997
8.961107 1.279996 -24.17395 0.4604396 0 -0.887691 255 255 255 255 8.961107 1.279996
8.575349 1.279996 -24.37404 0.4604396 0 -0.887691 255 255 255 255 8.575349 1.279996
8.176125 4.279997 -24.55046 0.4041999 0 -0.9146707 255 255 255 255 8.176125 4.279997
8.575349 4.279997 -24.37404 0.4041998 0 -0.9146706 255 255 255 255 8.575349 4.279997
8.575349 1.279996 -24.37404 0.4041999 0 -0.9146707 255 255 255 255 8.575349 1.279996
8.176125 1.279996 -24.55046 0.4041998 0 -0.9146706 255 255 255 255 8.176125 1.279996
7.764364 4.279997 -24.70229 0.345961 0 -0.9382489 255 255 255 255 7.764364 4.279997
8.176125 4.279997 -24.55046 0.345961 0 -0.9382489 255 255 255 255 8.176125 4.279997
8.176125 1.279996 -24.55046 0.345961 0 -0.9382489 255 255 255 255 8.176125 1.279996
7.764364 1.279996 -24.70229 0.345961 0 -0.9382489 255 255 255 255 7.764364 1.279996
7.340992 4.279997 -24.82859 0.2858717 0 -0.9582679 255 255 255 255 7.340992 4.279997
7.764364 4.279997 -24.70229 0.2858717 0 -0.9582679 255 255 255 255 7.764364 4.279997
7.764364 1.279996 -24.70229 0.2858717 0 -0.9582679 255 255 255 255 7.764364 1.279996
7.340992 1.279996 -24.82859 0.2858717 0 -0.9582679 255 255 255 255 7.340992 1.279996
6.906941 4.279997 -24.92844 0.224186 0 -0.9745464 255 255 255 255 6.906941 4.279997
7.340992 4.279997 -24.82859 0.224186 0 -0.9745464 255 255 255 255 7.340992 4.279997
7.340992 1.279996 -24.82859 0.224186 0 -0.9745464 255 255 255 255 7.340992 1.279996
6.906941 1.279996 -24.92844 0.224186 0 -0.9745464 255 255 255 255 6.906941 1.279996
6.46314 4.279997 -25.00091 0.1611588 0 -0.9869285 255 255 255 255 6.463140 4.279997
6.906941 4.279997 -24.92844 0.1611588 0 -0.9869285 255 255 255 255 6.906941 4.279997
6.906941 1.279996 -24.92844 0.1611588 0 -0.9869285 255 255 255 255 6.906941 1.279996
6.46314 1.279996 -25.00091 0.1611588 0 -0.9869285 255 255 255 255 6.463140 1.279996
6.010515 4.279997 -25.04508 0.09712581 0 -0.9952722 255 255 255 255 6.010515 4.279997
6.46314 4.279997 -25.00091 0.09712581 0 -0.9952722 255 255 255 255 6.463140 4.279997
6.46314 1.279996 -25.00091 0.09712581 0 -0.9952722 255 255 255 255 6.463140 1.279996
6.010515 1.279996 -25.04508 0.09712581 0 -0.9952722 255 255 255 255 6.010515 1.279996
5.550163 4.279997 -25.06 0.03239138 0 -0.9994752 255 255 255 255 5.550163 4.279997
6.010515 4.279997 -25.04508 0.03239138 0 -0.9994752 255 255 255 255 6.010515 4.279997
6.010515 1.279996 -25.04508 0.03239138 0 -0.9994752 255 255 255 255 6.010515 1.279996
5.550163 1.279996 -25.06 0.03239138 0 -0.9994752 255 255 255 255 5.550163 1.279996
0 4.279997 -25.06 0 0 -1 255 255 255 255 0.000000 4.279997
5.550163 4.279997 -25.06 0 0 -1 255 255 255 255 5.550163 4.279997
5.550163 1.279996 -25.06 0 0 -1 255 255 255 255 5.550163 1.279996
0 2.779996 -25.06 0 0 -1 255 255 255 255 0.000000 2.779996
12.54 1.279997 -18.04984 -0.9994758 0 0.03237496 255 255 255 255 12.540000 1.279997
12.54 4.279998 -18.04984 -0.9994757 0 0.03237495 255 255 255 255 12.540000 4.279998
12.52512 4.279998 -18.50922 -0.9994758 0 0.03237496 255 255 255 255 12.525120 4.279998
12.52512 1.279997 -18.50922 -0.9994757 0 0.03237495 255 255 255 255 12.525120 1.279997
12.52512 1.279997 -18.50922 -0.9952732 0 0.09711435 255 255 255 255 12.525120 1.279997
12.52512 4.279998 -18.50922 -0.9952732 0 0.09711435 255 255 255 255 12.525120 4.279998
12.48108 4.279998 -18.96056 -0.9952732 0 0.09711435 255 255 255 255 12.481080 4.279998
12.48108 1.279997 -18.96056 -0.9952732 0 0.09711435 255 255 255 255 12.481080 1.279997
12.48108 1.279997 -18.96056 -0.9869293 0 0.161154 255 255 255 255 12.481080 1.279997
12.48108 4.279998 -18.96056 -0.9869292 0 0.161154 255 255 255 255 12.481080 4.279998
12.40882 4.279998 -19.40309 -0.9869293 0 0.161154 255 255 255 255 12.408820 4.279998
12.40882 1.279997 -19.40309 -0.9869292 0 0.161154 255 255 255 255 12.408820 1.279997
12.40882 1.279997 -19.40309 -0.9745423 0 0.2242037 255 255 255 255 12.408820 1.279997
12.40882 4.279998 -19.40309 -0.9745423 0 0.2242038 255 255 255 255 12.408820 4.279998
12.30925 4.279997 -19.83589 -0.9745423 0 0.2242037 255 255 255 255 12.309250 4.279997
12.30925 1.279997 -19.83589 -0.9745423 0 0.2242037 255 255 255 255 12.309250 1.279997
12.30925 1.279997 -19.83589 -0.9582719 0 0.2858584 255 255 255 255 12.309250 1.279997
12.30925 4.279997 -19.83589 -0.9582719 0 0.2858584 255 255 255 255 12.309250 4.279997
12.18332 4.279997 -20.25804 -0.9582719 0 0.2858584 255 255 255 255 12.183320 4.279997
12.18332 1.279997 -20.25804 -0.9582719 0 0.2858584 255 255 255 255 12.183320 1.279997
12.18332 1.279997 -20.25804 -0.9382442 0 0.3459738 255 255 255 255 12.183320 1.279997
12.18332 4.279997 -20.25804 -0.9382442 0 0.3459738 255 255 255 255 12.183320 4.279997
12.03192 4.279997 -20.66862 -0.9382442 0 0.3459738 255 255 255 255 12.031920 4.279997
12.03192 1.279997 -20.66862 -0.9382442 0 0.3459738 255 255 255 255 12.031920 1.279997
12.03192 1.279997 -20.66862 -0.9146749 0 0.4041904 255 255 255 255 12.031920 1.279997
12.03192 4.279997 -20.66862 -0.9146748 0 0.4041904 255 255 255 255 12.031920 4.279997
11.85601 4.279997 -21.0667 -0.9146749 0 0.4041904 255 255 255 255 11.856010 4.279997
11.85601 1.279997 -21.0667 -0.9146748 0 0.4041904 255 255 255 255 11.856010 1.279997
11.85601 1.279997 -21.0667 -0.8876863 0 0.4604487 255 255 255 255 11.856010 1.279997
11.85601 4.279997 -21.0667 -0.8876863 0 0.4604487 255 255 255 255 11.856010 4.279997
11.65649 4.279997 -21.45135 -0.8876863 0 0.4604487 255 255 255 255 11.656490 4.279997
11.65649 1.279997 -21.45135 -0.8876863 0 0.4604487 255 255 255 255 11.656490 1.279997
11.65649 1.279997 -21.45135 -0.8574781 0 0.5145205 255 255 255 255 11.656490 1.279997
11.65649 4.279997 -21.45135 -0.8574781 0 0.5145205 255 255 255 255 11.656490 4.279997
11.43429 4.279997 -21.82166 -0.8574781 0 0.5145205 255 255 255 255 11.434290 4.279997
11.43429 1.279997 -21.82166 -0.8574781 0 0.5145205 255 255 255 255 11.434290 1.279997
11.43429 1.279997 -21.82166 -0.8241864 0 0.5663188 255 255 255 255 11.434290 1.279997
11.43429 4.279997 -21.82166 -0.8241863 0 0.5663187 255 255 255 255 11.434290 4.279997
11.19034 4.279997 -22.17669 -0.8241864 0 0.5663188 255 255 255 255 11.190340 4.279997
11.19034 1.279997 -22.17669 -0.8241863 0 0.5663187 255 255 255 255 11.190340 1.279997
11.19034 1.279997 -22.17669 -0.7879472 0 0.6157427 255 255 255 255 11.190340 1.279997
11.19034 4.279997 -22.17669 -0.7879472 0 0.6157427 255 255 255 255 11.190340 4.279997
10.92556 4.279997 -22.51552 -0.7879472 0 0.6157427 255 255 255 255 10.925560 4.279997
10.92556 1.279997 -22.51552 -0.7879472 0 0.6157427 255 255 255 255 10.925560 1.279997
10.92556 1.279997 -22.51552 -0.7488923 0 0.6626917 255 255 255 255 10.925560 1.279997
10.92556 4.279997 -22.51552 -0.7488923 0 0.6626917 255 255 255 255 10.925560 4.279997
10.64088 4.279997 -22.83723 -0.7488923 0 0.6626917 255 255 255 255 10.640880 4.279997
10.64088 1.279997 -22.83723 -0.7488923 0 0.6626917 255 255 255 255 10.640880 1.279997
10.64088 1.279997 -22.83723 -0.7071068 0 0.7071068 255 255 255 255 10.640880 1.279997
10.64088 4.279997 -22.83723 -0.7071067 0 0.7071067 255 255 255 255 10.640880 4.279997
10.33723 4.279997 -23.14088 -0.7071068 0 0.7071068 255 255 255 255 10.337230 4.279997
10.33723 1.279996 -23.14088 -0.7071068 0 0.7071068 255 255 255 255 10.337230 1.279996
10.33723 1.279996 -23.14088 -0.6626916 0 0.7488924 255 255 255 255 10.337230 1.279996
10.33723 4.279997 -23.14088 -0.6626916 0 0.7488924 255 255 255 255 10.337230 4.279997
10.01552 4.279997 -23.42556 -0.6626916 0 0.7488924 255 255 255 255 10.015520 4.279997
10.01552 1.279996 -23.42556 -0.6626916 0 0.7488924 255 255 255 255 10.015520 1.279996
10.01552 1.279996 -23.42556 -0.6157439 0 0.7879465 255 255 255 255 10.015520 1.279996
10.01552 4.279997 -23.42556 -0.6157439 0 0.7879465 255 255 255 255 10.015520 4.279997
9.67669 4.279997 -23.69034 -0.6157439 0 0.7879465 255 255 255 255 9.676690 4.279997
9.67669 1.279996 -23.69034 -0.6157439 0 0.7879465 255 255 255 255 9.676690 1.279996
9.67669 1.279996 -23.69034 -0.5663177 0 0.824187 255 255 255 255 9.676690 1.279996
9.67669 4.279997 -23.69034 -0.5663177 0 0.824187 255 255 255 255 9.676690 4.279997
9.321659 4.279997 -23.93429 -0.5663177 0 0.824187 255 255 255 255 9.321659 4.279997
9.321659 1.279996 -23.93429 -0.5663177 0 0.824187 255 255 255 255 9.321659 1.279996
9.321659 1.279996 -23.93429 -0.5145234 0 0.8574764 255 255 255 255 9.321659 1.279996
9.321659 4.279997 -23.93429 -0.5145234 0 0.8574764 255 255 255 255 9.321659 4.279997
8.951352 4.279997 -24.15649 -0.5145234 0 0.8574764 255 255 255 255 8.951352 4.279997
8.951352 1.279996 -24.15649 -0.5145234 0 0.8574764 255 255 255 255 8.951352 1.279996
8.951352 1.279996 -24.15649 -0.4604269 0 0.8876976 255 255 255 255 8.951352 1.279996
8.951352 4.279997 -24.15649 -0.4604269 0 0.8876976 255 255 255 255 8.951352 4.279997
8.566698 4.279997 -24.356 -0.4604269 0 0.8876976 255 255 255 255 8.566698 4.279997
8.566698 1.279996 -24.356 -0.4604269 0 0.8876976 255 255 255 255 8.566698 1.279996
8.566698 1.279996 -24.356 -0.4042306 0 0.9146572 255 255 255 255 8.566698 1.279996
8.566698 4.279997 -24.356 -0.4042305 0 0.9146571 255 255 255 255 8.566698 4.279997
8.168619 4.279997 -24.53193 -0.4042306 0 0.9146572 255 255 255 255 8.168619 4.279997
8.168619 1.279996 -24.53193 -0.4042305 0 0.9146571 255 255 255 255 8.168619 1.279996
8.168619 1.279996 -24.53193 -0.3459525 0 0.938252 255 255 255 255 8.168619 1.279996
8.168619 4.279997 -24.53193 -0.3459525 0 0.938252 255 255 255 255 8.168619 4.279997
7.758042 4.279997 -24.68332 -0.3459525 0 0.938252 255 255 255 255 7.758042 4.279997
7.758042 1.279996 -24.68332 -0.3459525 0 0.938252 255 255 255 255 7.758042 1.279996
7.758042 1.279996 -24.68332 -0.2858782 0 0.958266 255 255 255 255 7.758042 1.279996
7.758042 4.279997 -24.68332 -0.2858782 0 0.958266 255 255 255 255 7.758042 4.279997
7.335889 4.279997 -24.80926 -0.2858782 0 0.958266 255 255 255 255 7.335889 4.279997
7.335889 1.279996 -24.80926 -0.2858782 0 0.958266 255 255 255 255 7.335889 1.279996
7.335889 1.279996 -24.80926 -0.2241801 0 0.9745477 255 255 255 255 7.335889 1.279996
7.335889 4.279997 -24.80926 -0.2241801 0 0.9745477 255 255 255 255 7.335889 4.279997
6.903086 4.279997 -24.90882 -0.2241801 0 0.9745477 255 255 255 255 6.903086 4.279997
6.903086 1.279996 -24.90882 -0.2241801 0 0.9745477 255 255 255 255 6.903086 1.279996
6.903086 1.279996 -24.90882 -0.1611535 0 0.9869294 255 255 255 255 6.903086 1.279996
6.903086 4.279997 -24.90882 -0.1611535 0 0.9869294 255 255 255 255 6.903086 4.279997
6.460555 4.279997 -24.98108 -0.1611535 0 0.9869294 255 255 255 255 6.460555 4.279997
6.460555 1.279996 -24.98108 -0.1611535 0 0.9869294 255 255 255 255 6.460555 1.279996
6.460555 1.279996 -24.98108 -0.09711724 0 0.9952729 255 255 255 255 6.460555 1.279996
6.460555 4.279997 -24.98108 -0.09711724 0 0.9952729 255 255 255 255 6.460555 4.279997
6.009219 4.279997 -25.02512 -0.09711724 0 0.9952729 255 255 255 255 6.009219 4.279997
6.009219 1.279996 -25.02512 -0.09711724 0 0.9952729 255 255 255 255 6.009219 1.279996
6.009219 1.279996 -25.02512 -0.03237696 0 0.9994757 255 255 255 255 6.009219 1.279996
6.009219 4.279997 -25.02512 -0.03237696 0 0.9994757 255 255 255 255 6.009219 4.279997
5.549839 4.279997 -25.04 -0.03237696 0 0.9994757 255 255 255 255 5.549839 4.279997
5.549839 1.279996 -25.04 -0.03237696 0 0.9994757 255 255 255 255 5.549839 1.279996
0 2.779996 -25.04 0 0 1 255 255 255 255 0.000000 2.779996
0 1.279996 -25.04 0 0 1 255 255 255 255 0.000000 1.279996
5.549839 1.279996 -25.04 0 0 1 255 255 255 255 5.549839 1.279996
12.54 1.279997 -18.04984 -1 0 0 255 255 255 255 12.540000 1.279997
12.54 1.28 -0.647977 -1 0 0 255 255 255 255 12.540000 1.280000
12.54 4.280001 -0.647979 -1 0 0 255 255 255 255 12.540000 4.280001
12.54 4.279998 -18.04984 -1 0 0 255 255 255 255 12.540000 4.279998
12.54 1.279997 -18.04984 1.380574e-09 -1 1.668484e-07 255 255 255 255 12.540000 1.279997
12.52512 1.279997 -18.50922 0 -1 0 255 255 255 255 12.525120 1.279997
12.54507 1.279997 -18.51052 0 -1 0 255 255 255 255 12.545070 1.279997
12.56 1.279997 -18.05017 2.752562e-09 -1 1.668403e-07 255 255 255 255 12.560000 1.279997
12.52512 4.279998 -18.50922 0 1 0 255 255 255 255 12.525120 4.279998
12.54 4.279998 -18.04984 -3.083094e-09 1 -1.868747e-07 255 255 255 255 12.540000 4.279998
12.56 4.279998 -18.05017 -1.545965e-09 1 -1.868702e-07 255 255 255 255 12.560000 4.279998
12.54507 4.279998 -18.51052 0 1 0 255 255 255 255 12.545070 4.279998
12.48108 1.279997 -18.96056 0 -1 0 255 255 255 255 12.481080 1.279997
12.50092 1.279997 -18.96314 0 -1 0 255 255 255 255 12.500920 1.279997
12.48108 4.279998 -18.96056 0 1 0 255 255 255 255 12.481080 4.279998
12.50092 4.279998 -18.96314 0 1 0 255 255 255 255 12.500920 4.279998
12.40882 1.279997 -19.40309 0 -1 0 255 255 255 255 12.408820 1.279997
12.42844 1.279997 -19.40694 0 -1 0 255 255 255 255 12.428440 1.279997
12.40882 4.279998 -19.40309 0 1 0 255 255 255 255 12.408820 4.279998
12.42844 4.279998 -19.40694 0 1 0 255 255 255 255 12.428440 4.279998
12.30925 1.279997 -19.83589 0 -1 0 255 255 255 255 12.309250 1.279997
12.32859 1.279997 -19.841 0 -1 0 255 255 255 255 12.328590 1.279997
12.30925 4.279997 -19.83589 -4.138095e-07 1 -2.108297e-06 255 255 255 255 12.309250 4.279997
12.40882 4.279998 -19.40309 -4.138095e-07 1 -2.108297e-06 255 255 255 255 12.408820 4.279998
12.42844 4.279998 -19.40694 -4.138095e-07 1 -2.108297e-06 255 255 255 255 12.428440 4.279998
12.42844 4.279998 -19.40694 -5.472203e-07 1 -2.071226e-06 255 255 255 255 12.428440 4.279998
12.32859 4.279997 -19.841 -5.472203e-07 1 -2.071226e-06 255 255 255 255 12.328590 4.279997
12.30925 4.279997 -19.83589 -5.472203e-07 1 -2.071226e-06 255 255 255 255 12.309250 4.279997
12.18332 1.279997 -20.25804 0 -1 0 255 255 255 255 12.183320 1.279997
12.20229 1.279997 -20.26436 0 -1 0 255 255 255 255 12.202290 1.279997
12.18332 4.279997 -20.25804 0 1 0 255 255 255 255 12.183320 4.279997
12.30925 4.279997 -19.83589 0 1 0 255 255 255 255 12.309250 4.279997
12.32859 4.279997 -19.841 0 1 0 255 255 255 255 12.328590 4.279997
12.20229 4.279997 -20.26436 0 1 0 255 255 255 255 12.202290 4.279997
12.03192 1.279997 -20.66862 0 -1 0 255 255 255 255 12.031920 1.279997
12.05046 1.279997 -20.67612 0 -1 0 255 255 255 255 12.050460 1.279997
12.03192 4.279997 -20.66862 0 1 0 255 255 255 255 12.031920 4.279997
12.05046 4.279997 -20.67612 0 1 0 255 255 255 255 12.050460 4.279997
11.85601 1.279997 -21.0667 0 -1 0 255 255 255 255 11.856010 1.279997
11.87404 1.279997 -21.07535 0 -1 0 255 255 255 255 11.874040 1.279997
11.85601 4.279997 -21.0667 0 1 0 255 255 255 255 11.856010 4.279997
11.87404 4.279997 -21.07535 0 1 0 255 255 255 255 11.874040 4.279997
11.65649 1.279997 -21.45135 0 -1 0 255 255 255 255 11.656490 1.279997
11.67394 1.279997 -21.46111 0 -1 0 255 255 255 255 11.673940 1.279997
11.65649 4.279997 -21.45135 0 1 0 255 255 255 255 11.656490 4.279997
11.67394 4.279997 -21.46111 0 1 0 255 255 255 255 11.673940 4.279997
11.43429 1.279997 -21.82166 0 -1 0 255 255 255 255 11.434290 1.279997
11.45111 1.279997 -21.83247 0 -1 0 255 255 255 255 11.451110 1.279997
11.43429 4.279997 -21.82166 0 1 0 255 255 255 255 11.434290 4.279997
11.45111 4.279997 -21.83247 0 1 0 255 255 255 255 11.451110 4.279997
11.19034 1.279997 -22.17669 0 -1 0 255 255 255 255 11.190340 1.279997
11.20647 1.279997 -22.18852 0 -1 0 255 255 255 255 11.206470 1.279997
11.19034 4.279997 -22.17669 0 1 0 255 255 255 255 11.190340 4.279997
11.20647 4.279997 -22.18852 0 1 0 255 255 255 255 11.206470 4.279997
10.92556 1.279997 -22.51552 0 -1 0 255 255 255 255 10.925560 1.279997
10.94094 1.279997 -22.52831 0 -1 0 255 255 255 255 10.940940 1.279997
10.92556 4.279997 -22.51552 0 1 0 255 255 255 255 10.925560 4.279997
10.94094 4.279997 -22.52831 0 1 0 255 255 255 255 10.940940 4.279997
10.64088 1.279997 -22.83723 0 -1 0 255 255 255 255 10.640880 1.279997
10.65545 1.279997 -22.85093 0 -1 0 255 255 255 255 10.655450 1.279997
10.64088 4.279997 -22.83723 0 1 0 255 255 255 255 10.640880 4.279997
10.65545 4.279997 -22.85093 0 1 0 255 255 255 255 10.655450 4.279997
10.64088 1.279997 -22.83723 1.56805e-06 -1 1.568156e-06 255 255 255 255 10.640880 1.279997
10.33723 1.279996 -23.14088 1.618664e-06 -1 1.52204e-06 255 255 255 255 10.337230 1.279996
10.35093 1.279996 -23.15545 1.56805e-06 -1 1.568156e-06 255 255 255 255 10.350930 1.279996
10.65545 1.279997 -22.85093 1.517579e-06 -1 1.614144e-06 255 255 255 255 10.655450 1.279997
10.33723 4.279997 -23.14088 0 1 0 255 255 255 255 10.337230 4.279997
10.35093 4.279997 -23.15545 0 1 0 255 255 255 255 10.350930 4.279997
10.33723 1.279996 -23.14088 0 -1 0 255 255 255 255 10.337230 1.279996
10.01552 1.279996 -23.42556 0 -1 0 255 255 255 255 10.015520 1.279996
10.02831 1.279996 -23.44094 0 -1 0 255 255 255 255 10.028310 1.279996
10.35093 1.279996 -23.15545 0 -1 0 255 255 255 255 10.350930 1.279996
10.01552 4.279997 -23.42556 0 1 0 255 255 255 255 10.015520 4.279997
10.02831 4.279997 -23.44094 0 1 0 255 255 255 255 10.028310 4.279997
9.67669 1.279996 -23.69034 0 -1 0 255 255 255 255 9.676690 1.279996
9.688516 1.279996 -23.70647 0 -1 0 255 255 255 255 9.688516 1.279996
9.67669 4.279997 -23.69034 0 1 0 255 255 255 255 9.676690 4.279997
9.688516 4.279997 -23.70647 0 1 0 255 255 255 255 9.688516 4.279997
9.321659 1.279996 -23.93429 0 -1 0 255 255 255 255 9.321659 1.279996
9.332473 1.279996 -23.95111 0 -1 0 255 255 255 255 9.332473 1.279996
9.321659 4.279997 -23.93429 0 1 0 255 255 255 255 9.321659 4.279997
9.332473 4.279997 -23.95111 0 1 0 255 255 255 255 9.332473 4.279997
8.951352 1.279996 -24.15649 0 -1 0 255 255 255 255 8.951352 1.279996
8.961107 1.279996 -24.17395 0 -1 0 255 255 255 255 8.961107 1.279996
8.951352 4.279997 -24.15649 0 1 0 255 255 255 255 8.951352 4.279997
8.961107 4.279997 -24.17395 0 1 0 255 255 255 255 8.961107 4.279997
8.566698 1.279996 -24.356 0 -1 0 255 255 255 255 8.566698 1.279996
8.575349 1.279996 -24.37404 0 -1 0 255 255 255 255 8.575349 1.279996
8.566698 4.279997 -24.356 0 1 0 255 255 255 255 8.566698 4.279997
8.575349 4.279997 -24.37404 0 1 0 255 255 255 255 8.575349 4.279997
8.168619 1.279996 -24.53193 0 -1 0 255 255 255 255 8.168619 1.279996
8.176125 1.279996 -24.55046 0 -1 0 255 255 255 255 8.176125 1.279996
8.168619 4.279997 -24.53193 0 1 0 255 255 255 255 8.168619 4.279997
8.176125 4.279997 -24.55046 0 1 0 255 255 255 255 8.176125 4.279997
7.758042 1.279996 -24.68332 0 -1 0 255 255 255 255 7.758042 1.279996
7.764364 1.279996 -24.70229 0 -1 0 255 255 255 255 7.764364 1.279996
7.758042 4.279997 -24.68332 0 1 0 255 255 255 255 7.758042 4.279997
7.764364 4.279997 -24.70229 0 1 0 255 255 255 255 7.764364 4.279997
7.335889 1.279996 -24.80926 0 -1 0 255 255 255 255 7.335889 1.279996
7.340992 1.279996 -24.82859 0 -1 0 255 255 255 255 7.340992 1.279996
7.335889 4.279997 -24.80926 0 1 0 255 255 255 255 7.335889 4.279997
7.340992 4.279997 -24.82859 0 1 0 255 255 255 255 7.340992 4.279997
6.903086 1.279996 -24.90882 0 -1 0 255 255 255 255 6.903086 1.279996
6.906941 1.279996 -24.92844 0 -1 0 255 255 255 255 6.906941 1.279996
6.903086 4.279997 -24.90882 0 1 0 255 255 255 255 6.903086 4.279997
6.906941 4.279997 -24.92844 0 1 0 255 255 255 255 6.906941 4.279997
6.460555 1.279996 -24.98108 0 -1 0 255 255 255 255 6.460555 1.279996
6.46314 1.279996 -25.00091 0 -1 0 255 255 255 255 6.463140 1.279996
6.460555 4.279997 -24.98108 0 1 0 255 255 255 255 6.460555 4.279997
6.46314 4.279997 -25.00091 0 1 0 255 255 255 255 6.463140 4.279997
6.009219 1.279996 -25.02512 0 -1 0 255 255 255 255 6.009219 1.279996
6.010515 1.279996 -25.04508 0 -1 0 255 255 255 255 6.010515 1.279996
6.009219 4.279997 -25.02512 0 1 0 255 255 255 255 6.009219 4.279997
6.010515 4.279997 -25.04508 0 1 0 255 255 255 255 6.010515 4.279997
5.549839 1.279996 -25.04 0 -1 0 255 255 255 255 5.549839 1.279996
5.550163 1.279996 -25.06 0 -1 0 255 255 255 255 5.550163 1.279996
5.549839 4.279997 -25.04 0 1 0 255 255 255 255 5.549839 4.279997
5.550163 4.279997 -25.06 0 1 0 255 255 255 255 5.550163 4.279997
0 1.279996 -25.06 0 -1 0 255 255 255 255 0.000000 1.279996
0 1.279996 -25.05 0 -1 0 255 255 255 255 0.000000 1.279996
0 4.279997 -25.04 0 1 0 255 255 255 255 0.000000 4.279997
-0 4.279997 -25.05 0 1 0 255 255 255 255 -0.000000 4.279997
12.56 1.28 -0.647978 1.417059e-09 -1 1.712578e-07 255 255 255 255 12.560000 1.280000
12.54 1.28 -0.647977 8.676477e-12 -1 1.712594e-07 255 255 255 255 12.540000 1.280000
12.56 1.279997 -18.05017 1 0 0 255 255 255 255 12.560000 1.279997
12.56 4.279998 -18.05017 1 0 0 255 255 255 255 12.560000 4.279998
12.56 4.280001 -0.64798 1 0 0 255 255 255 255 12.560000 4.280001
12.56 1.28 -0.647978 1 0 0 255 255 255 255 12.560000 1.280000
12.54 4.280001 -0.647979 -1.586821e-09 1 -1.918087e-07 255 255 255 255 12.540000 4.280001
12.56 4.280001 -0.64798 -9.145857e-12 1 -1.918069e-07 255 255 255 255 12.560000 4.280001
0 1.279996 -25.04 0 -1 0 255 255 255 255 0.000000 1.279996
0 1.279996 -25.06 0 0 -1 255 255 255 255 0.000000 1.279996
0 4.279997 -25.06 0 1 0 255 255 255 255 0.000000 4.279997
5.549839 4.279997 -25.04 0 0 1 255 255 255 255 5.549839 4.279997
0 4.279997 -25.04 0 0 1 255 255 255 255 0.000000 4.279997
3 0 1 2 
3 1 3 2 
3 4 5 6 
3 6 7 4 
3 8 9 10 
3 10 11 8 
3 12 13 14 
3 14 15 12 
3 16 17 18 
3 18 19 16 
3 20 21 22 
3 22 23 20 
3 24 25 26 
3 26 27 24 
3 28 29 30 
3 30 31 28 
3 32 33 34 
3 34 35 32 
3 36 37 38 
3 38 39 36 
3 40 41 42 
3 42 43 40 
3 44 45 46 
3 46 47 44 
3 48 49 50 
3 50 51 48 
3 52 53 54 
3 54 55 52 
3 56 57 58 
3 58 59 56 
3 60 61 62 
3 62 63 60 
3 64 65 66 
3 66 67 64 
3 68 69 70 
3 70 71 68 
3 72 73 74 
3 74 75 72 
3 76 77 78 
3 78 79 76 
3 80 81 82 
3 82 83 80 
3 84 85 86 
3 86 87 84 
3 88 89 90 
3 90 91 88 
3 92 93 94 
3 94 95 92 
3 96 97 98 
3 98 99 96 
3 100 101 102 
3 100 102 103 
3 104 105 106 
3 106 107 104 
3 108 109 110 
3 110 111 108 
3 112 113 114 
3 114 115 112 
3 116 117 118 
3 118 119 116 
3 120 121 122 
3 122 123 120 
3 124 125 126 
3 126 127 124 
3 128 129 130 
3 130 131 128 
3 132 133 134 
3 134 135 132 
3 136 137 138 
3 138 139 136 
3 140 141 142 
3 142 143 140 
3 144 145 146 
3 146 147 144 
3 148 149 150 
3 150 151 148 
3 152 153 154 
3 154 155 152 
3 156 157 158 
3 158 159 156 
3 160 161 162 
3 162 163 160 
3 164 165 166 
3 166 167 164 
3 168 169 170 
3 170 171 168 
3 172 173 174 
3 174 175 172 
3 176 177 178 
3 178 179 176 
3 180 181 182 
3 182 183 180 
3 184 185 186 
3 186 187 184 
3 188 189 190 
3 190 191 188 
3 192 193 194 
3 194 195 192 
3 196 197 198 
3 198 199 196 
3 200 201 202 
3 202 203 200 
3 204 205 206 
3 207 208 209 
3 209 210 207 
3 211 212 213 
3 213 214 211 
3 215 216 217 
3 217 218 215 
3 212 219 220 
3 220 213 212 
3 221 215 218 
3 218 222 221 
3 219 223 224 
3 224 220 219 
3 225 221 222 
3 222 226 225 
3 223 227 228 
3 228 224 223 
3 229 230 231 
3 232 233 234 
3 227 235 236 
3 236 228 227 
3 237 238 239 
3 239 240 237 
3 235 241 242 
3 242 236 235 
3 243 237 240 
3 240 244 243 
3 241 245 246 
3 246 242 241 
3 247 243 244 
3 244 248 247 
3 245 249 250 
3 250 246 245 
3 251 247 248 
3 248 252 251 
3 249 253 254 
3 254 250 249 
3 255 251 252 
3 252 256 255 
3 253 257 258 
3 258 254 253 
3 259 255 256 
3 256 260 259 
3 257 261 262 
3 262 258 257 
3 263 259 260 
3 260 264 263 
3 261 265 266 
3 266 262 261 
3 267 263 264 
3 264 268 267 
3 269 270 271 
3 271 272 269 
3 273 267 268 
3 268 274 273 
3 275 276 277 
3 277 278 275 
3 279 273 274 
3 274 280 279 
3 276 281 282 
3 282 277 276 
3 283 279 280 
3 280 284 283 
3 281 285 286 
3 286 282 281 
3 287 283 284 
3 284 288 287 
3 285 289 290 
3 290 286 285 
3 291 287 288 
3 288 292 291 
3 289 293 294 
3 294 290 289 
3 295 291 292 
3 292 296 295 
3 293 297 298 
3 298 294 293 
3 299 295 296 
3 296 300 299 
3 297 301 302 
3 302 298 297 
3 303 299 300 
3 300 304 303 
3 301 305 306 
3 306 302 301 
3 307 303 304 
3 304 308 307 
3 305 309 310 
3 310 306 305 
3 311 307 308 
3 308 312 311 
3 309 313 314 
3 314 310 309 
3 315 311 312 
3 312 316 315 
3 313 317 318 
3 318 314 313 
3 319 315 316 
3 316 320 319 
3 317 321 322 
3 322 318 317 
3 323 319 320 
3 320 324 323 
3 325 322 321 
3 325 321 326 
3 327 323 324 
3 327 324 328 
3 329 330 211 
3 211 214 329 
3 331 332 333 
3 334 331 333 
3 217 216 335 
3 335 336 217 
3 321 337 326 
3 102 338 103 
3 324 339 328 
3 206 340 341 
3 206 341 204 
