ply
format ascii 1.0
comment VCGLIB generated
element vertex 354
property float x
property float y
property float z
property float nx
property float ny
property float nz
property uchar red
property uchar green
property uchar blue
property uchar alpha
property float texture_u
property float texture_v
element face 232
property list uchar int vertex_indices
end_header
-12.54507 4.280004 18.51052 -0.9994745 0 0.03241637 255 255 255 255 -12.545070 4.280004
-12.56 4.280004 18.05017 -0.9994744 0 0.03241637 255 255 255 255 -12.560000 4.280004
-12.56 1.280003 18.05017 -0.9994745 0 0.03241637 255 255 255 255 -12.560000 1.280003
-12.54507 1.280003 18.51052 -0.9994744 0 0.03241637 255 255 255 255 -12.545070 1.280003
-12.50092 4.280004 18.96314 -0.9952765 0 0.09708122 255 255 255 255 -12.500920 4.280004
-12.54507 4.280004 18.51052 -0.9952765 0 0.09708121 255 255 255 255 -12.545070 4.280004
-12.54507 1.280003 18.51052 -0.9952765 0 0.09708122 255 255 255 255 -12.545070 1.280003
-12.50092 1.280003 18.96314 -0.9952765 0 0.09708121 255 255 255 255 -12.500920 1.280003
-12.42844 4.280004 19.40694 -0.9869248 0 0.1611819 255 255 255 255 -12.428440 4.280004
-12.50092 4.280004 18.96314 -0.9869248 0 0.1611819 255 255 255 255 -12.500920 4.280004
-12.50092 1.280003 18.96314 -0.9869248 0 0.1611819 255 255 255 255 -12.500920 1.280003
-12.42844 1.280003 19.40694 -0.9869248 0 0.1611819 255 255 255 255 -12.428440 1.280003
-12.32859 4.280004 19.841 -0.9745473 0 0.224182 255 255 255 255 -12.328590 4.280004
-12.42844 4.280004 19.40694 -0.9745473 0 0.224182 255 255 255 255 -12.428440 4.280004
-12.42844 1.280003 19.40694 -0.9745473 0 0.224182 255 255 255 255 -12.428440 1.280003
-12.32859 1.280003 19.841 -0.9745473 0 0.224182 255 255 255 255 -12.328590 1.280003
-12.20229 4.280004 20.26436 -0.9582658 0 0.2858785 255 255 255 255 -12.202290 4.280004
-12.32859 4.280004 19.841 -0.9582658 0 0.2858785 255 255 255 255 -12.328590 4.280004
-12.32859 1.280003 19.841 -0.9582658 0 0.2858785 255 255 255 255 -12.328590 1.280003
-12.32859 1.280003 19.841 -0.9582658 0 0.2858785 255 255 255 255 -12.328590 1.280003
-12.20229 1.280004 20.26436 -0.9582658 0 0.2858785 255 255 255 255 -12.202290 1.280004
-12.20229 4.280004 20.26436 -0.9582658 0 0.2858785 255 255 255 255 -12.202290 4.280004
-12.05046 4.280004 20.67612 -0.9382481 0 0.3459633 255 255 255 255 -12.050460 4.280004
-12.20229 4.280004 20.26436 -0.938248 0 0.3459632 255 255 255 255 -12.202290 4.280004
-12.20229 1.280004 20.26436 -0.9382481 0 0.3459633 255 255 255 255 -12.202290 1.280004
-12.05046 1.280004 20.67612 -0.938248 0 0.3459632 255 255 255 255 -12.050460 1.280004
-11.87404 4.280004 21.07535 -0.9146725 0 0.4041958 255 255 255 255 -11.874040 4.280004
-12.05046 4.280004 20.67612 -0.9146725 0 0.4041958 255 255 255 255 -12.050460 4.280004
-12.05046 1.280004 20.67612 -0.9146725 0 0.4041958 255 255 255 255 -12.050460 1.280004
-11.87404 1.280004 21.07535 -0.9146725 0 0.4041958 255 255 255 255 -11.874040 1.280004
-11.67394 4.280005 21.46111 -0.8876826 0 0.4604561 255 255 255 255 -11.673940 4.280005
-11.87404 4.280004 21.07535 -0.8876824 0 0.460456 255 255 255 255 -11.874040 4.280004
-11.87404 1.280004 21.07535 -0.8876826 0 0.4604561 255 255 255 255 -11.874040 1.280004
-11.67394 1.280004 21.46111 -0.8876825 0 0.460456 255 255 255 255 -11.673940 1.280004
-11.45111 4.280005 21.83247 -0.8574793 0 0.5145184 255 255 255 255 -11.451110 4.280005
-11.67394 4.280005 21.46111 -0.8574793 0 0.5145184 255 255 255 255 -11.673940 4.280005
-11.67394 1.280004 21.46111 -0.8574793 0 0.5145184 255 255 255 255 -11.673940 1.280004
-11.45111 1.280004 21.83247 -0.8574793 0 0.5145184 255 255 255 255 -11.451110 1.280004
-11.20647 4.280005 22.18852 -0.8241979 0 0.5663019 255 255 255 255 -11.206470 4.280005
-11.45111 4.280005 21.83247 -0.8241979 0 0.5663019 255 255 255 255 -11.451110 4.280005
-11.45111 1.280004 21.83247 -0.8241979 0 0.5663019 255 255 255 255 -11.451110 1.280004
-11.20647 1.280004 22.18852 -0.8241979 0 0.5663019 255 255 255 255 -11.206470 1.280004
-10.94094 4.280005 22.52831 -0.7879474 0 0.6157426 255 255 255 255 -10.940940 4.280005
-11.20647 4.280005 22.18852 -0.7879474 0 0.6157426 255 255 255 255 -11.206470 4.280005
-11.20647 1.280004 22.18852 -0.7879474 0 0.6157426 255 255 255 255 -11.206470 1.280004
-10.94094 1.280004 22.52831 -0.7879474 0 0.6157426 255 255 255 255 -10.940940 1.280004
-10.65545 4.280005 22.85093 -0.7488851 0 0.6626999 255 255 255 255 -10.655450 4.280005
-10.94094 4.280005 22.52831 -0.748885 0 0.6626999 255 255 255 255 -10.940940 4.280005
-10.94094 1.280004 22.52831 -0.7488851 0 0.6626999 255 255 255 255 -10.940940 1.280004
-10.65545 1.280004 22.85093 -0.748885 0 0.6626999 255 255 255 255 -10.655450 1.280004
-10.35093 4.280005 23.15545 -0.707109 0 0.7071046 255 255 255 255 -10.350930 4.280005
-10.65545 4.280005 22.85093 -0.707109 0 0.7071046 255 255 255 255 -10.655450 4.280005
-10.65545 1.280004 22.85093 -0.707109 0 0.7071046 255 255 255 255 -10.655450 1.280004
-10.35093 1.280004 23.15545 -0.707109 0 0.7071046 255 255 255 255 -10.350930 1.280004
-10.02831 4.280005 23.44094 -0.6626977 0 0.7488871 255 255 255 255 -10.028310 4.280005
-10.35093 4.280005 23.15545 -0.6626977 0 0.748887 255 255 255 255 -10.350930 4.280005
-10.35093 1.280004 23.15545 -0.6626977 0 0.7488871 255 255 255 255 -10.350930 1.280004
-10.02831 1.280004 23.44094 -0.6626977 0 0.748887 255 255 255 255 -10.028310 1.280004
-9.688516 4.280005 23.70647 -0.6157382 0 0.7879508 255 255 255 255 -9.688516 4.280005
-10.02831 4.280005 23.44094 -0.6157382 0 0.7879508 255 255 255 255 -10.028310 4.280005
-10.02831 1.280004 23.44094 -0.6157382 0 0.7879508 255 255 255 255 -10.028310 1.280004
-9.688516 1.280004 23.70647 -0.6157382 0 0.7879508 255 255 255 255 -9.688516 1.280004
-9.332473 4.280005 23.95111 -0.5663102 0 0.8241923 255 255 255 255 -9.332473 4.280005
-9.688516 4.280005 23.70647 -0.5663101 0 0.8241922 255 255 255 255 -9.688516 4.280005
-9.688516 1.280004 23.70647 -0.5663102 0 0.8241923 255 255 255 255 -9.688516 1.280004
-9.332473 1.280004 23.95111 -0.5663101 0 0.8241922 255 255 255 255 -9.332473 1.280004
-8.961107 4.280005 24.17395 -0.5145298 0 0.8574725 255 255 255 255 -8.961107 4.280005
-9.332473 4.280005 23.95111 -0.5145298 0 0.8574725 255 255 255 255 -9.332473 4.280005
-9.332473 1.280004 23.95111 -0.5145298 0 0.8574725 255 255 255 255 -9.332473 1.280004
-8.961107 1.280004 24.17395 -0.5145298 0 0.8574725 255 255 255 255 -8.961107 1.280004
-8.575349 4.280005 24.37404 -0.4604396 0 0.887691 255 255 255 255 -8.575349 4.280005
-8.961107 4.280005 24.17395 -0.4604396 0 0.887691 255 255 255 255 -8.961107 4.280005
-8.961107 1.280004 24.17395 -0.4604396 0 0.887691 255 255 255 255 -8.961107 1.280004
-8.575349 1.280004 24.37404 -0.4604396 0 0.887691 255 255 255 255 -8.575349 1.280004
-8.176125 4.280005 24.55046 -0.4041999 0 0.9146707 255 255 255 255 -8.176125 4.280005
-8.575349 4.280005 24.37404 -0.4041998 0 0.9146706 255 255 255 255 -8.575349 4.280005
-8.575349 1.280004 24.37404 -0.4041999 0 0.9146707 255 255 255 255 -8.575349 1.280004
-8.176125 1.280004 24.55046 -0.4041998 0 0.9146706 255 255 255 255 -8.176125 1.280004
-7.764364 4.280005 24.70229 -0.345961 0 0.9382489 255 255 255 255 -7.764364 4.280005
-8.176125 4.280005 24.55046 -0.345961 0 0.9382489 255 255 255 255 -8.176125 4.280005
-8.176125 1.280004 24.55046 -0.345961 0 0.9382489 255 255 255 255 -8.176125 1.280004
-7.764364 1.280004 24.70229 -0.345961 0 0.9382489 255 255 255 255 -7.764364 1.280004
-7.340992 4.280005 24.82859 -0.2858717 0 0.9582679 255 255 255 255 -7.340992 4.280005
-7.764364 4.280005 24.70229 -0.2858717 0 0.9582679 255 255 255 255 -7.764364 4.280005
-7.764364 1.280004 24.70229 -0.2858717 0 0.9582679 255 255 255 255 -7.764364 1.280004
-7.340992 1.280004 24.82859 -0.2858717 0 0.9582679 255 255 255 255 -7.340992 1.280004
-6.906941 4.280005 24.92844 -0.224186 0 0.9745464 255 255 255 255 -6.906941 4.280005
-7.340992 4.280005 24.82859 -0.224186 0 0.9745464 255 255 255 255 -7.340992 4.280005
-7.340992 1.280004 24.82859 -0.224186 0 0.9745464 255 255 255 255 -7.340992 1.280004
-6.906941 1.280004 24.92844 -0.224186 0 0.9745464 255 255 255 255 -6.906941 1.280004
-6.46314 4.280005 25.00091 -0.1611588 0 0.9869285 255 255 255 255 -6.463140 4.280005
-6.906941 4.280005 24.92844 -0.1611588 0 0.9869285 255 255 255 255 -6.906941 4.280005
-6.906941 1.280004 24.92844 -0.1611588 0 0.9869285 255 255 255 255 -6.906941 1.280004
-6.46314 1.280004 25.00091 -0.1611588 0 0.9869285 255 255 255 255 -6.463140 1.280004
-6.010515 4.280005 25.04508 -0.09712581 0 0.9952722 255 255 255 255 -6.010515 4.280005
-6.46314 4.280005 25.00091 -0.09712581 0 0.9952722 255 255 255 255 -6.463140 4.280005
-6.46314 1.280004 25.00091 -0.09712581 0 0.9952722 255 255 255 255 -6.463140 1.280004
-6.010515 1.280004 25.04508 -0.09712581 0 0.9952722 255 255 255 255 -6.010515 1.280004
-5.550163 4.280005 25.06 -0.03239138 0 0.9994752 255 255 255 255 -5.550163 4.280005
-6.010515 4.280005 25.04508 -0.03239138 0 0.9994752 255 255 255 255 -6.010515 4.280005
-6.010515 1.280004 25.04508 -0.03239138 0 0.9994752 255 255 255 255 -6.010515 1.280004
-5.550163 1.280004 25.06 -0.03239138 0 0.9994752 255 255 255 255 -5.550163 1.280004
0 4.280005 25.06 0 0 1 255 255 255 255 0.000000 4.280005
-5.550163 4.280005 25.06 0 0 1 255 255 255 255 -5.550163 4.280005
-5.550163 1.280004 25.06 0 0 1 255 255 255 255 -5.550163 1.280004
0 2.780005 25.06 0 0 1 255 255 255 255 0.000000 2.780005
-12.54 1.280003 18.04984 1 0 0 255 255 255 255 -12.540000 1.280003
-12.54 1.28 0.647977 1 0 0 255 255 255 255 -12.540000 1.280000
-12.54 4.280001 0.647978 1 0 0 255 255 255 255 -12.540000 4.280001
-12.54 4.280004 18.04984 1 0 0 255 255 255 255 -12.540000 4.280004
-12.54 1.280003 18.04984 0.9994758 0 -0.03237496 255 255 255 255 -12.540000 1.280003
-12.54 4.280004 18.04984 0.9994757 0 -0.03237495 255 255 255 255 -12.540000 4.280004
-12.52512 4.280004 18.50922 0.9994758 0 -0.03237496 255 255 255 255 -12.525120 4.280004
-12.52512 1.280003 18.50922 0.9994757 0 -0.03237495 255 255 255 255 -12.525120 1.280003
-12.52512 1.280003 18.50922 0.9952732 0 -0.09711435 255 255 255 255 -12.525120 1.280003
-12.52512 4.280004 18.50922 0.9952732 0 -0.09711435 255 255 255 255 -12.525120 4.280004
-12.48108 4.280004 18.96056 0.9952732 0 -0.09711435 255 255 255 255 -12.481080 4.280004
-12.48108 1.280003 18.96056 0.9952732 0 -0.09711435 255 255 255 255 -12.481080 1.280003
-12.48108 1.280003 18.96056 0.9869293 0 -0.161154 255 255 255 255 -12.481080 1.280003
-12.48108 4.280004 18.96056 0.9869292 0 -0.161154 255 255 255 255 -12.481080 4.280004
-12.40882 4.280004 19.40309 0.9869293 0 -0.161154 255 255 255 255 -12.408820 4.280004
-12.40882 1.280003 19.40309 0.9869292 0 -0.161154 255 255 255 255 -12.408820 1.280003
-12.40882 1.280003 19.40309 0.9745423 0 -0.2242038 255 255 255 255 -12.408820 1.280003
-12.40882 4.280004 19.40309 0.9745423 0 -0.2242038 255 255 255 255 -12.408820 4.280004
-12.30925 4.280004 19.83589 0.9745423 0 -0.2242038 255 255 255 255 -12.309250 4.280004
-12.30925 1.280003 19.83589 0.9745423 0 -0.2242038 255 255 255 255 -12.309250 1.280003
-12.30925 1.280003 19.83589 0.9582719 0 -0.2858584 255 255 255 255 -12.309250 1.280003
-12.30925 4.280004 19.83589 0.9582719 0 -0.2858584 255 255 255 255 -12.309250 4.280004
-12.18332 4.280004 20.25804 0.9582719 0 -0.2858584 255 255 255 255 -12.183320 4.280004
-12.18332 1.280004 20.25804 0.9582719 0 -0.2858584 255 255 255 255 -12.183320 1.280004
-12.18332 1.280004 20.25804 0.9382442 0 -0.3459738 255 255 255 255 -12.183320 1.280004
-12.18332 4.280004 20.25804 0.9382442 0 -0.3459738 255 255 255 255 -12.183320 4.280004
-12.03192 4.280004 20.66862 0.9382442 0 -0.3459738 255 255 255 255 -12.031920 4.280004
-12.03192 1.280004 20.66862 0.9382442 0 -0.3459738 255 255 255 255 -12.031920 1.280004
-12.03192 1.280004 20.66862 0.9146749 0 -0.4041904 255 255 255 255 -12.031920 1.280004
-12.03192 4.280004 20.66862 0.9146748 0 -0.4041904 255 255 255 255 -12.031920 4.280004
-11.85601 4.280004 21.0667 0.9146749 0 -0.4041904 255 255 255 255 -11.856010 4.280004
-11.85601 1.280004 21.0667 0.9146748 0 -0.4041904 255 255 255 255 -11.856010 1.280004
-11.85601 1.280004 21.0667 0.8876863 0 -0.4604487 255 255 255 255 -11.856010 1.280004
-11.85601 4.280004 21.0667 0.8876863 0 -0.4604487 255 255 255 255 -11.856010 4.280004
-11.65649 4.280005 21.45135 0.8876863 0 -0.4604487 255 255 255 255 -11.656490 4.280005
-11.65649 1.280004 21.45135 0.8876864 0 -0.4604487 255 255 255 255 -11.656490 1.280004
-11.65649 1.280004 21.45135 0.8574781 0 -0.5145205 255 255 255 255 -11.656490 1.280004
-11.65649 4.280005 21.45135 0.8574781 0 -0.5145204 255 255 255 255 -11.656490 4.280005
-11.43429 4.280005 21.82166 0.8574781 0 -0.5145205 255 255 255 255 -11.434290 4.280005
-11.43429 1.280004 21.82166 0.8574781 0 -0.5145204 255 255 255 255 -11.434290 1.280004
-11.43429 1.280004 21.82166 0.8241864 0 -0.5663188 255 255 255 255 -11.434290 1.280004
-11.43429 4.280005 21.82166 0.8241863 0 -0.5663187 255 255 255 255 -11.434290 4.280005
-11.19034 4.280005 22.17669 0.8241864 0 -0.5663188 255 255 255 255 -11.190340 4.280005
-11.19034 1.280004 22.17669 0.8241863 0 -0.5663187 255 255 255 255 -11.190340 1.280004
-11.19034 1.280004 22.17669 0.7879473 0 -0.6157427 255 255 255 255 -11.190340 1.280004
-11.19034 4.280005 22.17669 0.7879472 0 -0.6157427 255 255 255 255 -11.190340 4.280005
-10.92556 4.280005 22.51552 0.7879473 0 -0.6157427 255 255 255 255 -10.925560 4.280005
-10.92556 1.280004 22.51552 0.7879472 0 -0.6157427 255 255 255 255 -10.925560 1.280004
-10.92556 1.280004 22.51552 0.7488923 0 -0.6626917 255 255 255 255 -10.925560 1.280004
-10.92556 4.280005 22.51552 0.7488923 0 -0.6626917 255 255 255 255 -10.925560 4.280005
-10.64088 4.280005 22.83723 0.7488923 0 -0.6626917 255 255 255 255 -10.640880 4.280005
-10.64088 1.280004 22.83723 0.7488923 0 -0.6626917 255 255 255 255 -10.640880 1.280004
-10.64088 1.280004 22.83723 0.7071068 0 -0.7071068 255 255 255 255 -10.640880 1.280004
-10.64088 4.280005 22.83723 0.7071068 0 -0.7071068 255 255 255 255 -10.640880 4.280005
-10.33723 4.280005 23.14088 0.7071068 0 -0.7071068 255 255 255 255 -10.337230 4.280005
-10.33723 1.280004 23.14088 0.7071068 0 -0.7071068 255 255 255 255 -10.337230 1.280004
-10.33723 1.280004 23.14088 0.6626916 0 -0.7488924 255 255 255 255 -10.337230 1.280004
-10.33723 4.280005 23.14088 0.6626916 0 -0.7488924 255 255 255 255 -10.337230 4.280005
-10.01552 4.280005 23.42556 0.6626916 0 -0.7488924 255 255 255 255 -10.015520 4.280005
-10.01552 1.280004 23.42556 0.6626916 0 -0.7488924 255 255 255 255 -10.015520 1.280004
-10.01552 1.280004 23.42556 0.6157439 0 -0.7879465 255 255 255 255 -10.015520 1.280004
-10.01552 4.280005 23.42556 0.6157439 0 -0.7879465 255 255 255 255 -10.015520 4.280005
-9.67669 4.280005 23.69034 0.6157439 0 -0.7879465 255 255 255 255 -9.676690 4.280005
-9.67669 1.280004 23.69034 0.6157439 0 -0.7879465 255 255 255 255 -9.676690 1.280004
-9.67669 1.280004 23.69034 0.5663177 0 -0.824187 255 255 255 255 -9.676690 1.280004
-9.67669 4.280005 23.69034 0.5663177 0 -0.824187 255 255 255 255 -9.676690 4.280005
-9.321659 4.280005 23.93429 0.5663177 0 -0.824187 255 255 255 255 -9.321659 4.280005
-9.321659 1.280004 23.93429 0.5663177 0 -0.824187 255 255 255 255 -9.321659 1.280004
-9.321659 1.280004 23.93429 0.5145234 0 -0.8574764 255 255 255 255 -9.321659 1.280004
-9.321659 4.280005 23.93429 0.5145234 0 -0.8574764 255 255 255 255 -9.321659 4.280005
-8.951352 4.280005 24.15649 0.5145234 0 -0.8574764 255 255 255 255 -8.951352 4.280005
-8.951352 1.280004 24.15649 0.5145234 0 -0.8574764 255 255 255 255 -8.951352 1.280004
-8.951352 1.280004 24.15649 0.4604269 0 -0.8876976 255 255 255 255 -8.951352 1.280004
-8.951352 4.280005 24.15649 0.4604269 0 -0.8876976 255 255 255 255 -8.951352 4.280005
-8.566698 4.280005 24.356 0.4604269 0 -0.8876976 255 255 255 255 -8.566698 4.280005
-8.566698 1.280004 24.356 0.4604269 0 -0.8876976 255 255 255 255 -8.566698 1.280004
-8.566698 1.280004 24.356 0.4042306 0 -0.9146572 255 255 255 255 -8.566698 1.280004
-8.566698 4.280005 24.356 0.4042305 0 -0.9146571 255 255 255 255 -8.566698 4.280005
-8.168619 4.280005 24.53193 0.4042306 0 -0.9146572 255 255 255 255 -8.168619 4.280005
-8.168619 1.280004 24.53193 0.4042305 0 -0.9146571 255 255 255 255 -8.168619 1.280004
-8.168619 1.280004 24.53193 0.3459525 0 -0.938252 255 255 255 255 -8.168619 1.280004
-8.168619 4.280005 24.53193 0.3459525 0 -0.938252 255 255 255 255 -8.168619 4.280005
-7.758042 4.280005 24.68332 0.3459525 0 -0.938252 255 255 255 255 -7.758042 4.280005
-7.758042 1.280004 24.68332 0.3459525 0 -0.938252 255 255 255 255 -7.758042 1.280004
-7.758042 1.280004 24.68332 0.2858782 0 -0.958266 255 255 255 255 -7.758042 1.280004
-7.758042 4.280005 24.68332 0.2858782 0 -0.958266 255 255 255 255 -7.758042 4.280005
-7.335889 4.280005 24.80926 0.2858782 0 -0.958266 255 255 255 255 -7.335889 4.280005
-7.335889 1.280004 24.80926 0.2858782 0 -0.958266 255 255 255 255 -7.335889 1.280004
-7.335889 1.280004 24.80926 0.2241801 0 -0.9745477 255 255 255 255 -7.335889 1.280004
-7.335889 4.280005 24.80926 0.2241801 0 -0.9745477 255 255 255 255 -7.335889 4.280005
-6.903086 4.280005 24.90882 0.2241801 0 -0.9745477 255 255 255 255 -6.903086 4.280005
-6.903086 1.280004 24.90882 0.2241801 0 -0.9745477 255 255 255 255 -6.903086 1.280004
-6.903086 1.280004 24.90882 0.1611535 0 -0.9869294 255 255 255 255 -6.903086 1.280004
-6.903086 4.280005 24.90882 0.1611535 0 -0.9869294 255 255 255 255 -6.903086 4.280005
-6.460555 4.280005 24.98108 0.1611535 0 -0.9869294 255 255 255 255 -6.460555 4.280005
-6.460555 1.280004 24.98108 0.1611535 0 -0.9869294 255 255 255 255 -6.460555 1.280004
-6.460555 1.280004 24.98108 0.09711724 0 -0.9952729 255 255 255 255 -6.460555 1.280004
-6.460555 4.280005 24.98108 0.09711724 0 -0.9952729 255 255 255 255 -6.460555 4.280005
-6.009219 4.280005 25.02512 0.09711724 0 -0.9952729 255 255 255 255 -6.009219 4.280005
-6.009219 1.280004 25.02512 0.09711724 0 -0.9952729 255 255 255 255 -6.009219 1.280004
-6.009219 1.280004 25.02512 0.03237696 0 -0.9994757 255 255 255 255 -6.009219 1.280004
-6.009219 4.280005 25.02512 0.03237696 0 -0.9994757 255 255 255 255 -6.009219 4.280005
-5.549839 4.280005 25.04 0.03237696 0 -0.9994757 255 255 255 255 -5.549839 4.280005
-5.549839 1.280004 25.04 0.03237696 0 -0.9994757 255 255 255 255 -5.549839 1.280004
0 2.780005 25.04 0 0 -1 255 255 255 255 0.000000 2.780005
0 1.280004 25.04 0 0 -1 255 255 255 255 0.000000 1.280004
-5.549839 1.280004 25.04 0 0 -1 255 255 255 255 -5.549839 1.280004
-12.56 1.28 0.647979 3.661064e-10 -1 4.41105e-08 255 255 255 255 -12.560000 1.280000
-12.54 1.28 0.647977 4.480275e-12 -1 4.421662e-08 255 255 255 255 -12.540000 1.280000
-12.54 1.280003 18.04984 1.384801e-09 -1 1.668484e-07 255 255 255 255 -12.540000 1.280003
-12.56 1.280003 18.05017 2.752562e-09 -1 1.668403e-07 255 255 255 255 -12.560000 1.280003
-12.52512 1.280003 18.50922 0 -1 0 255 255 255 255 -12.525120 1.280003
-12.54507 1.280003 18.51052 0 -1 0 255 255 255 255 -12.545070 1.280003
-12.52512 4.280004 18.50922 0 1 0 255 255 255 255 -12.525120 4.280004
-12.54 4.280004 18.04984 -2.642652e-09 1 -1.601783e-07 255 255 255 255 -12.540000 4.280004
-12.56 4.280004 18.05017 -1.32917e-09 1 -1.601745e-07 255 255 255 255 -12.560000 4.280004
-12.54507 4.280004 18.51052 0 1 0 255 255 255 255 -12.545070 4.280004
-12.48108 1.280003 18.96056 0 -1 0 255 255 255 255 -12.481080 1.280003
-12.50092 1.280003 18.96314 0 -1 0 255 255 255 255 -12.500920 1.280003
-12.48108 4.280004 18.96056 0 1 0 255 255 255 255 -12.481080 4.280004
-12.50092 4.280004 18.96314 0 1 0 255 255 255 255 -12.500920 4.280004
-12.40882 1.280003 19.40309 0 -1 0 255 255 255 255 -12.408820 1.280003
-12.42844 1.280003 19.40694 0 -1 0 255 255 255 255 -12.428440 1.280003
-12.40882 4.280004 19.40309 0 1 0 255 255 255 255 -12.408820 4.280004
-12.42844 4.280004 19.40694 0 1 0 255 255 255 255 -12.428440 4.280004
-12.30925 1.280003 19.83589 0 -1 0 255 255 255 255 -12.309250 1.280003
-12.32859 1.280003 19.841 0 -1 0 255 255 255 255 -12.328590 1.280003
-12.30925 4.280004 19.83589 0 1 0 255 255 255 255 -12.309250 4.280004
-12.32859 4.280004 19.841 0 1 0 255 255 255 255 -12.328590 4.280004
-12.30925 1.280003 19.83589 6.953337e-07 -1 2.330406e-06 255 255 255 255 -12.309250 1.280003
-12.18332 1.280004 20.25804 7.702935e-07 -1 2.311694e-06 255 255 255 255 -12.183320 1.280004
-12.20229 1.280004 20.26436 6.953337e-07 -1 2.330406e-06 255 255 255 255 -12.202290 1.280004
-12.32859 1.280003 19.841 6.206235e-07 -1 2.349056e-06 255 255 255 255 -12.328590 1.280003
-12.18332 4.280004 20.25804 0 1 0 255 255 255 255 -12.183320 4.280004
-12.20229 4.280004 20.26436 0 1 0 255 255 255 255 -12.202290 4.280004
-12.18332 1.280004 20.25804 0 -1 0 255 255 255 255 -12.183320 1.280004
-12.03192 1.280004 20.66862 0 -1 0 255 255 255 255 -12.031920 1.280004
-12.05046 1.280004 20.67612 0 -1 0 255 255 255 255 -12.050460 1.280004
-12.20229 1.280004 20.26436 0 -1 0 255 255 255 255 -12.202290 1.280004
-12.03192 4.280004 20.66862 0 1 0 255 255 255 255 -12.031920 4.280004
-12.05046 4.280004 20.67612 0 1 0 255 255 255 255 -12.050460 4.280004
-11.85601 1.280004 21.0667 0 -1 0 255 255 255 255 -11.856010 1.280004
-11.87404 1.280004 21.07535 0 -1 0 255 255 255 255 -11.874040 1.280004
-11.85601 4.280004 21.0667 0 1 0 255 255 255 255 -11.856010 4.280004
-11.87404 4.280004 21.07535 0 1 0 255 255 255 255 -11.874040 4.280004
-11.65649 1.280004 21.45135 0 -1 0 255 255 255 255 -11.656490 1.280004
-11.67394 1.280004 21.46111 0 -1 0 255 255 255 255 -11.673940 1.280004
-11.65649 4.280005 21.45135 -1.012218e-06 1 -1.950712e-06 255 255 255 255 -11.656490 4.280005
-11.85601 4.280004 21.0667 -9.524724e-07 1 -1.98528e-06 255 255 255 255 -11.856010 4.280004
-11.87404 4.280004 21.07535 -1.012218e-06 1 -1.950712e-06 255 255 255 255 -11.874040 4.280004
-11.67394 4.280005 21.46111 -1.071803e-06 1 -1.916238e-06 255 255 255 255 -11.673940 4.280005
-11.43429 1.280004 21.82166 0 -1 0 255 255 255 255 -11.434290 1.280004
-11.45111 1.280004 21.83247 0 -1 0 255 255 255 255 -11.451110 1.280004
-11.43429 4.280005 21.82166 0 1 0 255 255 255 255 -11.434290 4.280005
-11.65649 4.280005 21.45135 0 1 0 255 255 255 255 -11.656490 4.280005
-11.67394 4.280005 21.46111 0 1 0 255 255 255 255 -11.673940 4.280005
-11.45111 4.280005 21.83247 0 1 0 255 255 255 255 -11.451110 4.280005
-11.19034 1.280004 22.17669 0 -1 0 255 255 255 255 -11.190340 1.280004
-11.20647 1.280004 22.18852 0 -1 0 255 255 255 255 -11.206470 1.280004
-11.19034 4.280005 22.17669 0 1 0 255 255 255 255 -11.190340 4.280005
-11.20647 4.280005 22.18852 0 1 0 255 255 255 255 -11.206470 4.280005
-10.92556 1.280004 22.51552 0 -1 0 255 255 255 255 -10.925560 1.280004
-10.94094 1.280004 22.52831 0 -1 0 255 255 255 255 -10.940940 1.280004
-10.92556 4.280005 22.51552 0 1 0 255 255 255 255 -10.925560 4.280005
-10.94094 4.280005 22.52831 0 1 0 255 255 255 255 -10.940940 4.280005
-10.64088 1.280004 22.83723 0 -1 0 255 255 255 255 -10.640880 1.280004
-10.65545 1.280004 22.85093 0 -1 0 255 255 255 255 -10.655450 1.280004
-10.64088 4.280005 22.83723 0 1 0 255 255 255 255 -10.640880 4.280005
-10.65545 4.280005 22.85093 0 1 0 255 255 255 255 -10.655450 4.280005
-10.33723 1.280004 23.14088 0 -1 0 255 255 255 255 -10.337230 1.280004
-10.35093 1.280004 23.15545 0 -1 0 255 255 255 255 -10.350930 1.280004
-10.33723 4.280005 23.14088 0 1 0 255 255 255 255 -10.337230 4.280005
-10.35093 4.280005 23.15545 0 1 0 255 255 255 255 -10.350930 4.280005
-10.01552 1.280004 23.42556 0 -1 0 255 255 255 255 -10.015520 1.280004
-10.02831 1.280004 23.44094 0 -1 0 255 255 255 255 -10.028310 1.280004
-10.01552 4.280005 23.42556 0 1 0 255 255 255 255 -10.015520 4.280005
-10.02831 4.280005 23.44094 0 1 0 255 255 255 255 -10.028310 4.280005
-9.67669 1.280004 23.69034 0 -1 0 255 255 255 255 -9.676690 1.280004
-9.688516 1.280004 23.70647 0 -1 0 255 255 255 255 -9.688516 1.280004
-9.67669 4.280005 23.69034 0 1 0 255 255 255 255 -9.676690 4.280005
-9.688516 4.280005 23.70647 0 1 0 255 255 255 255 -9.688516 4.280005
-9.321659 1.280004 23.93429 0 -1 0 255 255 255 255 -9.321659 1.280004
-9.332473 1.280004 23.95111 0 -1 0 255 255 255 255 -9.332473 1.280004
-9.321659 4.280005 23.93429 0 1 0 255 255 255 255 -9.321659 4.280005
-9.332473 4.280005 23.95111 0 1 0 255 255 255 255 -9.332473 4.280005
-8.951352 1.280004 24.15649 0 -1 0 255 255 255 255 -8.951352 1.280004
-8.961107 1.280004 24.17395 0 -1 0 255 255 255 255 -8.961107 1.280004
-8.951352 4.280005 24.15649 0 1 0 255 255 255 255 -8.951352 4.280005
-8.961107 4.280005 24.17395 0 1 0 255 255 255 255 -8.961107 4.280005
-8.566698 1.280004 24.356 0 -1 0 255 255 255 255 -8.566698 1.280004
-8.575349 1.280004 24.37404 0 -1 0 255 255 255 255 -8.575349 1.280004
-8.566698 4.280005 24.356 0 1 0 255 255 255 255 -8.566698 4.280005
-8.575349 4.280005 24.37404 0 1 0 255 255 255 255 -8.575349 4.280005
-8.168619 1.280004 24.53193 0 -1 0 255 255 255 255 -8.168619 1.280004
-8.176125 1.280004 24.55046 0 -1 0 255 255 255 255 -8.176125 1.280004
-8.168619 4.280005 24.53193 0 1 0 255 255 255 255 -8.168619 4.280005
-8.176125 4.280005 24.55046 0 1 0 255 255 255 255 -8.176125 4.280005
-7.758042 1.280004 24.68332 0 -1 0 255 255 255 255 -7.758042 1.280004
-7.764364 1.280004 24.70229 0 -1 0 255 255 255 255 -7.764364 1.280004
-7.758042 4.280005 24.68332 0 1 0 255 255 255 255 -7.758042 4.280005
-7.764364 4.280005 24.70229 0 1 0 255 255 255 255 -7.764364 4.280005
-7.335889 1.280004 24.80926 0 -1 0 255 255 255 255 -7.335889 1.280004
-7.340992 1.280004 24.82859 0 -1 0 255 255 255 255 -7.340992 1.280004
-7.335889 4.280005 24.80926 0 1 0 255 255 255 255 -7.335889 4.280005
-7.340992 4.280005 24.82859 0 1 0 255 255 255 255 -7.340992 4.280005
-6.903086 1.280004 24.90882 0 -1 0 255 255 255 255 -6.903086 1.280004
-6.906941 1.280004 24.92844 0 -1 0 255 255 255 255 -6.906941 1.280004
-6.903086 4.280005 24.90882 0 1 0 255 255 255 255 -6.903086 4.280005
-6.906941 4.280005 24.92844 0 1 0 255 255 255 255 -6.906941 4.280005
-6.460555 1.280004 24.98108 0 -1 0 255 255 255 255 -6.460555 1.280004
-6.46314 1.280004 25.00091 0 -1 0 255 255 255 255 -6.463140 1.280004
-6.460555 4.280005 24.98108 0 1 0 255 255 255 255 -6.460555 4.280005
-6.46314 4.280005 25.00091 0 1 0 255 255 255 255 -6.463140 4.280005
-6.009219 1.280004 25.02512 0 -1 0 255 255 255 255 -6.009219 1.280004
-6.010515 1.280004 25.04508 0 -1 0 255 255 255 255 -6.010515 1.280004
-6.009219 4.280005 25.02512 0 1 0 255 255 255 255 -6.009219 4.280005
-6.010515 4.280005 25.04508 0 1 0 255 255 255 255 -6.010515 4.280005
-5.549839 1.280004 25.04 0 -1 0 255 255 255 255 -5.549839 1.280004
-5.550163 1.280004 25.06 0 -1 0 255 255 255 255 -5.550163 1.280004
-5.549839 4.280005 25.04 0 1 0 255 255 255 255 -5.549839 4.280005
-5.550163 4.280005 25.06 0 1 0 255 255 255 255 -5.550163 4.280005
0 1.280004 25.06 0 -1 0 255 255 255 255 0.000000 1.280004
0 1.280004 25.05 0 -1 0 255 255 255 255 0.000000 1.280004
0 4.280005 25.04 0 1 0 255 255 255 255 0.000000 4.280005
0 4.280005 25.05 0 1 0 255 255 255 255 0.000000 4.280005
-12.56 1.280003 18.05017 -1 0 0 255 255 255 255 -12.560000 1.280003
-12.56 4.280004 18.05017 -1 0 0 255 255 255 255 -12.560000 4.280004
-12.56 4.280001 0.64798 -1 0 0 255 255 255 255 -12.560000 4.280001
-12.56 1.28 0.647979 -1 0 0 255 255 255 255 -12.560000 1.280000
-12.54 4.280001 0.647978 -3.513991e-10 1 -4.234608e-08 255 255 255 255 -12.540000 4.280001
-12.56 4.280001 0.64798 -4.174542e-12 1 -4.244775e-08 255 255 255 255 -12.560000 4.280001
-12.56 1.28 0 -1 0 0 255 255 255 255 -12.560000 1.280000
-12.56 2.779998 0 -1 0 0 255 255 255 255 -12.560000 2.779998
-12.54 4.280001 0 1 0 0 255 255 255 255 -12.540000 4.280001
-12.54 2.779998 0 1 0 0 255 255 255 255 -12.540000 2.779998
-12.54 1.28 0 0 -1 0 255 255 255 255 -12.540000 1.280000
-12.55 1.28 0 0 -1 0 255 255 255 255 -12.550000 1.280000
-12.56 4.280001 0 0 1 0 255 255 255 255 -12.560000 4.280001
-12.55 4.280001 0 0 1 0 255 255 255 255 -12.550000 4.280001
0 1.280004 25.06 0 0 1 255 255 255 255 0.000000 1.280004
0 1.280004 25.04 0 -1 0 255 255 255 255 0.000000 1.280004
0 4.280005 25.06 0 1 0 255 255 255 255 0.000000 4.280005
-5.549839 4.280005 25.04 0 0 -1 255 255 255 255 -5.549839 4.280005
0 4.280005 25.04 0 0 -1 255 255 255 255 0.000000 4.280005
-12.56 1.28 0 0 -1 0 255 255 255 255 -12.560000 1.280000
-12.54 4.280001 0 0 1 0 255 255 255 255 -12.540000 4.280001
-12.56 4.280001 0 -1 0 0 255 255 255 255 -12.560000 4.280001
-12.54 1.28 0 1 0 0 255 255 255 255 -12.540000 1.280000
3 0 1 2 
3 2 3 0 
3 4 5 6 
3 6 7 4 
3 8 9 10 
3 10 11 8 
3 12 13 14 
3 14 15 12 
3 16 17 18 
3 19 20 21 
3 22 23 24 
3 24 25 22 
3 26 27 28 
3 28 29 26 
3 30 31 32 
3 32 33 30 
3 34 35 36 
3 36 37 34 
3 38 39 40 
3 40 41 38 
3 42 43 44 
3 44 45 42 
3 46 47 48 
3 48 49 46 
3 50 51 52 
3 52 53 50 
3 54 55 56 
3 56 57 54 
3 58 59 60 
3 60 61 58 
3 62 63 64 
3 64 65 62 
3 66 67 68 
3 68 69 66 
3 70 71 72 
3 72 73 70 
3 74 75 76 
3 76 77 74 
3 78 79 80 
3 80 81 78 
3 82 83 84 
3 84 85 82 
3 86 87 88 
3 88 89 86 
3 90 91 92 
3 92 93 90 
3 94 95 96 
3 96 97 94 
3 98 99 100 
3 100 101 98 
3 102 103 104 
3 102 104 105 
3 106 107 108 
3 108 109 106 
3 110 111 112 
3 112 113 110 
3 114 115 116 
3 116 117 114 
3 118 119 120 
3 120 121 118 
3 122 123 124 
3 124 125 122 
3 126 127 128 
3 128 129 126 
3 130 131 132 
3 132 133 130 
3 134 135 136 
3 136 137 134 
3 138 139 140 
3 140 141 138 
3 142 143 144 
3 144 145 142 
3 146 147 148 
3 148 149 146 
3 150 151 152 
3 152 153 150 
3 154 155 156 
3 156 157 154 
3 158 159 160 
3 160 161 158 
3 162 163 164 
3 164 165 162 
3 166 167 168 
3 168 169 166 
3 170 171 172 
3 172 173 170 
3 174 175 176 
3 176 177 174 
3 178 179 180 
3 180 181 178 
3 182 183 184 
3 184 185 182 
3 186 187 188 
3 188 189 186 
3 190 191 192 
3 192 193 190 
3 194 195 196 
3 196 197 194 
3 198 199 200 
3 200 201 198 
3 202 203 204 
3 204 205 202 
3 206 207 208 
3 208 209 206 
3 210 211 212 
3 213 214 215 
3 215 216 213 
3 215 217 218 
3 218 216 215 
3 219 220 221 
3 221 222 219 
3 217 223 224 
3 224 218 217 
3 225 219 222 
3 222 226 225 
3 223 227 228 
3 228 224 223 
3 229 225 226 
3 226 230 229 
3 227 231 232 
3 232 228 227 
3 233 229 230 
3 230 234 233 
3 235 236 237 
3 237 238 235 
3 239 233 234 
3 234 240 239 
3 241 242 243 
3 243 244 241 
3 245 239 240 
3 240 246 245 
3 242 247 248 
3 248 243 242 
3 249 245 246 
3 246 250 249 
3 247 251 252 
3 252 248 247 
3 253 254 255 
3 255 256 253 
3 251 257 258 
3 258 252 251 
3 259 260 261 
3 261 262 259 
3 257 263 264 
3 264 258 257 
3 265 259 262 
3 262 266 265 
3 263 267 268 
3 268 264 263 
3 269 265 266 
3 266 270 269 
3 267 271 272 
3 272 268 267 
3 273 269 270 
3 270 274 273 
3 271 275 276 
3 276 272 271 
3 277 273 274 
3 274 278 277 
3 275 279 280 
3 280 276 275 
3 281 277 278 
3 278 282 281 
3 279 283 284 
3 284 280 279 
3 285 281 282 
3 282 286 285 
3 283 287 288 
3 288 284 283 
3 289 285 286 
3 286 290 289 
3 287 291 292 
3 292 288 287 
3 293 289 290 
3 290 294 293 
3 291 295 296 
3 296 292 291 
3 297 293 294 
3 294 298 297 
3 295 299 300 
3 300 296 295 
3 301 297 298 
3 298 302 301 
3 299 303 304 
3 304 300 299 
3 305 301 302 
3 302 306 305 
3 303 307 308 
3 308 304 303 
3 309 305 306 
3 306 310 309 
3 307 311 312 
3 312 308 307 
3 313 309 310 
3 310 314 313 
3 311 315 316 
3 316 312 311 
3 317 313 314 
3 314 318 317 
3 315 319 320 
3 320 316 315 
3 321 317 318 
3 318 322 321 
3 319 323 324 
3 324 320 319 
3 325 321 322 
3 322 326 325 
3 327 324 323 
3 327 323 328 
3 329 325 326 
3 329 326 330 
3 331 332 333 
3 333 334 331 
3 221 220 335 
3 335 336 221 
3 337 334 333 
3 337 333 338 
3 339 108 107 
3 339 107 340 
3 341 214 213 
3 341 213 342 
3 343 336 335 
3 343 335 344 
3 104 345 105 
3 323 346 328 
3 326 347 330 
3 212 348 349 
3 212 349 210 
3 213 350 342 
3 335 351 344 
3 333 352 338 
3 107 353 340 
