ply
format ascii 1.0
comment VCGLIB generated
element vertex 354
property float x
property float y
property float z
property float nx
property float ny
property float nz
property uchar red
property uchar green
property uchar blue
property uchar alpha
property float texture_u
property float texture_v
element face 232
property list uchar int vertex_indices
end_header
0 1.279996 -25.06 0 0 -1 255 255 255 255 0.000000 1.279996
-5.550163 1.279996 -25.06 0 0 -1 255 255 255 255 -5.550163 1.279996
-5.550163 4.279997 -25.06 0 0 -1 255 255 255 255 -5.550163 4.279997
0 2.779996 -25.06 0 0 -1 255 255 255 255 0.000000 2.779996
-6.010515 4.279997 -25.04507 -0.03241207 0 -0.9994746 255 255 255 255 -6.010515 4.279997
-5.550163 4.279997 -25.06 -0.03241207 0 -0.9994746 255 255 255 255 -5.550163 4.279997
-5.550163 1.279996 -25.06 -0.03241207 0 -0.9994746 255 255 255 255 -5.550163 1.279996
-6.010515 1.279996 -25.04507 -0.03241207 0 -0.9994746 255 255 255 255 -6.010515 1.279996
-6.463139 4.279997 -25.00092 -0.09708446 0 -0.9952762 255 255 255 255 -6.463139 4.279997
-6.010515 4.279997 -25.04507 -0.09708446 0 -0.9952762 255 255 255 255 -6.010515 4.279997
-6.010515 1.279996 -25.04507 -0.09708446 0 -0.9952762 255 255 255 255 -6.010515 1.279996
-6.463139 1.279996 -25.00092 -0.09708446 0 -0.9952762 255 255 255 255 -6.463139 1.279996
-6.90694 4.279997 -24.92844 -0.1611795 0 -0.9869251 255 255 255 255 -6.906940 4.279997
-6.463139 4.279997 -25.00092 -0.1611795 0 -0.9869251 255 255 255 255 -6.463139 4.279997
-6.463139 1.279996 -25.00092 -0.1611795 0 -0.9869251 255 255 255 255 -6.463139 1.279996
-6.90694 1.279996 -24.92844 -0.1611795 0 -0.9869251 255 255 255 255 -6.906940 1.279996
-7.340992 4.279997 -24.8286 -0.2241652 0 -0.9745511 255 255 255 255 -7.340992 4.279997
-6.90694 4.279997 -24.92844 -0.2241652 0 -0.9745511 255 255 255 255 -6.906940 4.279997
-6.90694 1.279996 -24.92844 -0.2241652 0 -0.9745511 255 255 255 255 -6.906940 1.279996
-7.340992 1.279996 -24.8286 -0.2241652 0 -0.9745511 255 255 255 255 -7.340992 1.279996
-7.764363 4.279997 -24.70229 -0.2858922 0 -0.9582618 255 255 255 255 -7.764363 4.279997
-7.340992 4.279997 -24.8286 -0.2858921 0 -0.9582618 255 255 255 255 -7.340992 4.279997
-7.340992 1.279996 -24.8286 -0.2858922 0 -0.9582618 255 255 255 255 -7.340992 1.279996
-7.764363 1.279996 -24.70229 -0.2858921 0 -0.9582618 255 255 255 255 -7.764363 1.279996
-8.176124 4.279997 -24.55046 -0.345961 0 -0.9382489 255 255 255 255 -8.176124 4.279997
-7.764363 4.279997 -24.70229 -0.345961 0 -0.9382489 255 255 255 255 -7.764363 4.279997
-7.764363 1.279996 -24.70229 -0.345961 0 -0.9382489 255 255 255 255 -7.764363 1.279996
-8.176124 1.279996 -24.55046 -0.345961 0 -0.9382489 255 255 255 255 -8.176124 1.279996
-8.57535 4.279997 -24.37404 -0.4041983 0 -0.9146714 255 255 255 255 -8.575350 4.279997
-8.176124 4.279997 -24.55046 -0.4041983 0 -0.9146714 255 255 255 255 -8.176124 4.279997
-8.176124 1.279996 -24.55046 -0.4041983 0 -0.9146714 255 255 255 255 -8.176124 1.279996
-8.57535 1.279996 -24.37404 -0.4041983 0 -0.9146714 255 255 255 255 -8.575350 1.279996
-8.961107 4.279997 -24.17395 -0.4604405 0 -0.8876905 255 255 255 255 -8.961107 4.279997
-8.57535 4.279997 -24.37404 -0.4604405 0 -0.8876905 255 255 255 255 -8.575350 4.279997
-8.57535 1.279996 -24.37404 -0.4604405 0 -0.8876905 255 255 255 255 -8.575350 1.279996
-8.961107 1.279996 -24.17395 -0.4604405 0 -0.8876905 255 255 255 255 -8.961107 1.279996
-9.33247 4.279997 -23.95111 -0.5145327 0 -0.8574708 255 255 255 255 -9.332470 4.279997
-8.961107 4.279997 -24.17395 -0.5145327 0 -0.8574708 255 255 255 255 -8.961107 4.279997
-8.961107 1.279996 -24.17395 -0.5145327 0 -0.8574708 255 255 255 255 -8.961107 1.279996
-9.33247 1.279996 -23.95111 -0.5145327 0 -0.8574708 255 255 255 255 -9.332470 1.279996
-9.688516 4.279997 -23.70647 -0.566307 0 -0.8241944 255 255 255 255 -9.688516 4.279997
-9.33247 4.279997 -23.95111 -0.566307 0 -0.8241944 255 255 255 255 -9.332470 4.279997
-9.33247 1.279996 -23.95111 -0.566307 0 -0.8241944 255 255 255 255 -9.332470 1.279996
-9.688516 1.279996 -23.70647 -0.566307 0 -0.8241944 255 255 255 255 -9.688516 1.279996
-10.02831 4.279997 -23.44094 -0.6157382 0 -0.7879508 255 255 255 255 -10.028310 4.279997
-9.688516 4.279997 -23.70647 -0.6157382 0 -0.7879508 255 255 255 255 -9.688516 4.279997
-9.688516 1.279996 -23.70647 -0.6157382 0 -0.7879508 255 255 255 255 -9.688516 1.279996
-10.02831 1.279996 -23.44094 -0.6157382 0 -0.7879508 255 255 255 255 -10.028310 1.279996
-10.35093 4.279997 -23.15545 -0.6626977 0 -0.7488871 255 255 255 255 -10.350930 4.279997
-10.02831 4.279997 -23.44094 -0.6626977 0 -0.748887 255 255 255 255 -10.028310 4.279997
-10.02831 1.279996 -23.44094 -0.6626977 0 -0.7488871 255 255 255 255 -10.028310 1.279996
-10.35093 1.279996 -23.15545 -0.6626977 0 -0.748887 255 255 255 255 -10.350930 1.279996
-10.65545 4.279997 -22.85093 -0.707109 0 -0.7071046 255 255 255 255 -10.655450 4.279997
-10.35093 4.279997 -23.15545 -0.707109 0 -0.7071046 255 255 255 255 -10.350930 4.279997
-10.35093 1.279996 -23.15545 -0.707109 0 -0.7071046 255 255 255 255 -10.350930 1.279996
-10.65545 1.279997 -22.85093 -0.707109 0 -0.7071046 255 255 255 255 -10.655450 1.279997
-10.94094 4.279997 -22.52831 -0.7488851 0 -0.6626999 255 255 255 255 -10.940940 4.279997
-10.65545 4.279997 -22.85093 -0.7488851 0 -0.6626999 255 255 255 255 -10.655450 4.279997
-10.65545 1.279997 -22.85093 -0.7488851 0 -0.6626999 255 255 255 255 -10.655450 1.279997
-10.94094 1.279997 -22.52831 -0.7488851 0 -0.6626999 255 255 255 255 -10.940940 1.279997
-11.20647 4.279997 -22.18852 -0.7879474 0 -0.6157426 255 255 255 255 -11.206470 4.279997
-10.94094 4.279997 -22.52831 -0.7879474 0 -0.6157426 255 255 255 255 -10.940940 4.279997
-10.94094 1.279997 -22.52831 -0.7879474 0 -0.6157426 255 255 255 255 -10.940940 1.279997
-11.20647 1.279997 -22.18852 -0.7879474 0 -0.6157426 255 255 255 255 -11.206470 1.279997
-11.45111 4.279997 -21.83247 -0.8241979 0 -0.5663019 255 255 255 255 -11.451110 4.279997
-11.20647 4.279997 -22.18852 -0.8241979 0 -0.5663019 255 255 255 255 -11.206470 4.279997
-11.20647 1.279997 -22.18852 -0.8241979 0 -0.5663019 255 255 255 255 -11.206470 1.279997
-11.45111 1.279997 -21.83247 -0.8241979 0 -0.5663019 255 255 255 255 -11.451110 1.279997
-11.67394 4.279997 -21.46111 -0.8574793 0 -0.5145184 255 255 255 255 -11.673940 4.279997
-11.45111 4.279997 -21.83247 -0.8574793 0 -0.5145184 255 255 255 255 -11.451110 4.279997
-11.45111 1.279997 -21.83247 -0.8574793 0 -0.5145184 255 255 255 255 -11.451110 1.279997
-11.67394 1.279997 -21.46111 -0.8574793 0 -0.5145184 255 255 255 255 -11.673940 1.279997
-11.87404 4.279997 -21.07535 -0.8876825 0 -0.460456 255 255 255 255 -11.874040 4.279997
-11.67394 4.279997 -21.46111 -0.8876824 0 -0.460456 255 255 255 255 -11.673940 4.279997
-11.67394 1.279997 -21.46111 -0.8876825 0 -0.460456 255 255 255 255 -11.673940 1.279997
-11.87404 1.279997 -21.07535 -0.8876824 0 -0.460456 255 255 255 255 -11.874040 1.279997
-12.05046 4.279997 -20.67613 -0.9146689 0 -0.4042039 255 255 255 255 -12.050460 4.279997
-11.87404 4.279997 -21.07535 -0.9146689 0 -0.4042039 255 255 255 255 -11.874040 4.279997
-11.87404 1.279997 -21.07535 -0.9146689 0 -0.4042039 255 255 255 255 -11.874040 1.279997
-12.05046 1.279997 -20.67613 -0.9146689 0 -0.4042039 255 255 255 255 -12.050460 1.279997
-12.20229 4.279997 -20.26437 -0.9382481 0 -0.3459633 255 255 255 255 -12.202290 4.279997
-12.05046 4.279997 -20.67613 -0.938248 0 -0.3459632 255 255 255 255 -12.050460 4.279997
-12.05046 1.279997 -20.67613 -0.9382481 0 -0.3459633 255 255 255 255 -12.050460 1.279997
-12.20229 1.279997 -20.26437 -0.938248 0 -0.3459632 255 255 255 255 -12.202290 1.279997
-12.32859 4.279997 -19.84099 -0.9582694 0 -0.2858667 255 255 255 255 -12.328590 4.279997
-12.20229 4.279997 -20.26437 -0.9582694 0 -0.2858667 255 255 255 255 -12.202290 4.279997
-12.20229 1.279997 -20.26437 -0.9582694 0 -0.2858667 255 255 255 255 -12.202290 1.279997
-12.32859 1.279997 -19.84099 -0.9582694 0 -0.2858667 255 255 255 255 -12.328590 1.279997
-12.42844 4.279998 -19.40694 -0.9745463 0 -0.2241867 255 255 255 255 -12.428440 4.279998
-12.32859 4.279997 -19.84099 -0.9745463 0 -0.2241867 255 255 255 255 -12.328590 4.279997
-12.32859 1.279997 -19.84099 -0.9745463 0 -0.2241867 255 255 255 255 -12.328590 1.279997
-12.42844 1.279997 -19.40694 -0.9745463 0 -0.2241867 255 255 255 255 -12.428440 1.279997
-12.50091 4.279998 -18.96314 -0.9869285 0 -0.1611591 255 255 255 255 -12.500910 4.279998
-12.42844 4.279998 -19.40694 -0.9869285 0 -0.1611591 255 255 255 255 -12.428440 4.279998
-12.42844 1.279997 -19.40694 -0.9869285 0 -0.1611591 255 255 255 255 -12.428440 1.279997
-12.50091 1.279997 -18.96314 -0.9869285 0 -0.1611591 255 255 255 255 -12.500910 1.279997
-12.54508 4.279998 -18.51052 -0.995272 0 -0.09712692 255 255 255 255 -12.545080 4.279998
-12.50091 4.279998 -18.96314 -0.995272 0 -0.09712692 255 255 255 255 -12.500910 4.279998
-12.50091 1.279997 -18.96314 -0.995272 0 -0.09712692 255 255 255 255 -12.500910 1.279997
-12.54508 1.279997 -18.51052 -0.995272 0 -0.09712692 255 255 255 255 -12.545080 1.279997
-12.56 4.279998 -18.05016 -0.9994752 0 -0.03239281 255 255 255 255 -12.560000 4.279998
-12.54508 4.279998 -18.51052 -0.9994752 0 -0.03239281 255 255 255 255 -12.545080 4.279998
-12.54508 1.279997 -18.51052 -0.9994752 0 -0.03239281 255 255 255 255 -12.545080 1.279997
-12.56 1.279997 -18.05016 -0.9994752 0 -0.03239281 255 255 255 255 -12.560000 1.279997
-12.56 1.28 -0.647978 -1 0 0 255 255 255 255 -12.560000 1.280000
-12.56 4.280001 -0.647977 -1 0 0 255 255 255 255 -12.560000 4.280001
-12.56 4.279998 -18.05016 -1 0 0 255 255 255 255 -12.560000 4.279998
-12.56 1.279997 -18.05016 -1 0 0 255 255 255 255 -12.560000 1.279997
0 2.779996 -25.04 0 0 1 255 255 255 255 0.000000 2.779996
0 4.279997 -25.04 0 0 1 255 255 255 255 0.000000 4.279997
-5.549839 4.279997 -25.04 0 0 1 255 255 255 255 -5.549839 4.279997
-5.549839 1.279996 -25.04 0.03237696 0 0.9994757 255 255 255 255 -5.549839 1.279996
-5.549839 4.279997 -25.04 0.03237696 0 0.9994757 255 255 255 255 -5.549839 4.279997
-6.009219 4.279997 -25.02512 0.03237696 0 0.9994757 255 255 255 255 -6.009219 4.279997
-6.009219 1.279996 -25.02512 0.03237696 0 0.9994757 255 255 255 255 -6.009219 1.279996
-6.009219 1.279996 -25.02512 0.09711744 0 0.9952729 255 255 255 255 -6.009219 1.279996
-6.009219 4.279997 -25.02512 0.09711744 0 0.9952729 255 255 255 255 -6.009219 4.279997
-6.460554 4.279997 -24.98108 0.09711744 0 0.9952729 255 255 255 255 -6.460554 4.279997
-6.460554 1.279996 -24.98108 0.09711744 0 0.9952729 255 255 255 255 -6.460554 1.279996
-6.460554 1.279996 -24.98108 0.1611535 0 0.9869294 255 255 255 255 -6.460554 1.279996
-6.460554 4.279997 -24.98108 0.1611535 0 0.9869294 255 255 255 255 -6.460554 4.279997
-6.903085 4.279997 -24.90882 0.1611535 0 0.9869294 255 255 255 255 -6.903085 4.279997
-6.903085 1.279996 -24.90882 0.1611535 0 0.9869294 255 255 255 255 -6.903085 1.279996
-6.903085 1.279996 -24.90882 0.2241797 0 0.9745479 255 255 255 255 -6.903085 1.279996
-6.903085 4.279997 -24.90882 0.2241797 0 0.9745478 255 255 255 255 -6.903085 4.279997
-7.335889 4.279997 -24.80926 0.2241797 0 0.9745479 255 255 255 255 -7.335889 4.279997
-7.335889 1.279996 -24.80926 0.2241797 0 0.9745478 255 255 255 255 -7.335889 1.279996
-7.335889 1.279996 -24.80926 0.2858788 0 0.9582658 255 255 255 255 -7.335889 1.279996
-7.335889 4.279997 -24.80926 0.2858788 0 0.9582658 255 255 255 255 -7.335889 4.279997
-7.758041 4.279997 -24.68332 0.2858788 0 0.9582658 255 255 255 255 -7.758041 4.279997
-7.758041 1.279996 -24.68332 0.2858788 0 0.9582658 255 255 255 255 -7.758041 1.279996
-7.758041 1.279996 -24.68332 0.3459749 0 0.9382438 255 255 255 255 -7.758041 1.279996
-7.758041 4.279997 -24.68332 0.3459749 0 0.9382438 255 255 255 255 -7.758041 4.279997
-8.168619 4.279997 -24.53192 0.3459749 0 0.9382438 255 255 255 255 -8.168619 4.279997
-8.168619 1.279996 -24.53192 0.3459749 0 0.9382438 255 255 255 255 -8.168619 1.279996
-8.168619 1.279996 -24.53192 0.4041894 0 0.9146754 255 255 255 255 -8.168619 1.279996
-8.168619 4.279997 -24.53192 0.4041894 0 0.9146754 255 255 255 255 -8.168619 4.279997
-8.566699 4.279997 -24.35601 0.4041894 0 0.9146754 255 255 255 255 -8.566699 4.279997
-8.566699 1.279996 -24.35601 0.4041894 0 0.9146754 255 255 255 255 -8.566699 1.279996
-8.566699 1.279996 -24.35601 0.4604451 0 0.8876882 255 255 255 255 -8.566699 1.279996
-8.566699 4.279997 -24.35601 0.4604451 0 0.8876882 255 255 255 255 -8.566699 4.279997
-8.951352 4.279997 -24.15649 0.4604451 0 0.8876882 255 255 255 255 -8.951352 4.279997
-8.951352 1.279996 -24.15649 0.4604451 0 0.8876882 255 255 255 255 -8.951352 1.279996
-8.951352 1.279996 -24.15649 0.5145416 0 0.8574654 255 255 255 255 -8.951352 1.279996
-8.951352 4.279997 -24.15649 0.5145415 0 0.8574654 255 255 255 255 -8.951352 4.279997
-9.321657 4.279997 -23.93428 0.5145416 0 0.8574654 255 255 255 255 -9.321657 4.279997
-9.321657 1.279996 -23.93428 0.5145415 0 0.8574654 255 255 255 255 -9.321657 1.279996
-9.321657 1.279996 -23.93428 0.5663006 0 0.8241988 255 255 255 255 -9.321657 1.279996
-9.321657 4.279997 -23.93428 0.5663006 0 0.8241988 255 255 255 255 -9.321657 4.279997
-9.67669 4.279997 -23.69034 0.5663006 0 0.8241988 255 255 255 255 -9.676690 4.279997
-9.67669 1.279996 -23.69034 0.5663006 0 0.8241988 255 255 255 255 -9.676690 1.279996
-9.67669 1.279996 -23.69034 0.6157439 0 0.7879465 255 255 255 255 -9.676690 1.279996
-9.67669 4.279997 -23.69034 0.6157439 0 0.7879465 255 255 255 255 -9.676690 4.279997
-10.01552 4.279997 -23.42556 0.6157439 0 0.7879465 255 255 255 255 -10.015520 4.279997
-10.01552 1.279996 -23.42556 0.6157439 0 0.7879465 255 255 255 255 -10.015520 1.279996
-10.01552 1.279996 -23.42556 0.6626916 0 0.7488924 255 255 255 255 -10.015520 1.279996
-10.01552 4.279997 -23.42556 0.6626916 0 0.7488924 255 255 255 255 -10.015520 4.279997
-10.33723 4.279997 -23.14088 0.6626916 0 0.7488924 255 255 255 255 -10.337230 4.279997
-10.33723 1.279996 -23.14088 0.6626916 0 0.7488924 255 255 255 255 -10.337230 1.279996
-10.33723 1.279996 -23.14088 0.7071068 0 0.7071068 255 255 255 255 -10.337230 1.279996
-10.33723 4.279997 -23.14088 0.7071068 0 0.7071068 255 255 255 255 -10.337230 4.279997
-10.64088 4.279997 -22.83723 0.7071068 0 0.7071068 255 255 255 255 -10.640880 4.279997
-10.64088 1.279997 -22.83723 0.7071067 0 0.7071067 255 255 255 255 -10.640880 1.279997
-10.64088 1.279997 -22.83723 0.7488923 0 0.6626917 255 255 255 255 -10.640880 1.279997
-10.64088 4.279997 -22.83723 0.7488923 0 0.6626917 255 255 255 255 -10.640880 4.279997
-10.92556 4.279997 -22.51552 0.7488923 0 0.6626917 255 255 255 255 -10.925560 4.279997
-10.92556 1.279997 -22.51552 0.7488923 0 0.6626917 255 255 255 255 -10.925560 1.279997
-10.92556 1.279997 -22.51552 0.7879472 0 0.6157427 255 255 255 255 -10.925560 1.279997
-10.92556 4.279997 -22.51552 0.7879472 0 0.6157427 255 255 255 255 -10.925560 4.279997
-11.19034 4.279997 -22.17669 0.7879472 0 0.6157427 255 255 255 255 -11.190340 4.279997
-11.19034 1.279997 -22.17669 0.7879472 0 0.6157427 255 255 255 255 -11.190340 1.279997
-11.19034 1.279997 -22.17669 0.8241864 0 0.5663188 255 255 255 255 -11.190340 1.279997
-11.19034 4.279997 -22.17669 0.8241863 0 0.5663187 255 255 255 255 -11.190340 4.279997
-11.43429 4.279997 -21.82166 0.8241864 0 0.5663188 255 255 255 255 -11.434290 4.279997
-11.43429 1.279997 -21.82166 0.8241863 0 0.5663187 255 255 255 255 -11.434290 1.279997
-11.43429 1.279997 -21.82166 0.8574781 0 0.5145205 255 255 255 255 -11.434290 1.279997
-11.43429 4.279997 -21.82166 0.8574781 0 0.5145205 255 255 255 255 -11.434290 4.279997
-11.65649 4.279997 -21.45135 0.8574781 0 0.5145205 255 255 255 255 -11.656490 4.279997
-11.65649 1.279997 -21.45135 0.8574781 0 0.5145205 255 255 255 255 -11.656490 1.279997
-11.65649 1.279997 -21.45135 0.8876963 0 0.4604297 255 255 255 255 -11.656490 1.279997
-11.65649 4.279997 -21.45135 0.8876963 0 0.4604297 255 255 255 255 -11.656490 4.279997
-11.856 4.279997 -21.0667 0.8876963 0 0.4604297 255 255 255 255 -11.856000 4.279997
-11.856 1.279997 -21.0667 0.8876963 0 0.4604297 255 255 255 255 -11.856000 1.279997
-11.856 1.279997 -21.0667 0.914666 0 0.4042106 255 255 255 255 -11.856000 1.279997
-11.856 4.279997 -21.0667 0.914666 0 0.4042106 255 255 255 255 -11.856000 4.279997
-12.03192 4.279997 -20.66862 0.914666 0 0.4042106 255 255 255 255 -12.031920 4.279997
-12.03192 1.279997 -20.66862 0.914666 0 0.4042106 255 255 255 255 -12.031920 1.279997
-12.03192 1.279997 -20.66862 0.938252 0 0.3459527 255 255 255 255 -12.031920 1.279997
-12.03192 4.279997 -20.66862 0.938252 0 0.3459527 255 255 255 255 -12.031920 4.279997
-12.18331 4.279997 -20.25804 0.938252 0 0.3459527 255 255 255 255 -12.183310 4.279997
-12.18331 1.279997 -20.25804 0.938252 0 0.3459527 255 255 255 255 -12.183310 1.279997
-12.18331 1.279997 -20.25804 0.9582654 0 0.2858803 255 255 255 255 -12.183310 1.279997
-12.18331 4.279997 -20.25804 0.9582653 0 0.2858802 255 255 255 255 -12.183310 4.279997
-12.30925 4.279997 -19.83589 0.9582654 0 0.2858803 255 255 255 255 -12.309250 4.279997
-12.30925 1.279997 -19.83589 0.9582653 0 0.2858802 255 255 255 255 -12.309250 1.279997
-12.30925 1.279997 -19.83589 0.9745423 0 0.2242037 255 255 255 255 -12.309250 1.279997
-12.30925 4.279997 -19.83589 0.9745423 0 0.2242037 255 255 255 255 -12.309250 4.279997
-12.40882 4.279998 -19.40309 0.9745423 0 0.2242037 255 255 255 255 -12.408820 4.279998
-12.40882 1.279997 -19.40309 0.9745423 0 0.2242038 255 255 255 255 -12.408820 1.279997
-12.40882 1.279997 -19.40309 0.9869293 0 0.161154 255 255 255 255 -12.408820 1.279997
-12.40882 4.279998 -19.40309 0.9869292 0 0.161154 255 255 255 255 -12.408820 4.279998
-12.48108 4.279998 -18.96056 0.9869293 0 0.161154 255 255 255 255 -12.481080 4.279998
-12.48108 1.279997 -18.96056 0.9869292 0 0.161154 255 255 255 255 -12.481080 1.279997
-12.48108 1.279997 -18.96056 0.9952732 0 0.09711435 255 255 255 255 -12.481080 1.279997
-12.48108 4.279998 -18.96056 0.9952732 0 0.09711435 255 255 255 255 -12.481080 4.279998
-12.52512 4.279998 -18.50922 0.9952732 0 0.09711435 255 255 255 255 -12.525120 4.279998
-12.52512 1.279997 -18.50922 0.9952732 0 0.09711435 255 255 255 255 -12.525120 1.279997
-12.52512 1.279997 -18.50922 0.9994758 0 0.03237496 255 255 255 255 -12.525120 1.279997
-12.52512 4.279998 -18.50922 0.9994757 0 0.03237495 255 255 255 255 -12.525120 4.279998
-12.54 4.279998 -18.04984 0.9994758 0 0.03237496 255 255 255 255 -12.540000 4.279998
-12.54 1.279997 -18.04984 0.9994757 0 0.03237495 255 255 255 255 -12.540000 1.279997
0 1.279996 -25.04 0 -1 0 255 255 255 255 0.000000 1.279996
-5.549839 1.279996 -25.04 0 -1 0 255 255 255 255 -5.549839 1.279996
-5.550163 1.279996 -25.06 0 -1 0 255 255 255 255 -5.550163 1.279996
0 1.279996 -25.05 0 -1 0 255 255 255 255 0.000000 1.279996
0 4.279997 -25.06 0 1 0 255 255 255 255 0.000000 4.279997
-5.550163 4.279997 -25.06 0 1 0 255 255 255 255 -5.550163 4.279997
-5.549839 4.279997 -25.04 0 1 0 255 255 255 255 -5.549839 4.279997
0 4.279997 -25.05 0 1 0 255 255 255 255 0.000000 4.279997
-6.009219 1.279996 -25.02512 0 -1 0 255 255 255 255 -6.009219 1.279996
-6.010515 1.279996 -25.04507 0 -1 0 255 255 255 255 -6.010515 1.279996
-6.009219 4.279997 -25.02512 0 1 0 255 255 255 255 -6.009219 4.279997
-6.010515 4.279997 -25.04507 0 1 0 255 255 255 255 -6.010515 4.279997
-6.460554 1.279996 -24.98108 0 -1 0 255 255 255 255 -6.460554 1.279996
-6.463139 1.279996 -25.00092 0 -1 0 255 255 255 255 -6.463139 1.279996
-6.460554 4.279997 -24.98108 0 1 0 255 255 255 255 -6.460554 4.279997
-6.463139 4.279997 -25.00092 0 1 0 255 255 255 255 -6.463139 4.279997
-6.903085 1.279996 -24.90882 0 -1 0 255 255 255 255 -6.903085 1.279996
-6.90694 1.279996 -24.92844 0 -1 0 255 255 255 255 -6.906940 1.279996
-6.903085 4.279997 -24.90882 0 1 0 255 255 255 255 -6.903085 4.279997
-6.90694 4.279997 -24.92844 0 1 0 255 255 255 255 -6.906940 4.279997
-7.335889 1.279996 -24.80926 0 -1 0 255 255 255 255 -7.335889 1.279996
-7.340992 1.279996 -24.8286 0 -1 0 255 255 255 255 -7.340992 1.279996
-7.335889 4.279997 -24.80926 0 1 0 255 255 255 255 -7.335889 4.279997
-7.340992 4.279997 -24.8286 0 1 0 255 255 255 255 -7.340992 4.279997
-7.758041 1.279996 -24.68332 0 -1 0 255 255 255 255 -7.758041 1.279996
-7.764363 1.279996 -24.70229 0 -1 0 255 255 255 255 -7.764363 1.279996
-7.758041 4.279997 -24.68332 0 1 0 255 255 255 255 -7.758041 4.279997
-7.764363 4.279997 -24.70229 0 1 0 255 255 255 255 -7.764363 4.279997
-8.168619 1.279996 -24.53192 0 -1 0 255 255 255 255 -8.168619 1.279996
-8.176124 1.279996 -24.55046 0 -1 0 255 255 255 255 -8.176124 1.279996
-8.168619 4.279997 -24.53192 0 1 0 255 255 255 255 -8.168619 4.279997
-8.176124 4.279997 -24.55046 0 1 0 255 255 255 255 -8.176124 4.279997
-8.566699 1.279996 -24.35601 0 -1 0 255 255 255 255 -8.566699 1.279996
-8.57535 1.279996 -24.37404 0 -1 0 255 255 255 255 -8.575350 1.279996
-8.566699 4.279997 -24.35601 0 1 0 255 255 255 255 -8.566699 4.279997
-8.57535 4.279997 -24.37404 0 1 0 255 255 255 255 -8.575350 4.279997
-8.951352 1.279996 -24.15649 0 -1 0 255 255 255 255 -8.951352 1.279996
-8.961107 1.279996 -24.17395 0 -1 0 255 255 255 255 -8.961107 1.279996
-8.951352 4.279997 -24.15649 0 1 0 255 255 255 255 -8.951352 4.279997
-8.961107 4.279997 -24.17395 0 1 0 255 255 255 255 -8.961107 4.279997
-9.321657 1.279996 -23.93428 0 -1 0 255 255 255 255 -9.321657 1.279996
-9.33247 1.279996 -23.95111 0 -1 0 255 255 255 255 -9.332470 1.279996
-9.321657 4.279997 -23.93428 0 1 0 255 255 255 255 -9.321657 4.279997
-9.33247 4.279997 -23.95111 0 1 0 255 255 255 255 -9.332470 4.279997
-9.67669 1.279996 -23.69034 0 -1 0 255 255 255 255 -9.676690 1.279996
-9.688516 1.279996 -23.70647 0 -1 0 255 255 255 255 -9.688516 1.279996
-9.67669 4.279997 -23.69034 0 1 0 255 255 255 255 -9.676690 4.279997
-9.688516 4.279997 -23.70647 0 1 0 255 255 255 255 -9.688516 4.279997
-10.01552 1.279996 -23.42556 0 -1 0 255 255 255 255 -10.015520 1.279996
-10.02831 1.279996 -23.44094 0 -1 0 255 255 255 255 -10.028310 1.279996
-10.01552 4.279997 -23.42556 0 1 0 255 255 255 255 -10.015520 4.279997
-10.02831 4.279997 -23.44094 0 1 0 255 255 255 255 -10.028310 4.279997
-10.33723 1.279996 -23.14088 0 -1 0 255 255 255 255 -10.337230 1.279996
-10.35093 1.279996 -23.15545 0 -1 0 255 255 255 255 -10.350930 1.279996
-10.33723 4.279997 -23.14088 0 1 0 255 255 255 255 -10.337230 4.279997
-10.35093 4.279997 -23.15545 0 1 0 255 255 255 255 -10.350930 4.279997
-10.33723 1.279996 -23.14088 -1.56805e-06 -1 1.568156e-06 255 255 255 255 -10.337230 1.279996
-10.64088 1.279997 -22.83723 -1.521931e-06 -1 1.618773e-06 255 255 255 255 -10.640880 1.279997
-10.65545 1.279997 -22.85093 -1.56805e-06 -1 1.568156e-06 255 255 255 255 -10.655450 1.279997
-10.35093 1.279996 -23.15545 -1.614035e-06 -1 1.517687e-06 255 255 255 255 -10.350930 1.279996
-10.64088 4.279997 -22.83723 0 1 0 255 255 255 255 -10.640880 4.279997
-10.65545 4.279997 -22.85093 0 1 0 255 255 255 255 -10.655450 4.279997
-10.64088 1.279997 -22.83723 0 -1 0 255 255 255 255 -10.640880 1.279997
-10.92556 1.279997 -22.51552 0 -1 0 255 255 255 255 -10.925560 1.279997
-10.94094 1.279997 -22.52831 0 -1 0 255 255 255 255 -10.940940 1.279997
-10.65545 1.279997 -22.85093 0 -1 0 255 255 255 255 -10.655450 1.279997
-10.92556 4.279997 -22.51552 0 1 0 255 255 255 255 -10.925560 4.279997
-10.94094 4.279997 -22.52831 0 1 0 255 255 255 255 -10.940940 4.279997
-11.19034 1.279997 -22.17669 0 -1 0 255 255 255 255 -11.190340 1.279997
-11.20647 1.279997 -22.18852 0 -1 0 255 255 255 255 -11.206470 1.279997
-11.19034 4.279997 -22.17669 0 1 0 255 255 255 255 -11.190340 4.279997
-11.20647 4.279997 -22.18852 0 1 0 255 255 255 255 -11.206470 4.279997
-11.43429 1.279997 -21.82166 0 -1 0 255 255 255 255 -11.434290 1.279997
-11.45111 1.279997 -21.83247 0 -1 0 255 255 255 255 -11.451110 1.279997
-11.43429 4.279997 -21.82166 0 1 0 255 255 255 255 -11.434290 4.279997
-11.45111 4.279997 -21.83247 0 1 0 255 255 255 255 -11.451110 4.279997
-11.65649 1.279997 -21.45135 0 -1 0 255 255 255 255 -11.656490 1.279997
-11.67394 1.279997 -21.46111 0 -1 0 255 255 255 255 -11.673940 1.279997
-11.65649 4.279997 -21.45135 0 1 0 255 255 255 255 -11.656490 4.279997
-11.67394 4.279997 -21.46111 0 1 0 255 255 255 255 -11.673940 4.279997
-11.856 1.279997 -21.0667 0 -1 0 255 255 255 255 -11.856000 1.279997
-11.87404 1.279997 -21.07535 0 -1 0 255 255 255 255 -11.874040 1.279997
-11.856 4.279997 -21.0667 0 1 0 255 255 255 255 -11.856000 4.279997
-11.87404 4.279997 -21.07535 0 1 0 255 255 255 255 -11.874040 4.279997
-12.03192 1.279997 -20.66862 0 -1 0 255 255 255 255 -12.031920 1.279997
-12.05046 1.279997 -20.67613 0 -1 0 255 255 255 255 -12.050460 1.279997
-12.03192 4.279997 -20.66862 0 1 0 255 255 255 255 -12.031920 4.279997
-12.05046 4.279997 -20.67613 0 1 0 255 255 255 255 -12.050460 4.279997
-12.18331 1.279997 -20.25804 0 -1 0 255 255 255 255 -12.183310 1.279997
-12.20229 1.279997 -20.26437 0 -1 0 255 255 255 255 -12.202290 1.279997
-12.18331 4.279997 -20.25804 0 1 0 255 255 255 255 -12.183310 4.279997
-12.20229 4.279997 -20.26437 0 1 0 255 255 255 255 -12.202290 4.279997
-12.30925 1.279997 -19.83589 0 -1 0 255 255 255 255 -12.309250 1.279997
-12.32859 1.279997 -19.84099 0 -1 0 255 255 255 255 -12.328590 1.279997
-12.30925 4.279997 -19.83589 0 1 0 255 255 255 255 -12.309250 4.279997
-12.32859 4.279997 -19.84099 0 1 0 255 255 255 255 -12.328590 4.279997
-12.40882 1.279997 -19.40309 0 -1 0 255 255 255 255 -12.408820 1.279997
-12.42844 1.279997 -19.40694 0 -1 0 255 255 255 255 -12.428440 1.279997
-12.40882 4.279998 -19.40309 5.478431e-07 1 -2.07746e-06 255 255 255 255 -12.408820 4.279998
-12.30925 4.279997 -19.83589 5.478431e-07 1 -2.07746e-06 255 255 255 255 -12.309250 4.279997
-12.32859 4.279997 -19.84099 5.478431e-07 1 -2.07746e-06 255 255 255 255 -12.328590 4.279997
-12.32859 4.279997 -19.84099 4.126198e-07 1 -2.102235e-06 255 255 255 255 -12.328590 4.279997
-12.42844 4.279998 -19.40694 4.126198e-07 1 -2.102235e-06 255 255 255 255 -12.428440 4.279998
-12.40882 4.279998 -19.40309 4.126198e-07 1 -2.102235e-06 255 255 255 255 -12.408820 4.279998
-12.48108 1.279997 -18.96056 0 -1 0 255 255 255 255 -12.481080 1.279997
-12.50091 1.279997 -18.96314 0 -1 0 255 255 255 255 -12.500910 1.279997
-12.48108 4.279998 -18.96056 0 1 0 255 255 255 255 -12.481080 4.279998
-12.40882 4.279998 -19.40309 0 1 0 255 255 255 255 -12.408820 4.279998
-12.42844 4.279998 -19.40694 0 1 0 255 255 255 255 -12.428440 4.279998
-12.50091 4.279998 -18.96314 0 1 0 255 255 255 255 -12.500910 4.279998
-12.52512 1.279997 -18.50922 0 -1 0 255 255 255 255 -12.525120 1.279997
-12.54508 1.279997 -18.51052 0 -1 0 255 255 255 255 -12.545080 1.279997
-12.52512 4.279998 -18.50922 0 1 0 255 255 255 255 -12.525120 4.279998
-12.54508 4.279998 -18.51052 0 1 0 255 255 255 255 -12.545080 4.279998
-12.54 1.279997 -18.04984 -2.657293e-09 -1 1.668525e-07 255 255 255 255 -12.540000 1.279997
-12.56 1.279997 -18.05016 -1.320401e-09 -1 1.668473e-07 255 255 255 255 -12.560000 1.279997
-12.54 4.279998 -18.04984 1.47857e-09 1 -1.86869e-07 255 255 255 255 -12.540000 4.279998
-12.56 4.279998 -18.05016 2.97595e-09 1 -1.868612e-07 255 255 255 255 -12.560000 4.279998
-12.56 4.280001 -0.647977 3.908991e-10 1 -4.940376e-08 255 255 255 255 -12.560000 4.280001
-12.54 4.280001 -0.647979 -5.017908e-12 1 -4.952262e-08 255 255 255 255 -12.540000 4.280001
-12.54 1.279997 -18.04984 1 0 0 255 255 255 255 -12.540000 1.279997
-12.54 4.279998 -18.04984 1 0 0 255 255 255 255 -12.540000 4.279998
-12.54 4.280001 -0.647979 1 0 0 255 255 255 255 -12.540000 4.280001
-12.54 1.28 -0.64798 1 0 0 255 255 255 255 -12.540000 1.280000
-12.54 1.28 -0.64798 -3.490828e-10 -1 4.41105e-08 255 255 255 255 -12.540000 1.280000
-12.56 1.28 -0.647978 4.348482e-12 -1 4.421642e-08 255 255 255 255 -12.560000 1.280000
-12.56 4.280001 1e-06 -1 0 0 255 255 255 255 -12.560000 4.280001
-12.56 2.779999 0 -1 0 0 255 255 255 255 -12.560000 2.779999
-12.54 1.28 0 1 0 0 255 255 255 255 -12.540000 1.280000
-12.54 2.779997 0 1 0 0 255 255 255 255 -12.540000 2.779997
-12.56 1.28 0 0 -1 0 255 255 255 255 -12.560000 1.280000
-12.55 1.28 0 0 -1 0 255 255 255 255 -12.550000 1.280000
-12.54 4.280001 1e-06 0 1 0 255 255 255 255 -12.540000 4.280001
-12.55 4.280001 1e-06 0 1 0 255 255 255 255 -12.550000 4.280001
0 1.279996 -25.06 0 -1 0 255 255 255 255 0.000000 1.279996
-5.549839 1.279996 -25.04 0 0 1 255 255 255 255 -5.549839 1.279996
0 1.279996 -25.04 0 0 1 255 255 255 255 0.000000 1.279996
0 4.279997 -25.06 0 0 -1 255 255 255 255 0.000000 4.279997
0 4.279997 -25.04 0 1 0 255 255 255 255 0.000000 4.279997
-12.54 4.280001 1e-06 1 0 0 255 255 255 255 -12.540000 4.280001
-12.56 1.28 0 -1 0 0 255 255 255 255 -12.560000 1.280000
-12.56 4.280001 1e-06 0 1 0 255 255 255 255 -12.560000 4.280001
-12.54 1.28 0 0 -1 0 255 255 255 255 -12.540000 1.280000
3 0 1 2 
3 0 2 3 
3 4 5 6 
3 6 7 4 
3 8 9 10 
3 10 11 8 
3 12 13 14 
3 14 15 12 
3 16 17 18 
3 18 19 16 
3 20 21 22 
3 22 23 20 
3 24 25 26 
3 26 27 24 
3 28 29 30 
3 30 31 28 
3 32 33 34 
3 34 35 32 
3 36 37 38 
3 38 39 36 
3 40 41 42 
3 42 43 40 
3 44 45 46 
3 46 47 44 
3 48 49 50 
3 50 51 48 
3 52 53 54 
3 54 55 52 
3 56 57 58 
3 58 59 56 
3 60 61 62 
3 62 63 60 
3 64 65 66 
3 66 67 64 
3 68 69 70 
3 70 71 68 
3 72 73 74 
3 74 75 72 
3 76 77 78 
3 78 79 76 
3 80 81 82 
3 82 83 80 
3 84 85 86 
3 86 87 84 
3 88 89 90 
3 90 91 88 
3 92 93 94 
3 94 95 92 
3 96 97 98 
3 98 99 96 
3 100 101 102 
3 102 103 100 
3 104 105 106 
3 106 107 104 
3 108 109 110 
3 111 112 113 
3 113 114 111 
3 115 116 117 
3 117 118 115 
3 119 120 121 
3 121 122 119 
3 123 124 125 
3 125 126 123 
3 127 128 129 
3 129 130 127 
3 131 132 133 
3 133 134 131 
3 135 136 137 
3 137 138 135 
3 139 140 141 
3 141 142 139 
3 143 144 145 
3 145 146 143 
3 147 148 149 
3 149 150 147 
3 151 152 153 
3 153 154 151 
3 155 156 157 
3 157 158 155 
3 159 160 161 
3 161 162 159 
3 163 164 165 
3 165 166 163 
3 167 168 169 
3 169 170 167 
3 171 172 173 
3 173 174 171 
3 175 176 177 
3 177 178 175 
3 179 180 181 
3 181 182 179 
3 183 184 185 
3 185 186 183 
3 187 188 189 
3 189 190 187 
3 191 192 193 
3 193 194 191 
3 195 196 197 
3 197 198 195 
3 199 200 201 
3 201 202 199 
3 203 204 205 
3 205 206 203 
3 207 208 209 
3 209 210 207 
3 211 212 213 
3 211 213 214 
3 215 216 217 
3 215 217 218 
3 212 219 220 
3 220 213 212 
3 221 217 216 
3 216 222 221 
3 219 223 224 
3 224 220 219 
3 225 221 222 
3 222 226 225 
3 223 227 228 
3 228 224 223 
3 229 225 226 
3 226 230 229 
3 227 231 232 
3 232 228 227 
3 233 229 230 
3 230 234 233 
3 231 235 236 
3 236 232 231 
3 237 233 234 
3 234 238 237 
3 235 239 240 
3 240 236 235 
3 241 237 238 
3 238 242 241 
3 239 243 244 
3 244 240 239 
3 245 241 242 
3 242 246 245 
3 243 247 248 
3 248 244 243 
3 249 245 246 
3 246 250 249 
3 247 251 252 
3 252 248 247 
3 253 249 250 
3 250 254 253 
3 251 255 256 
3 256 252 251 
3 257 253 254 
3 254 258 257 
3 255 259 260 
3 260 256 255 
3 261 257 258 
3 258 262 261 
3 259 263 264 
3 264 260 259 
3 265 261 262 
3 262 266 265 
3 267 268 269 
3 269 270 267 
3 271 265 266 
3 266 272 271 
3 273 274 275 
3 275 276 273 
3 277 271 272 
3 272 278 277 
3 274 279 280 
3 280 275 274 
3 281 277 278 
3 278 282 281 
3 279 283 284 
3 284 280 279 
3 285 281 282 
3 282 286 285 
3 283 287 288 
3 288 284 283 
3 289 285 286 
3 286 290 289 
3 287 291 292 
3 292 288 287 
3 293 289 290 
3 290 294 293 
3 291 295 296 
3 296 292 291 
3 297 293 294 
3 294 298 297 
3 295 299 300 
3 300 296 295 
3 301 297 298 
3 298 302 301 
3 299 303 304 
3 304 300 299 
3 305 301 302 
3 302 306 305 
3 303 307 308 
3 308 304 303 
3 309 310 311 
3 312 313 314 
3 307 315 316 
3 316 308 307 
3 317 318 319 
3 319 320 317 
3 315 321 322 
3 322 316 315 
3 323 317 320 
3 320 324 323 
3 321 325 326 
3 326 322 321 
3 327 323 324 
3 324 328 327 
3 329 330 327 
3 327 328 329 
3 331 332 333 
3 333 334 331 
3 326 325 335 
3 335 336 326 
3 337 105 104 
3 337 104 338 
3 339 334 333 
3 339 333 340 
3 341 336 335 
3 341 335 342 
3 343 330 329 
3 343 329 344 
3 213 345 214 
3 110 346 347 
3 110 347 108 
3 2 348 3 
3 217 349 218 
3 333 350 340 
3 104 351 338 
3 329 352 344 
3 335 353 342 
