ply
format ascii 1.0
comment VCGLIB generated
comment TextureFile Snow_002_COLOR.jpg
element vertex 14
property float x
property float y
property float z
property float nx
property float ny
property float nz
property uchar red
property uchar green
property uchar blue
property uchar alpha
property float texture_u
property float texture_v
element face 12
property list uchar int vertex_indices
end_header
10 -0.15 -10 0.3333333 -0.6666667 -0.6666667 187 187 187 255 0.625000 0.500000
10 0.15 -10 0.8164966 0.4082483 -0.4082483 169 169 169 255 0.375000 0.500000
10 -0.15 10 0.8164966 -0.4082483 0.4082483 135 135 135 255 0.625000 0.750000
10 0.15 10 0.3333333 0.6666667 0.6666667 169 169 169 255 0.375000 0.750000
-10 -0.15 -10 -0.8164966 -0.4082483 -0.4082483 173 173 173 255 0.875000 0.500000
-10 0.15 -10 -0.3333333 0.6666667 -0.6666667 186 186 186 255 0.375000 0.250000
-10 -0.15 10 -0.3333333 -0.6666667 0.6666667 177 177 177 255 0.875000 0.750000
-10 0.15 10 -0.8164966 0.4082483 0.4082483 173 173 173 255 0.375000 1.000000
-10 -0.15 10 -0.3333333 -0.6666667 0.6666667 154 154 154 255 0.625000 1.000000
-10 0.15 10 -0.8164966 0.4082483 0.4082483 173 173 173 255 0.375000 0.000000
-10 -0.15 -10 -0.8164966 -0.4082483 -0.4082483 180 180 180 255 0.625000 0.250000
-10 -0.15 10 -0.3333333 -0.6666667 0.6666667 154 154 154 255 0.625000 0.000000
-10 0.15 -10 -0.3333333 0.6666667 -0.6666667 187 187 187 255 0.125000 0.500000
-10 0.15 10 -0.8164966 0.4082483 0.4082483 167 167 167 255 0.125000 0.750000
3 0 2 6 
3 0 6 4 
3 3 7 8 
3 3 8 2 
3 9 5 10 
3 9 10 11 
3 12 13 3 
3 12 3 1 
3 1 3 2 
3 1 2 0 
3 5 1 0 
3 5 0 10 
