ply
format ascii 1.0
comment VCGLIB generated
element vertex 128
property float x
property float y
property float z
property float nx
property float ny
property float nz
property uchar red
property uchar green
property uchar blue
property uchar alpha
property float texture_u
property float texture_v
element face 62
property list uchar int vertex_indices
end_header
0 1 -1 0.08775491 0.8909765 0.4454883 255 255 255 255 0.250000 0.490000
0 0 1 0.08775491 0.8909765 0.4454883 255 255 255 255 0.250000 0.250000
0.19509 0.980785 -1 0.08775491 0.8909765 0.4454883 255 255 255 255 0.296822 0.485388
0.19509 0.980785 -1 0.2598854 0.8567378 0.4454884 255 255 255 255 0.296822 0.485388
0 0 1 0.2598854 0.8567378 0.4454884 255 255 255 255 0.250000 0.250000
0.382683 0.92388 -1 0.2598854 0.8567378 0.4454884 255 255 255 255 0.341844 0.471731
0.382683 0.92388 -1 0.4220355 0.7895734 0.4454885 255 255 255 255 0.341844 0.471731
0 0 1 0.4220355 0.7895734 0.4454885 255 255 255 255 0.250000 0.250000
0.55557 0.83147 -1 0.4220355 0.7895734 0.4454885 255 255 255 255 0.383337 0.449553
0.55557 0.83147 -1 0.567964 0.6920672 0.4454885 255 255 255 255 0.383337 0.449553
0 0 1 0.567964 0.6920672 0.4454885 255 255 255 255 0.250000 0.250000
0.707107 0.707107 -1 0.567964 0.6920672 0.4454885 255 255 255 255 0.419706 0.419706
0.707107 0.707107 -1 0.6920672 0.567964 0.4454885 255 255 255 255 0.419706 0.419706
0 0 1 0.6920672 0.567964 0.4454885 255 255 255 255 0.250000 0.250000
0.83147 0.55557 -1 0.6920672 0.567964 0.4454885 255 255 255 255 0.449553 0.383337
0.83147 0.55557 -1 0.7895734 0.4220355 0.4454885 255 255 255 255 0.449553 0.383337
0 0 1 0.7895734 0.4220355 0.4454885 255 255 255 255 0.250000 0.250000
0.92388 0.382683 -1 0.7895734 0.4220355 0.4454885 255 255 255 255 0.471731 0.341844
0.92388 0.382683 -1 0.8567378 0.2598854 0.4454883 255 255 255 255 0.471731 0.341844
0 0 1 0.8567378 0.2598854 0.4454883 255 255 255 255 0.250000 0.250000
0.980785 0.19509 -1 0.8567378 0.2598854 0.4454883 255 255 255 255 0.485388 0.296822
0.980785 0.19509 -1 0.8909765 0.08775491 0.4454883 255 255 255 255 0.485388 0.296822
0 0 1 0.8909765 0.08775491 0.4454883 255 255 255 255 0.250000 0.250000
1 -0 -1 0.8909765 0.08775491 0.4454883 255 255 255 255 0.490000 0.250000
1 -0 -1 0.8909765 -0.08775491 0.4454883 255 255 255 255 0.490000 0.250000
0 0 1 0.8909765 -0.08775491 0.4454883 255 255 255 255 0.250000 0.250000
0.980785 -0.19509 -1 0.8909765 -0.08775491 0.4454883 255 255 255 255 0.485388 0.203178
0.980785 -0.19509 -1 0.8567378 -0.2598854 0.4454884 255 255 255 255 0.485388 0.203178
0 0 1 0.8567378 -0.2598854 0.4454884 255 255 255 255 0.250000 0.250000
0.92388 -0.382683 -1 0.8567378 -0.2598854 0.4454884 255 255 255 255 0.471731 0.158156
0.92388 -0.382683 -1 0.7895734 -0.4220355 0.4454885 255 255 255 255 0.471731 0.158156
0 0 1 0.7895734 -0.4220355 0.4454885 255 255 255 255 0.250000 0.250000
0.83147 -0.55557 -1 0.7895734 -0.4220355 0.4454885 255 255 255 255 0.449553 0.116663
0.83147 -0.55557 -1 0.6920672 -0.567964 0.4454885 255 255 255 255 0.449553 0.116663
0 0 1 0.6920672 -0.567964 0.4454885 255 255 255 255 0.250000 0.250000
0.707107 -0.707107 -1 0.6920672 -0.567964 0.4454885 255 255 255 255 0.419706 0.080294
0.707107 -0.707107 -1 0.567964 -0.6920672 0.4454885 255 255 255 255 0.419706 0.080294
0 0 1 0.567964 -0.6920672 0.4454885 255 255 255 255 0.250000 0.250000
0.55557 -0.83147 -1 0.567964 -0.6920672 0.4454885 255 255 255 255 0.383337 0.050447
0.55557 -0.83147 -1 0.4220355 -0.7895734 0.4454885 255 255 255 255 0.383337 0.050447
0 0 1 0.4220355 -0.7895734 0.4454885 255 255 255 255 0.250000 0.250000
0.382683 -0.92388 -1 0.4220355 -0.7895734 0.4454885 255 255 255 255 0.341844 0.028269
0.382683 -0.92388 -1 0.2598854 -0.8567378 0.4454883 255 255 255 255 0.341844 0.028269
0 0 1 0.2598854 -0.8567378 0.4454883 255 255 255 255 0.250000 0.250000
0.19509 -0.980785 -1 0.2598854 -0.8567378 0.4454883 255 255 255 255 0.296822 0.014612
0.19509 -0.980785 -1 0.08775491 -0.8909765 0.4454883 255 255 255 255 0.296822 0.014612
0 0 1 0.08775491 -0.8909765 0.4454883 255 255 255 255 0.250000 0.250000
-0 -1 -1 0.08775491 -0.8909765 0.4454883 255 255 255 255 0.250000 0.010000
-0 -1 -1 -0.08775491 -0.8909765 0.4454883 255 255 255 255 0.250000 0.010000
0 0 1 -0.08775491 -0.8909765 0.4454883 255 255 255 255 0.250000 0.250000
-0.19509 -0.980785 -1 -0.08775491 -0.8909765 0.4454883 255 255 255 255 0.203178 0.014612
-0.19509 -0.980785 -1 -0.2598854 -0.8567378 0.4454884 255 255 255 255 0.203178 0.014612
0 0 1 -0.2598854 -0.8567378 0.4454884 255 255 255 255 0.250000 0.250000
-0.382683 -0.92388 -1 -0.2598854 -0.8567378 0.4454884 255 255 255 255 0.158156 0.028269
-0.382683 -0.92388 -1 -0.4220355 -0.7895734 0.4454885 255 255 255 255 0.158156 0.028269
0 0 1 -0.4220355 -0.7895734 0.4454885 255 255 255 255 0.250000 0.250000
-0.55557 -0.83147 -1 -0.4220355 -0.7895734 0.4454885 255 255 255 255 0.116663 0.050447
-0.55557 -0.83147 -1 -0.567964 -0.6920672 0.4454885 255 255 255 255 0.116663 0.050447
0 0 1 -0.567964 -0.6920672 0.4454885 255 255 255 255 0.250000 0.250000
-0.707107 -0.707107 -1 -0.567964 -0.6920672 0.4454885 255 255 255 255 0.080294 0.080294
-0.707107 -0.707107 -1 -0.6920695 -0.5679612 0.4454883 255 255 255 255 0.080294 0.080294
0 0 1 -0.6920695 -0.5679612 0.4454883 255 255 255 255 0.250000 0.250000
-0.831469 -0.55557 -1 -0.6920695 -0.5679612 0.4454883 255 255 255 255 0.050447 0.116663
-0.831469 -0.55557 -1 -0.7895705 -0.422041 0.4454883 255 255 255 255 0.050447 0.116663
0 0 1 -0.7895705 -0.422041 0.4454883 255 255 255 255 0.250000 0.250000
-0.92388 -0.382684 -1 -0.7895705 -0.422041 0.4454883 255 255 255 255 0.028269 0.158156
-0.92388 -0.382684 -1 -0.8567382 -0.2598842 0.4454884 255 255 255 255 0.028269 0.158156
0 0 1 -0.8567382 -0.2598842 0.4454884 255 255 255 255 0.250000 0.250000
-0.980785 -0.19509 -1 -0.8567382 -0.2598842 0.4454884 255 255 255 255 0.014612 0.203178
-0.980785 -0.19509 -1 -0.8909765 -0.08775491 0.4454883 255 255 255 255 0.014612 0.203178
0 0 1 -0.8909765 -0.08775491 0.4454883 255 255 255 255 0.250000 0.250000
-1 0 -1 -0.8909765 -0.08775491 0.4454883 255 255 255 255 0.010000 0.250000
-1 0 -1 -0.8909765 0.08775491 0.4454883 255 255 255 255 0.010000 0.250000
0 0 1 -0.8909765 0.08775491 0.4454883 255 255 255 255 0.250000 0.250000
-0.980785 0.19509 -1 -0.8909765 0.08775491 0.4454883 255 255 255 255 0.014612 0.296822
-0.980785 0.19509 -1 -0.8567371 0.2598882 0.4454882 255 255 255 255 0.014612 0.296822
0 0 1 -0.8567371 0.2598882 0.4454882 255 255 255 255 0.250000 0.250000
-0.923879 0.382684 -1 -0.8567371 0.2598882 0.4454882 255 255 255 255 0.028269 0.341844
-0.923879 0.382684 -1 -0.7895742 0.422034 0.4454883 255 255 255 255 0.028269 0.341844
0 0 1 -0.7895742 0.422034 0.4454883 255 255 255 255 0.250000 0.250000
-0.83147 0.55557 -1 -0.7895742 0.422034 0.4454883 255 255 255 255 0.050447 0.383337
-0.83147 0.55557 -1 -0.6920672 0.567964 0.4454885 255 255 255 255 0.050447 0.383337
0 0 1 -0.6920672 0.567964 0.4454885 255 255 255 255 0.250000 0.250000
-0.707107 0.707107 -1 -0.6920672 0.567964 0.4454885 255 255 255 255 0.080294 0.419706
-0.707107 0.707107 -1 -0.567964 0.6920672 0.4454885 255 255 255 255 0.080294 0.419706
0 0 1 -0.567964 0.6920672 0.4454885 255 255 255 255 0.250000 0.250000
-0.55557 0.83147 -1 -0.567964 0.6920672 0.4454885 255 255 255 255 0.116663 0.449553
-0.55557 0.83147 -1 -0.4220355 0.7895734 0.4454885 255 255 255 255 0.116663 0.449553
0 0 1 -0.4220355 0.7895734 0.4454885 255 255 255 255 0.250000 0.250000
-0.382683 0.92388 -1 -0.4220355 0.7895734 0.4454885 255 255 255 255 0.158156 0.471731
0 1 -1 0 0 -1 255 255 255 255 0.750000 0.490000
0.19509 0.980785 -1 0 0 -1 255 255 255 255 0.796822 0.485388
0.382683 0.92388 -1 0 0 -1 255 255 255 255 0.841844 0.471731
0.55557 0.83147 -1 0 0 -1 255 255 255 255 0.883337 0.449553
0.707107 0.707107 -1 0 0 -1 255 255 255 255 0.919706 0.419706
0.83147 0.55557 -1 0 0 -1 255 255 255 255 0.949553 0.383337
0.92388 0.382683 -1 0 0 -1 255 255 255 255 0.971731 0.341844
0.980785 0.19509 -1 0 0 -1 255 255 255 255 0.985388 0.296822
1 -0 -1 0 0 -1 255 255 255 255 0.990000 0.250000
0.980785 -0.19509 -1 0 0 -1 255 255 255 255 0.985388 0.203178
0.92388 -0.382683 -1 0 0 -1 255 255 255 255 0.971731 0.158156
0.83147 -0.55557 -1 0 0 -1 255 255 255 255 0.949553 0.116663
0.707107 -0.707107 -1 0 0 -1 255 255 255 255 0.919706 0.080294
0.55557 -0.83147 -1 0 0 -1 255 255 255 255 0.883337 0.050447
0.382683 -0.92388 -1 0 0 -1 255 255 255 255 0.841844 0.028269
0.19509 -0.980785 -1 0 0 -1 255 255 255 255 0.796822 0.014612
-0 -1 -1 0 0 -1 255 255 255 255 0.750000 0.010000
-0.19509 -0.980785 -1 0 0 -1 255 255 255 255 0.703178 0.014612
-0.382683 -0.92388 -1 0 0 -1 255 255 255 255 0.658156 0.028269
-0.55557 -0.83147 -1 0 0 -1 255 255 255 255 0.616663 0.050447
-0.707107 -0.707107 -1 0 0 -1 255 255 255 255 0.580294 0.080294
-0.831469 -0.55557 -1 0 0 -1 255 255 255 255 0.550447 0.116663
-0.92388 -0.382684 -1 0 0 -1 255 255 255 255 0.528269 0.158156
-0.980785 -0.19509 -1 0 0 -1 255 255 255 255 0.514612 0.203178
-1 0 -1 0 0 -1 255 255 255 255 0.510000 0.250000
-0.980785 0.19509 -1 0 0 -1 255 255 255 255 0.514612 0.296822
-0.923879 0.382684 -1 0 0 -1 255 255 255 255 0.528269 0.341844
-0.83147 0.55557 -1 0 0 -1 255 255 255 255 0.550447 0.383337
-0.707107 0.707107 -1 0 0 -1 255 255 255 255 0.580294 0.419706
-0.55557 0.83147 -1 0 0 -1 255 255 255 255 0.616663 0.449553
-0.382683 0.92388 -1 0 0 -1 255 255 255 255 0.658156 0.471731
-0.19509 0.980785 -1 0 0 -1 255 255 255 255 0.703178 0.485388
-0.382683 0.92388 -1 -0.2598854 0.8567378 0.4454883 255 255 255 255 0.158156 0.471731
0 0 1 -0.2598854 0.8567378 0.4454883 255 255 255 255 0.250000 0.250000
-0.19509 0.980785 -1 -0.2598854 0.8567378 0.4454883 255 255 255 255 0.203178 0.485388
-0.19509 0.980785 -1 -0.08775491 0.8909765 0.4454883 255 255 255 255 0.203178 0.485388
0 0 1 -0.08775491 0.8909765 0.4454883 255 255 255 255 0.250000 0.250000
0 1 -1 -0.08775491 0.8909765 0.4454883 255 255 255 255 0.250000 0.490000
3 0 1 2 
3 3 4 5 
3 6 7 8 
3 9 10 11 
3 12 13 14 
3 15 16 17 
3 18 19 20 
3 21 22 23 
3 24 25 26 
3 27 28 29 
3 30 31 32 
3 33 34 35 
3 36 37 38 
3 39 40 41 
3 42 43 44 
3 45 46 47 
3 48 49 50 
3 51 52 53 
3 54 55 56 
3 57 58 59 
3 60 61 62 
3 63 64 65 
3 66 67 68 
3 69 70 71 
3 72 73 74 
3 75 76 77 
3 78 79 80 
3 81 82 83 
3 84 85 86 
3 87 88 89 
3 90 91 92 
3 90 92 93 
3 90 93 94 
3 90 94 95 
3 90 95 96 
3 90 96 97 
3 90 97 98 
3 90 98 99 
3 90 99 100 
3 90 100 101 
3 90 101 102 
3 90 102 103 
3 90 103 104 
3 90 104 105 
3 90 105 106 
3 90 106 107 
3 90 107 108 
3 90 108 109 
3 90 109 110 
3 90 110 111 
3 90 111 112 
3 90 112 113 
3 90 113 114 
3 90 114 115 
3 90 115 116 
3 90 116 117 
3 90 117 118 
3 90 118 119 
3 90 119 120 
3 90 120 121 
3 122 123 124 
3 125 126 127 
