ply
format ascii 1.0
comment VCGLIB generated
element vertex 98
property float x
property float y
property float z
property float nx
property float ny
property float nz
element face 192
property list uchar int vertex_indices
end_header
-0.098146 2.000002 1.904104 -1.570796 1.570796 1.570796 
-0.098146 2.000002 -0.095896 -1.570796 1.570796 -1.570796 
-0.098146 2e-06 -0.095896 -1.570796 -1.570796 -1.570796 
-0.098146 2e-06 1.904104 -1.570796 -1.570796 1.570796 
1.901854 2.000002 -0.095896 1.570796 1.570796 -1.570796 
1.901854 2e-06 -0.095896 1.570796 -1.570796 -1.570796 
1.901854 2.000002 1.904104 1.570796 1.570796 1.570796 
1.901854 2e-06 1.904104 1.570796 -1.570796 1.570796 
0.901854 2e-06 -0.095896 0 -3.141593 -3.141593 
1.901854 1.000002 -0.095896 3.141593 0 -3.141593 
0.901854 2e-06 1.904104 0 -3.141593 3.141593 
0.901854 2.000002 1.904104 0 3.141593 3.141593 
1.901854 1.000002 1.904104 3.141593 0 3.141593 
1.901854 2.000002 0.904104 3.141593 3.141593 0 
0.901854 2.000002 -0.095896 0 3.141593 -3.141593 
-0.098146 2.000002 0.904104 -3.141593 3.141593 0 
1.901854 2e-06 0.904104 3.141593 -3.141593 0 
-0.098146 1.000002 -0.095896 -3.141593 0 -3.141593 
-0.098146 2e-06 0.904104 -3.141593 -3.141593 0 
-0.098146 1.000002 1.904104 -3.141593 0 3.141593 
0.901854 2.000002 0.904104 0 6.283185 0 
0.901854 2e-06 0.904104 0 -6.283185 0 
0.901854 1.000002 1.904104 0 0 6.283185 
1.901854 1.000002 0.904104 6.283185 0 0 
0.901854 1.000002 -0.095896 0 0 -6.283185 
-0.098146 1.000002 0.904104 -6.283185 0 0 
1.401854 2e-06 -0.095896 0 -3.141593 -3.141593 
1.901854 0.500002 -0.095896 3.141593 0 -3.141593 
1.401854 2e-06 1.904104 0 -3.141593 3.141593 
1.401854 2.000002 1.904104 0 3.141593 3.141593 
1.901854 0.500002 1.904104 3.141593 0 3.141593 
1.901854 2.000002 1.404104 3.141593 3.141593 0 
1.401854 2.000002 -0.095896 0 3.141593 -3.141593 
-0.098146 2.000002 0.404104 -3.141593 3.141593 0 
1.901854 2e-06 1.404104 3.141593 -3.141593 0 
-0.098146 0.500002 -0.095896 -3.141593 0 -3.141593 
-0.098146 2e-06 1.404104 -3.141593 -3.141593 0 
-0.098146 0.500002 1.904104 -3.141593 0 3.141593 
0.401854 2e-06 -0.095896 0 -3.141593 -3.141593 
1.901854 1.500002 -0.095896 3.141593 0 -3.141593 
0.401854 2e-06 1.904104 0 -3.141593 3.141593 
0.401854 2.000002 1.904104 0 3.141593 3.141593 
1.901854 1.500002 1.904104 3.141593 0 3.141593 
1.901854 2.000002 0.404104 3.141593 3.141593 0 
0.401854 2.000002 -0.095896 0 3.141593 -3.141593 
-0.098146 2.000002 1.404104 -3.141593 3.141593 0 
1.901854 2e-06 0.404104 3.141593 -3.141593 0 
-0.098146 1.500002 -0.095896 -3.141593 0 -3.141593 
-0.098146 2e-06 0.404104 -3.141593 -3.141593 0 
-0.098146 1.500002 1.904104 -3.141593 0 3.141593 
0.401854 2.000002 0.904104 0 6.283185 0 
1.401854 2.000002 0.904104 0 6.283185 0 
0.901854 2.000002 1.404104 0 6.283185 0 
0.901854 2.000002 0.404104 0 6.283185 0 
1.401854 2e-06 0.904104 0 -6.283185 0 
0.401854 2e-06 0.904104 0 -6.283185 0 
0.901854 2e-06 1.404104 0 -6.283185 0 
0.901854 2e-06 0.404104 0 -6.283185 0 
0.901854 0.500002 1.904104 0 0 6.283185 
0.901854 1.500002 1.904104 0 0 6.283185 
1.401854 1.000002 1.904104 0 0 6.283185 
0.401854 1.000002 1.904104 0 0 6.283185 
1.901854 0.500002 0.904104 6.283185 0 0 
1.901854 1.500002 0.904104 6.283185 0 0 
1.901854 1.000002 0.404104 6.283185 0 0 
1.901854 1.000002 1.404104 6.283185 0 0 
0.901854 0.500002 -0.095896 0 0 -6.283185 
0.901854 1.500002 -0.095896 0 0 -6.283185 
0.401854 1.000002 -0.095896 0 0 -6.283185 
1.401854 1.000002 -0.095896 0 0 -6.283185 
-0.098146 0.500002 0.904104 -6.283185 0 0 
-0.098146 1.500002 0.904104 -6.283185 0 0 
-0.098146 1.000002 1.404104 -6.283185 0 0 
-0.098146 1.000002 0.404104 -6.283185 0 0 
-0.098146 0.500002 0.404104 -6.283185 0 0 
1.401854 0.500002 -0.095896 0 0 -6.283185 
1.901854 0.500002 1.404104 6.283185 0 0 
0.401854 0.500002 1.904104 0 0 6.283185 
1.401854 2e-06 0.404104 0 -6.283185 0 
0.401854 2.000002 0.404104 0 6.283185 0 
0.401854 2.000002 1.404104 0 6.283185 0 
1.401854 2.000002 1.404104 0 6.283186 0 
1.401854 2.000002 0.404104 0 6.283186 0 
1.401854 2e-06 1.404104 0 -6.283185 0 
0.401854 2e-06 1.404104 0 -6.283185 0 
0.401854 2e-06 0.404104 0 -6.283185 0 
1.401854 0.500002 1.904104 0 0 6.283185 
1.401854 1.500002 1.904104 0 0 6.283185 
0.401854 1.500002 1.904104 0 0 6.283185 
1.901854 0.500002 0.404104 6.283185 0 0 
1.901854 1.500002 0.404104 6.283185 0 0 
1.901854 1.500002 1.404104 6.283185 0 0 
0.401854 0.500002 -0.095896 0 0 -6.283185 
0.401854 1.500002 -0.095896 0 0 -6.283185 
1.401854 1.500002 -0.095896 0 0 -6.283185 
-0.098146 0.500002 1.404104 -6.283185 0 0 
-0.098146 1.500002 1.404104 -6.283185 0 0 
-0.098146 1.500002 0.404104 -6.283185 0 0 
3 17 35 73 
3 9 75 69 
3 12 76 65 
3 19 77 61 
3 8 78 57 
3 14 79 53 
3 20 80 52 
3 13 81 31 
3 4 82 43 
3 21 83 56 
3 18 84 36 
3 2 85 48 
3 22 86 60 
3 11 87 29 
3 0 88 41 
3 23 89 64 
3 13 90 43 
3 6 91 31 
3 24 92 68 
3 14 93 44 
3 4 94 32 
3 25 95 72 
3 15 96 45 
3 1 97 33 
3 9 27 75 
3 12 30 76 
3 19 37 77 
3 8 26 78 
3 14 44 79 
3 20 50 80 
3 13 51 81 
3 4 32 82 
3 21 54 83 
3 18 55 84 
3 2 38 85 
3 22 58 86 
3 11 59 87 
3 0 49 88 
3 23 62 89 
3 13 63 90 
3 6 42 91 
3 24 66 92 
3 14 67 93 
3 4 39 94 
3 25 70 95 
3 15 71 96 
3 1 47 97 
3 97 73 25 
3 97 47 73 
3 47 17 73 
3 96 72 19 
3 96 71 72 
3 71 25 72 
3 95 36 3 
3 95 70 36 
3 70 18 36 
3 94 69 24 
3 94 39 69 
3 39 9 69 
3 93 68 17 
3 93 67 68 
3 67 24 68 
3 92 38 2 
3 92 66 38 
3 66 8 38 
3 91 65 23 
3 91 42 65 
3 42 12 65 
3 90 64 9 
3 90 63 64 
3 63 23 64 
3 89 46 5 
3 89 62 46 
3 62 16 46 
3 88 61 22 
3 88 49 61 
3 49 19 61 
3 87 60 12 
3 87 59 60 
3 59 22 60 
3 86 28 7 
3 86 58 28 
3 58 10 28 
3 85 57 21 
3 85 38 57 
3 38 8 57 
3 84 56 10 
3 84 55 56 
3 55 21 56 
3 83 34 7 
3 83 54 34 
3 54 16 34 
3 82 53 20 
3 82 32 53 
3 32 14 53 
3 81 52 11 
3 81 51 52 
3 51 20 52 
3 80 45 0 
3 80 50 45 
3 50 15 45 
3 79 33 15 
3 79 44 33 
3 44 1 33 
3 78 46 16 
3 78 26 46 
3 26 5 46 
3 77 40 10 
3 77 37 40 
3 37 3 40 
3 76 34 16 
3 76 30 34 
3 30 7 34 
3 75 26 8 
3 75 27 26 
3 27 5 26 
3 74 48 18 
3 74 35 48 
3 35 2 48 
3 33 71 15 
3 33 97 71 
3 97 25 71 
3 45 49 0 
3 45 96 49 
3 96 19 49 
3 72 37 19 
3 72 95 37 
3 95 3 37 
3 32 67 14 
3 32 94 67 
3 94 24 67 
3 44 47 1 
3 44 93 47 
3 93 17 47 
3 68 35 17 
3 68 92 35 
3 92 2 35 
3 31 63 13 
3 31 91 63 
3 91 23 63 
3 43 39 4 
3 43 90 39 
3 90 9 39 
3 64 27 9 
3 64 89 27 
3 89 5 27 
3 41 59 11 
3 41 88 59 
3 88 22 59 
3 29 42 6 
3 29 87 42 
3 87 12 42 
3 60 30 12 
3 60 86 30 
3 86 7 30 
3 48 55 18 
3 48 85 55 
3 85 21 55 
3 36 40 3 
3 36 84 40 
3 84 10 40 
3 56 28 10 
3 56 83 28 
3 83 7 28 
3 43 51 13 
3 43 82 51 
3 82 20 51 
3 31 29 6 
3 31 81 29 
3 81 11 29 
3 52 41 11 
3 52 80 41 
3 80 0 41 
3 53 50 20 
3 53 79 50 
3 79 15 50 
3 57 54 21 
3 57 78 54 
3 78 16 54 
3 61 58 22 
3 61 77 58 
3 77 10 58 
3 65 62 23 
3 65 76 62 
3 76 16 62 
3 69 66 24 
3 69 75 66 
3 75 8 66 
3 73 70 25 
3 73 74 70 
3 74 18 70 
3 35 74 73 
