ply
format ascii 1.0
comment VCGLIB generated
comment TextureFile ice.bmp
element vertex 208
property float x
property float y
property float z
property float nx
property float ny
property float nz
property uchar red
property uchar green
property uchar blue
property uchar alpha
property float texture_u
property float texture_v
element face 412
property list uchar int vertex_indices
end_header
12.5 0.089997 -18 0.7106234 -0.7034783 -0.01151466 248 248 248 255 0.999501 0.859640
12.4851 0.089997 -18.45987 0.7127583 -0.6998817 -0.04627436 248 248 248 255 0.998905 0.868828
12.441 0.089997 -18.91185 0.7082455 -0.6999094 -0.09227782 248 248 248 255 0.997143 0.877859
12.36863 0.089997 -19.35501 0.7007979 -0.6999483 -0.1376762 248 248 248 255 0.994251 0.886713
12.26892 0.089996 -19.78844 0.6905061 -0.6999971 -0.1822232 248 248 248 255 0.990267 0.895373
12.1428 0.089996 -20.2112 0.6774858 -0.7000488 -0.2257094 248 248 248 255 0.985227 0.903820
11.99119 0.089996 -20.62237 0.6618572 -0.7001033 -0.2679561 248 248 248 255 0.979168 0.912035
11.81502 0.089996 -21.02102 0.6437477 -0.7001534 -0.3088272 248 248 248 255 0.972129 0.920000
11.61521 0.089996 -21.40623 0.6232746 -0.7002019 -0.3482042 248 248 248 255 0.964144 0.927697
11.3927 0.089996 -21.77707 0.6005597 -0.7002439 -0.3859878 240 248 248 255 0.955253 0.935106
11.1484 0.089996 -22.1326 0.5757034 -0.7002729 -0.422118 248 248 248 255 0.945491 0.942210
10.88325 0.089996 -22.47192 0.5487919 -0.7002983 -0.4565192 248 248 248 255 0.934895 0.948989
10.59816 0.089996 -22.79408 0.5199176 -0.7003085 -0.4891357 248 248 248 255 0.923503 0.955426
10.29408 0.089996 -23.09817 0.4891386 -0.7003083 -0.5199152 248 248 248 255 0.911352 0.961502
9.971917 0.089996 -23.38325 0.4565189 -0.7002968 -0.5487941 248 248 248 255 0.898478 0.967198
9.632603 0.089996 -23.64841 0.4221164 -0.7002749 -0.5757022 248 248 248 255 0.884919 0.972495
9.277065 0.089996 -23.8927 0.3859897 -0.7002426 -0.6005601 248 248 248 255 0.870712 0.977377
8.906229 0.089996 -24.11522 0.3482009 -0.7002017 -0.6232767 248 248 248 255 0.855893 0.981822
8.521024 0.089996 -24.31502 0.3088264 -0.7001549 -0.6437463 248 248 248 255 0.840501 0.985814
8.122372 0.089996 -24.49119 0.2679583 -0.7001024 -0.6618572 248 248 248 255 0.824570 0.989334
7.711203 0.089996 -24.6428 0.2257087 -0.7000489 -0.6774859 248 248 248 255 0.808140 0.992364
7.288441 0.089996 -24.76892 0.1822241 -0.6999969 -0.6905062 248 248 248 255 0.791246 0.994883
6.855013 0.089996 -24.86863 0.1376771 -0.6999484 -0.7007977 248 248 248 255 0.773927 0.996876
6.411847 0.089996 -24.941 0.09227871 -0.6999099 -0.7082449 248 248 248 255 0.756218 0.998322
5.959867 0.089996 -24.9851 0.04627464 -0.6998811 -0.7127588 248 248 248 255 0.738157 0.999203
5.5 0.089996 -25 0.01151389 -0.7034788 -0.7106231 248 248 248 255 0.719780 0.999500
-5.5 0.089996 -25 -0.0115154 -0.7034781 -0.7106237 248 248 248 255 0.280220 0.999501
-5.959866 0.089996 -24.9851 -0.04627452 -0.699882 -0.7127579 248 248 248 255 0.261844 0.999203
-6.411847 0.089996 -24.941 -0.09227877 -0.6999089 -0.7082459 248 248 248 255 0.243783 0.998322
-6.855013 0.089996 -24.86863 -0.1376754 -0.6999498 -0.7007966 248 248 248 255 0.226074 0.996876
-7.288441 0.089996 -24.76893 -0.182223 -0.6999956 -0.6905077 248 248 248 255 0.208754 0.994884
-7.711203 0.089996 -24.6428 -0.2257115 -0.7000489 -0.6774849 248 248 248 255 0.191860 0.992364
-8.122372 0.089996 -24.49119 -0.267955 -0.7001044 -0.6618565 248 248 248 255 0.175430 0.989334
-8.521024 0.089996 -24.31503 -0.308827 -0.7001525 -0.6437486 248 248 248 255 0.159500 0.985815
-8.90623 0.089996 -24.11522 -0.3482049 -0.7002026 -0.6232734 248 248 248 255 0.144107 0.981822
-9.277063 0.089996 -23.8927 -0.3859887 -0.7002436 -0.6005595 248 248 248 255 0.129289 0.977377
-9.632602 0.089996 -23.64841 -0.4221165 -0.7002741 -0.575703 248 248 248 255 0.115081 0.972496
-9.971916 0.089996 -23.38325 -0.4565195 -0.7002974 -0.5487929 248 248 248 255 0.101522 0.967198
-10.29408 0.089996 -23.09817 -0.4891359 -0.7003093 -0.5199163 248 248 248 255 0.088649 0.961502
-10.59817 0.089996 -22.79408 -0.5199167 -0.7003077 -0.4891378 248 248 248 255 0.076497 0.955426
-10.88325 0.089996 -22.47192 -0.5487936 -0.7002982 -0.4565174 248 248 248 255 0.065105 0.948989
-11.1484 0.089996 -22.1326 -0.5757013 -0.7002743 -0.4221184 248 248 248 255 0.054510 0.942210
-11.3927 0.089996 -21.77707 -0.6005597 -0.7002426 -0.3859902 240 248 248 255 0.044748 0.935106
-11.61522 0.089996 -21.40623 -0.6232762 -0.7002016 -0.3482018 248 248 248 255 0.035856 0.927697
-11.81502 0.089996 -21.02102 -0.643747 -0.7001542 -0.3088266 248 248 248 255 0.027872 0.920000
-11.99119 0.089996 -20.62237 -0.6618574 -0.7001028 -0.267957 248 248 248 255 0.020832 0.912035
-12.1428 0.089996 -20.2112 -0.6774863 -0.7000487 -0.2257082 248 248 248 255 0.014774 0.903820
-12.26892 0.089996 -19.78844 -0.6905032 -0.7000005 -0.1822217 248 248 248 255 0.009734 0.895373
-12.36863 0.089997 -19.35501 -0.7007977 -0.6999482 -0.137678 248 248 248 255 0.005749 0.886714
-12.441 0.089997 -18.91185 -0.7082444 -0.6999103 -0.0922787 248 248 248 255 0.002858 0.877859
-12.4851 0.089997 -18.45987 -0.7127587 -0.6998813 -0.04627389 248 248 248 255 0.001095 0.868829
-12.5 0.089997 -18 -0.7106304 -0.7034714 -0.01151393 248 248 248 255 0.000500 0.859640
-12.5 0.090003 18 -0.7106234 -0.7034783 0.0115148 248 248 248 255 0.000499 0.140360
-12.4851 0.090003 18.45987 -0.7127582 -0.6998817 0.04627435 248 248 248 255 0.001095 0.131172
-12.441 0.090003 18.91185 -0.7082454 -0.6999094 0.09227781 248 248 248 255 0.002857 0.122141
-12.36863 0.090003 19.35501 -0.7007976 -0.6999485 0.1376769 248 248 248 255 0.005749 0.113287
-12.26892 0.090003 19.78844 -0.6905062 -0.6999969 0.1822241 248 248 248 255 0.009733 0.104627
-12.1428 0.090003 20.2112 -0.6774857 -0.7000489 0.2257094 248 248 248 255 0.014773 0.096180
-11.99119 0.090003 20.62237 -0.6618571 -0.7001034 0.2679561 248 248 248 255 0.020832 0.087965
-11.81502 0.090003 21.02102 -0.6437476 -0.7001535 0.3088271 248 248 248 255 0.027871 0.080000
-11.61521 0.090003 21.40623 -0.6232745 -0.700202 0.3482041 248 248 248 255 0.035856 0.072303
-11.3927 0.090003 21.77707 -0.6005595 -0.700244 0.3859878 248 248 248 255 0.044747 0.064894
-11.1484 0.090003 22.1326 -0.5757033 -0.700273 0.4221178 248 248 248 255 0.054509 0.057790
-10.88325 0.090003 22.47192 -0.5487918 -0.7002984 0.4565192 248 248 248 255 0.065105 0.051011
-10.59816 0.090003 22.79408 -0.5199175 -0.7003086 0.4891355 248 248 248 255 0.076497 0.044574
-10.29408 0.090003 23.09817 -0.4891385 -0.7003084 0.519915 248 248 248 255 0.088648 0.038498
-9.971917 0.090003 23.38325 -0.4565186 -0.7002969 0.5487941 248 248 248 255 0.101522 0.032802
-9.632603 0.090004 23.64841 -0.4221167 -0.7002725 0.5757048 248 248 248 255 0.115081 0.027505
-9.277065 0.090004 23.8927 -0.3859897 -0.7002425 0.6005601 248 248 248 255 0.129288 0.022623
-8.906229 0.090004 24.11522 -0.3482009 -0.7002016 0.6232767 248 248 248 255 0.144107 0.018178
-8.521024 0.090004 24.31502 -0.3088265 -0.7001548 0.6437464 248 248 248 255 0.159499 0.014186
-8.122372 0.090004 24.49119 -0.2679583 -0.7001025 0.6618572 248 248 248 255 0.175430 0.010666
-7.711203 0.090004 24.6428 -0.2257087 -0.7000487 0.677486 248 248 248 255 0.191860 0.007636
-7.288441 0.090004 24.76892 -0.1822241 -0.6999969 0.6905061 248 248 248 255 0.208754 0.005117
-6.855013 0.090004 24.86863 -0.1376771 -0.6999484 0.7007977 248 248 248 255 0.226073 0.003124
-6.411847 0.090004 24.941 -0.09227871 -0.6999098 0.7082449 248 248 248 255 0.243782 0.001678
-5.959867 0.090004 24.9851 -0.04627465 -0.699881 0.712759 248 248 248 255 0.261843 0.000797
-5.5 0.090004 25 -0.01151394 -0.7034757 0.7106261 248 248 248 255 0.280220 0.000500
5.5 0.090004 25 0.0115154 -0.703478 0.7106237 248 248 248 255 0.719780 0.000500
5.959866 0.090004 24.9851 0.04627452 -0.699882 0.7127579 248 248 248 255 0.738156 0.000797
6.411847 0.090004 24.941 0.09227879 -0.6999087 0.708246 248 248 248 255 0.756217 0.001678
6.855013 0.090004 24.86863 0.1376754 -0.6999496 0.7007967 248 248 248 255 0.773926 0.003124
7.288441 0.090004 24.76893 0.182223 -0.6999955 0.6905079 248 248 248 255 0.791246 0.005116
7.711203 0.090004 24.6428 0.2257115 -0.7000488 0.6774851 248 248 248 255 0.808140 0.007636
8.122372 0.090004 24.49119 0.2679551 -0.7001042 0.6618567 248 248 248 255 0.824570 0.010666
8.521024 0.090004 24.31503 0.3088271 -0.7001523 0.6437488 248 248 248 255 0.840500 0.014185
8.90623 0.090004 24.11522 0.3482049 -0.7002025 0.6232736 248 248 248 255 0.855893 0.018178
9.277063 0.090004 23.8927 0.3859888 -0.7002434 0.6005597 248 248 248 255 0.870711 0.022623
9.632602 0.090004 23.64841 0.4221161 -0.7002736 0.5757038 248 248 248 255 0.884919 0.027504
9.971916 0.090003 23.38325 0.4565187 -0.7002974 0.5487934 248 248 248 255 0.898478 0.032802
10.29408 0.090003 23.09817 0.4891361 -0.7003091 0.5199165 248 248 248 255 0.911351 0.038498
10.59817 0.090003 22.79408 0.519917 -0.7003074 0.489138 248 248 248 255 0.923503 0.044574
10.88325 0.090003 22.47192 0.5487939 -0.7002978 0.4565176 248 248 248 255 0.934895 0.051011
11.1484 0.090003 22.1326 0.5757012 -0.7002745 0.4221183 248 248 248 255 0.945490 0.057790
11.3927 0.090003 21.77707 0.6005599 -0.7002423 0.3859903 248 248 248 255 0.955252 0.064894
11.61522 0.090003 21.40623 0.623276 -0.7002019 0.3482016 248 248 248 255 0.964144 0.072303
11.81502 0.090003 21.02102 0.6437471 -0.7001541 0.3088266 248 248 248 255 0.972128 0.080000
11.99119 0.090003 20.62237 0.6618574 -0.7001027 0.267957 248 248 248 255 0.979168 0.087965
12.1428 0.090003 20.2112 0.6774862 -0.7000487 0.2257082 248 248 248 255 0.985226 0.096180
12.26892 0.090003 19.78844 0.690506 -0.6999971 0.1822237 248 248 248 255 0.990266 0.104627
12.36863 0.090003 19.35501 0.7007974 -0.6999484 0.137678 248 248 248 255 0.994251 0.113286
12.441 0.090003 18.91185 0.7082456 -0.6999092 0.09227888 248 248 248 255 0.997142 0.122141
12.4851 0.090003 18.45987 0.7127587 -0.6998813 0.04627388 248 248 248 255 0.998905 0.131171
12.5 0.090003 18 0.7106247 -0.7034771 0.01151393 248 248 248 255 0.999500 0.140360
12.5 0.289997 -18 0.7106248 0.703477 -0.01151475 248 248 248 255 0.999501 0.859640
12.4851 0.289997 -18.45987 0.7127582 0.6998817 -0.04627436 248 248 248 255 0.998905 0.868828
12.441 0.289997 -18.91185 0.7082455 0.6999094 -0.09227782 248 248 248 255 0.997143 0.877859
12.36863 0.289997 -19.35501 0.7007976 0.6999484 -0.1376769 248 248 248 255 0.994251 0.886713
12.26892 0.289997 -19.78844 0.6905059 0.6999969 -0.1822248 248 248 248 255 0.990267 0.895373
12.1428 0.289996 -20.2112 0.6774859 0.7000484 -0.2257104 248 248 248 255 0.985227 0.903820
11.99119 0.289996 -20.62237 0.6618572 0.7001033 -0.2679561 248 248 248 255 0.979168 0.912035
11.81502 0.289996 -21.02102 0.6437477 0.7001534 -0.3088271 248 248 248 255 0.972129 0.920000
11.61521 0.289996 -21.40623 0.6232746 0.7002019 -0.3482041 248 248 248 255 0.964144 0.927697
11.3927 0.289996 -21.77707 0.6005597 0.7002439 -0.3859878 240 248 248 255 0.955253 0.935106
11.1484 0.289996 -22.1326 0.5757034 0.7002729 -0.4221179 248 248 248 255 0.945491 0.942210
10.88325 0.289996 -22.47192 0.5487919 0.7002983 -0.4565192 248 248 248 255 0.934895 0.948989
10.59816 0.289996 -22.79408 0.5199176 0.7003085 -0.4891357 248 248 248 255 0.923503 0.955426
10.29408 0.289996 -23.09817 0.4891386 0.7003083 -0.5199152 248 248 248 255 0.911352 0.961502
9.971917 0.289996 -23.38325 0.4565189 0.7002968 -0.5487941 248 248 248 255 0.898478 0.967198
9.632603 0.289996 -23.64841 0.4221165 0.7002748 -0.5757021 248 248 248 255 0.884919 0.972495
9.277065 0.289996 -23.8927 0.3859897 0.7002425 -0.60056 248 248 248 255 0.870712 0.977377
8.906229 0.289996 -24.11522 0.3482009 0.7002016 -0.6232767 248 248 248 255 0.855893 0.981822
8.521024 0.289996 -24.31502 0.3088265 0.7001548 -0.6437464 248 248 248 255 0.840501 0.985814
8.122372 0.289996 -24.49119 0.2679583 0.7001024 -0.6618572 248 248 248 255 0.824570 0.989334
7.711203 0.289996 -24.6428 0.2257088 0.7000488 -0.677486 248 248 248 255 0.808140 0.992364
7.288441 0.289996 -24.76892 0.1822241 0.6999969 -0.6905061 248 248 248 255 0.791246 0.994883
6.855013 0.289996 -24.86863 0.1376771 0.6999483 -0.7007977 248 248 248 255 0.773927 0.996876
6.411847 0.289996 -24.941 0.09227871 0.6999098 -0.708245 248 248 248 255 0.756218 0.998322
5.959867 0.289996 -24.9851 0.04627465 0.6998811 -0.7127588 248 248 248 255 0.738157 0.999203
5.5 0.289996 -25 0.0115139 0.7034785 -0.7106233 248 248 248 255 0.719780 0.999500
-5.5 0.289996 -25 -0.0115154 0.7034782 -0.7106236 248 248 248 255 0.280220 0.999501
-5.959866 0.289996 -24.9851 -0.04627453 0.6998819 -0.7127581 248 248 248 255 0.261844 0.999203
-6.411847 0.289996 -24.941 -0.09227876 0.6999087 -0.708246 248 248 248 255 0.243783 0.998322
-6.855013 0.289996 -24.86863 -0.1376754 0.6999497 -0.7007967 248 248 248 255 0.226074 0.996876
-7.288441 0.289996 -24.76893 -0.182223 0.6999955 -0.6905079 248 248 248 255 0.208754 0.994884
-7.711203 0.289996 -24.6428 -0.2257115 0.7000487 -0.6774851 248 248 248 255 0.191860 0.992364
-8.122372 0.289996 -24.49119 -0.2679551 0.7001041 -0.6618568 248 248 248 255 0.175430 0.989334
-8.521024 0.289996 -24.31503 -0.3088272 0.7001523 -0.6437488 248 248 248 255 0.159500 0.985815
-8.90623 0.289996 -24.11522 -0.3482049 0.7002024 -0.6232737 248 248 248 255 0.144107 0.981822
-9.277063 0.289996 -23.8927 -0.3859888 0.7002433 -0.6005597 248 248 248 255 0.129289 0.977377
-9.632602 0.289996 -23.64841 -0.4221166 0.7002737 -0.5757033 248 248 248 255 0.115081 0.972496
-9.971916 0.289996 -23.38325 -0.4565197 0.7002969 -0.5487932 248 248 248 255 0.101522 0.967198
-10.29408 0.289996 -23.09817 -0.4891362 0.700309 -0.5199166 248 248 248 255 0.088649 0.961502
-10.59817 0.289996 -22.79408 -0.5199171 0.7003071 -0.4891382 248 248 248 255 0.076497 0.955426
-10.88325 0.289996 -22.47192 -0.5487941 0.7002975 -0.4565179 248 248 248 255 0.065105 0.948989
-11.1484 0.289996 -22.1326 -0.5757017 0.7002737 -0.4221188 248 248 248 255 0.054510 0.942210
-11.3927 0.289996 -21.77707 -0.6005597 0.7002426 -0.3859903 240 248 248 255 0.044748 0.935106
-11.61522 0.289996 -21.40623 -0.6232762 0.7002016 -0.3482017 248 248 248 255 0.035856 0.927697
-11.81502 0.289996 -21.02102 -0.6437471 0.7001542 -0.3088267 248 248 248 255 0.027872 0.920000
-11.99119 0.289996 -20.62237 -0.6618574 0.7001027 -0.2679569 248 248 248 255 0.020832 0.912035
-12.1428 0.289996 -20.2112 -0.6774899 0.7000444 -0.2257108 248 248 248 255 0.014774 0.903820
-12.26892 0.289997 -19.78844 -0.6905054 0.6999978 -0.1822237 248 248 248 255 0.009734 0.895373
-12.36863 0.289997 -19.35501 -0.7007969 0.699949 -0.1376779 248 248 248 255 0.005749 0.886714
-12.441 0.289997 -18.91185 -0.7082444 0.6999105 -0.09227875 248 248 248 255 0.002858 0.877859
-12.4851 0.289997 -18.45987 -0.7127586 0.6998814 -0.04627388 248 248 248 255 0.001095 0.868829
-12.5 0.289997 -18 -0.710629 0.7034727 -0.0115141 248 248 248 255 0.000500 0.859640
-12.5 0.290003 18 -0.7106248 0.703477 0.01151461 248 248 248 255 0.000499 0.140360
-12.4851 0.290003 18.45987 -0.7127583 0.6998817 0.04627436 248 248 248 255 0.001095 0.131172
-12.441 0.290003 18.91185 -0.7082455 0.6999094 0.09227782 248 248 248 255 0.002857 0.122141
-12.36863 0.290003 19.35501 -0.7007977 0.6999484 0.1376769 248 248 248 255 0.005749 0.113287
-12.26892 0.290003 19.78844 -0.6905063 0.6999968 0.1822242 248 248 248 255 0.009733 0.104627
-12.1428 0.290003 20.2112 -0.6774859 0.7000487 0.2257094 248 248 248 255 0.014773 0.096180
-11.99119 0.290003 20.62237 -0.6618573 0.7001032 0.2679561 248 248 248 255 0.020832 0.087965
-11.81502 0.290003 21.02102 -0.6437478 0.7001533 0.3088272 248 248 248 255 0.027871 0.080000
-11.61521 0.290003 21.40623 -0.6232747 0.7002018 0.3482042 248 248 248 255 0.035856 0.072303
-11.3927 0.290003 21.77707 -0.6005598 0.7002438 0.3859879 248 248 248 255 0.044747 0.064894
-11.1484 0.290003 22.1326 -0.5757035 0.7002728 0.422118 248 248 248 255 0.054509 0.057790
-10.88325 0.290003 22.47192 -0.548792 0.7002982 0.4565193 248 248 248 255 0.065105 0.051011
-10.59816 0.290003 22.79408 -0.5199178 0.7003082 0.4891358 248 248 248 255 0.076497 0.044574
-10.29408 0.290003 23.09817 -0.4891389 0.7003081 0.5199152 248 248 248 255 0.088648 0.038498
-9.971917 0.290004 23.38325 -0.4565186 0.7002989 0.5487916 248 248 248 255 0.101522 0.032802
-9.632603 0.290004 23.64841 -0.4221164 0.7002748 0.5757021 248 248 248 255 0.115081 0.027505
-9.277065 0.290004 23.8927 -0.3859897 0.7002425 0.6005601 248 248 248 255 0.129288 0.022623
-8.906229 0.290004 24.11522 -0.3482009 0.7002016 0.6232767 248 248 248 255 0.144107 0.018178
-8.521024 0.290004 24.31502 -0.3088264 0.7001549 0.6437463 248 248 248 255 0.159499 0.014186
-8.122372 0.290004 24.49119 -0.2679583 0.7001026 0.6618571 248 248 248 255 0.175430 0.010666
-7.711203 0.290004 24.6428 -0.2257088 0.7000487 0.6774861 248 248 248 255 0.191860 0.007636
-7.288441 0.290004 24.76892 -0.1822241 0.699997 0.690506 248 248 248 255 0.208754 0.005117
-6.855013 0.290004 24.86863 -0.1376771 0.6999483 0.7007977 248 248 248 255 0.226073 0.003124
-6.411847 0.290004 24.941 -0.0922787 0.6999098 0.7082449 248 248 248 255 0.243782 0.001678
-5.959867 0.290004 24.9851 -0.04627466 0.699881 0.712759 248 248 248 255 0.261843 0.000797
-5.5 0.290004 25 -0.01151394 0.7034756 0.7106261 248 248 248 255 0.280220 0.000500
5.5 0.290004 25 0.0115154 0.7034783 0.7106235 248 248 248 255 0.719780 0.000500
5.959866 0.290004 24.9851 0.04627452 0.699882 0.7127579 248 248 248 255 0.738156 0.000797
6.411847 0.290004 24.941 0.09227875 0.6999089 0.7082459 248 248 248 255 0.756217 0.001678
6.855013 0.290004 24.86863 0.1376754 0.6999497 0.7007966 248 248 248 255 0.773926 0.003124
7.288441 0.290004 24.76893 0.182223 0.6999956 0.6905078 248 248 248 255 0.791246 0.005116
7.711203 0.290004 24.6428 0.2257115 0.7000489 0.6774849 248 248 248 255 0.808140 0.007636
8.122372 0.290004 24.49119 0.267955 0.7001043 0.6618566 248 248 248 255 0.824570 0.010666
8.521024 0.290004 24.31503 0.3088271 0.7001525 0.6437487 248 248 248 255 0.840500 0.014185
8.90623 0.290004 24.11522 0.3482048 0.7002025 0.6232734 248 248 248 255 0.855893 0.018178
9.277063 0.290004 23.8927 0.3859887 0.7002435 0.6005595 248 248 248 255 0.870711 0.022623
9.632602 0.290004 23.64841 0.4221165 0.7002739 0.5757031 248 248 248 255 0.884919 0.027504
9.971916 0.290004 23.38325 0.45652 0.7002974 0.5487924 248 248 248 255 0.898478 0.032802
10.29408 0.290003 23.09817 0.4891369 0.7003089 0.519916 248 248 248 255 0.911351 0.038498
10.59817 0.290003 22.79408 0.5199168 0.7003075 0.489138 248 248 248 255 0.923503 0.044574
10.88325 0.290003 22.47192 0.5487937 0.700298 0.4565176 248 248 248 255 0.934895 0.051011
11.1484 0.290003 22.1326 0.5757011 0.7002746 0.4221182 248 248 248 255 0.945490 0.057790
11.3927 0.290003 21.77707 0.6005599 0.7002424 0.3859903 248 248 248 255 0.955252 0.064894
11.61522 0.290003 21.40623 0.6232759 0.7002021 0.3482016 248 248 248 255 0.964144 0.072303
11.81502 0.290003 21.02102 0.643747 0.7001542 0.3088266 248 248 248 255 0.972128 0.080000
11.99119 0.290003 20.62237 0.6618574 0.7001028 0.2679569 248 248 248 255 0.979168 0.087965
12.1428 0.290003 20.2112 0.6774862 0.7000488 0.2257082 248 248 248 255 0.985226 0.096180
12.26892 0.290003 19.78844 0.6905059 0.6999972 0.1822237 248 248 248 255 0.990266 0.104627
12.36863 0.290003 19.35501 0.7007971 0.6999487 0.137678 248 248 248 255 0.994251 0.113286
12.441 0.290003 18.91185 0.7082454 0.6999093 0.09227887 248 248 248 255 0.997142 0.122141
12.4851 0.290003 18.45987 0.7127585 0.6998814 0.04627388 248 248 248 255 0.998905 0.131171
12.5 0.290003 18 0.7106232 0.7034786 0.0115139 248 248 248 255 0.999500 0.140360
3 105 104 0 
3 0 1 105 
3 106 105 1 
3 1 2 106 
3 107 106 2 
3 2 3 107 
3 108 107 3 
3 3 4 108 
3 109 108 4 
3 4 5 109 
3 110 109 5 
3 5 6 110 
3 111 110 6 
3 6 7 111 
3 112 111 7 
3 7 8 112 
3 113 112 8 
3 8 9 113 
3 114 113 9 
3 9 10 114 
3 115 114 10 
3 10 11 115 
3 116 115 11 
3 11 12 116 
3 117 116 12 
3 12 13 117 
3 118 117 13 
3 13 14 118 
3 119 118 14 
3 14 15 119 
3 120 119 15 
3 15 16 120 
3 121 120 16 
3 16 17 121 
3 122 121 17 
3 17 18 122 
3 123 122 18 
3 18 19 123 
3 124 123 19 
3 19 20 124 
3 125 124 20 
3 20 21 125 
3 126 125 21 
3 21 22 126 
3 127 126 22 
3 22 23 127 
3 128 127 23 
3 23 24 128 
3 129 128 24 
3 24 25 129 
3 130 129 25 
3 25 26 130 
3 131 130 26 
3 26 27 131 
3 132 131 27 
3 27 28 132 
3 133 132 28 
3 28 29 133 
3 134 133 29 
3 29 30 134 
3 135 134 30 
3 30 31 135 
3 136 135 31 
3 31 32 136 
3 137 136 32 
3 32 33 137 
3 138 137 33 
3 33 34 138 
3 139 138 34 
3 34 35 139 
3 140 139 35 
3 35 36 140 
3 141 140 36 
3 36 37 141 
3 142 141 37 
3 37 38 142 
3 143 142 38 
3 38 39 143 
3 144 143 39 
3 39 40 144 
3 145 144 40 
3 40 41 145 
3 146 145 41 
3 41 42 146 
3 147 146 42 
3 42 43 147 
3 148 147 43 
3 43 44 148 
3 149 148 44 
3 44 45 149 
3 150 149 45 
3 45 46 150 
3 151 150 46 
3 46 47 151 
3 152 151 47 
3 47 48 152 
3 153 152 48 
3 48 49 153 
3 154 153 49 
3 49 50 154 
3 155 154 50 
3 50 51 155 
3 156 155 51 
3 51 52 156 
3 157 156 52 
3 52 53 157 
3 158 157 53 
3 53 54 158 
3 159 158 54 
3 54 55 159 
3 160 159 55 
3 55 56 160 
3 161 160 56 
3 56 57 161 
3 162 161 57 
3 57 58 162 
3 163 162 58 
3 58 59 163 
3 164 163 59 
3 59 60 164 
3 165 164 60 
3 60 61 165 
3 166 165 61 
3 61 62 166 
3 167 166 62 
3 62 63 167 
3 168 167 63 
3 63 64 168 
3 169 168 64 
3 64 65 169 
3 170 169 65 
3 65 66 170 
3 171 170 66 
3 66 67 171 
3 172 171 67 
3 67 68 172 
3 173 172 68 
3 68 69 173 
3 174 173 69 
3 69 70 174 
3 175 174 70 
3 70 71 175 
3 176 175 71 
3 71 72 176 
3 177 176 72 
3 72 73 177 
3 178 177 73 
3 73 74 178 
3 179 178 74 
3 74 75 179 
3 180 179 75 
3 75 76 180 
3 181 180 76 
3 76 77 181 
3 182 181 77 
3 77 78 182 
3 183 182 78 
3 78 79 183 
3 184 183 79 
3 79 80 184 
3 185 184 80 
3 80 81 185 
3 186 185 81 
3 81 82 186 
3 187 186 82 
3 82 83 187 
3 188 187 83 
3 83 84 188 
3 189 188 84 
3 84 85 189 
3 190 189 85 
3 85 86 190 
3 191 190 86 
3 86 87 191 
3 192 191 87 
3 87 88 192 
3 193 192 88 
3 88 89 193 
3 194 193 89 
3 89 90 194 
3 195 194 90 
3 90 91 195 
3 196 195 91 
3 91 92 196 
3 197 196 92 
3 92 93 197 
3 198 197 93 
3 93 94 198 
3 199 198 94 
3 94 95 199 
3 200 199 95 
3 95 96 200 
3 201 200 96 
3 96 97 201 
3 202 201 97 
3 97 98 202 
3 203 202 98 
3 98 99 203 
3 204 203 99 
3 99 100 204 
3 205 204 100 
3 100 101 205 
3 206 205 101 
3 101 102 206 
3 207 206 102 
3 102 103 207 
3 104 207 103 
3 103 0 104 
3 75 74 77 
3 77 76 75 
3 179 180 181 
3 181 178 179 
3 43 42 41 
3 41 44 43 
3 45 44 41 
3 41 46 45 
3 47 46 41 
3 41 40 47 
3 48 47 40 
3 40 49 48 
3 49 40 39 
3 39 38 49 
3 49 38 37 
3 37 36 49 
3 49 36 35 
3 35 34 49 
3 49 34 33 
3 33 32 49 
3 49 32 31 
3 31 30 49 
3 49 30 29 
3 29 28 49 
3 49 28 27 
3 27 50 49 
3 51 50 27 
3 27 26 51 
3 51 26 25 
3 25 24 51 
3 51 24 23 
3 23 22 51 
3 51 22 21 
3 21 20 51 
3 51 20 19 
3 19 18 51 
3 51 18 17 
3 17 16 51 
3 51 16 15 
3 15 14 51 
3 51 14 13 
3 13 12 51 
3 51 12 11 
3 11 10 51 
3 51 10 9 
3 9 8 51 
3 51 8 7 
3 7 6 51 
3 51 6 5 
3 5 4 51 
3 51 4 3 
3 3 2 51 
3 51 2 1 
3 1 0 51 
3 51 0 103 
3 103 102 51 
3 51 102 101 
3 101 100 51 
3 51 100 99 
3 99 98 51 
3 51 98 97 
3 97 96 51 
3 51 96 95 
3 95 94 51 
3 51 94 93 
3 93 92 51 
3 51 92 91 
3 91 90 51 
3 51 90 89 
3 89 88 51 
3 51 88 87 
3 87 86 51 
3 51 86 85 
3 85 84 51 
3 51 84 83 
3 83 82 51 
3 51 82 81 
3 81 80 51 
3 51 80 79 
3 79 78 51 
3 51 78 77 
3 77 52 51 
3 53 52 77 
3 77 54 53 
3 55 54 77 
3 77 56 55 
3 57 56 77 
3 77 58 57 
3 59 58 77 
3 77 60 59 
3 61 60 77 
3 77 62 61 
3 63 62 77 
3 77 64 63 
3 65 64 77 
3 77 66 65 
3 67 66 77 
3 77 68 67 
3 69 68 77 
3 77 70 69 
3 71 70 77 
3 77 72 71 
3 73 72 77 
3 77 74 73 
3 145 146 147 
3 147 148 145 
3 145 148 149 
3 149 150 145 
3 145 150 151 
3 151 144 145 
3 144 151 152 
3 152 153 144 
3 143 144 153 
3 153 142 143 
3 141 142 153 
3 153 140 141 
3 139 140 153 
3 153 138 139 
3 137 138 153 
3 153 136 137 
3 135 136 153 
3 153 134 135 
3 133 134 153 
3 153 132 133 
3 131 132 153 
3 153 154 131 
3 131 154 155 
3 155 130 131 
3 129 130 155 
3 155 128 129 
3 127 128 155 
3 155 126 127 
3 125 126 155 
3 155 124 125 
3 123 124 155 
3 155 122 123 
3 121 122 155 
3 155 120 121 
3 119 120 155 
3 155 118 119 
3 117 118 155 
3 155 116 117 
3 115 116 155 
3 155 114 115 
3 113 114 155 
3 155 112 113 
3 111 112 155 
3 155 110 111 
3 109 110 155 
3 155 108 109 
3 107 108 155 
3 155 106 107 
3 105 106 155 
3 155 104 105 
3 207 104 155 
3 155 206 207 
3 205 206 155 
3 155 204 205 
3 203 204 155 
3 155 202 203 
3 201 202 155 
3 155 200 201 
3 199 200 155 
3 155 198 199 
3 197 198 155 
3 155 196 197 
3 195 196 155 
3 155 194 195 
3 193 194 155 
3 155 192 193 
3 191 192 155 
3 155 190 191 
3 189 190 155 
3 155 188 189 
3 187 188 155 
3 155 186 187 
3 185 186 155 
3 155 184 185 
3 183 184 155 
3 155 182 183 
3 181 182 155 
3 155 156 181 
3 181 156 157 
3 157 158 181 
3 181 158 159 
3 159 160 181 
3 181 160 161 
3 161 162 181 
3 181 162 163 
3 163 164 181 
3 181 164 165 
3 165 166 181 
3 181 166 167 
3 167 168 181 
3 181 168 169 
3 169 170 181 
3 181 170 171 
3 171 172 181 
3 181 172 173 
3 173 174 181 
3 181 174 175 
3 175 176 181 
3 181 176 177 
3 177 178 181 
