ply
format ascii 1.0
comment VCGLIB generated
comment TextureFile dummy.png
element vertex 192
property float x
property float y
property float z
property float nx
property float ny
property float nz
property uchar red
property uchar green
property uchar blue
property uchar alpha
property float texture_u
property float texture_v
element face 124
property list uchar int vertex_indices
end_header
0 -1 -0.9999999 0.09801866 -4.35009e-08 -0.9951846 255 255 255 255 1.000000 0.500000
0 0.9999999 -1 0.09801866 -4.35009e-08 -0.9951846 255 255 255 255 1.000000 1.000000
0.19509 0.9999999 -0.9807851 0.09801866 -4.35009e-08 -0.9951846 255 255 255 255 0.968750 1.000000
0.19509 -1 -0.980785 0.09801866 -4.35009e-08 -0.9951846 255 255 255 255 0.968750 0.500000
0.19509 -1 -0.980785 0.2902814 -4.182924e-08 -0.9569414 255 255 255 255 0.968750 0.500000
0.19509 0.9999999 -0.9807851 0.2902815 -4.182923e-08 -0.9569413 255 255 255 255 0.968750 1.000000
0.382683 0.9999999 -0.92388 0.2902814 -4.182924e-08 -0.9569414 255 255 255 255 0.937500 1.000000
0.382683 -1 -0.9238799 0.2902815 -4.182923e-08 -0.9569413 255 255 255 255 0.937500 0.500000
0.382683 -1 -0.9238799 0.4713964 -3.855001e-08 -0.8819215 255 255 255 255 0.937500 0.500000
0.382683 0.9999999 -0.92388 0.4713965 -3.855001e-08 -0.8819214 255 255 255 255 0.937500 1.000000
0.5555699 0.9999999 -0.8314701 0.4713964 -3.855001e-08 -0.8819215 255 255 255 255 0.906250 1.000000
0.5555699 -1 -0.83147 0.4713965 -3.855001e-08 -0.8819214 255 255 255 255 0.906250 0.500000
0.5555699 -1 -0.83147 0.6343926 -3.378939e-08 -0.7730111 255 255 255 255 0.906250 0.500000
0.5555699 0.9999999 -0.8314701 0.6343926 -3.378938e-08 -0.773011 255 255 255 255 0.906250 1.000000
0.7071069 0.9999999 -0.7071071 0.6343926 -3.378939e-08 -0.7730111 255 255 255 255 0.875000 1.000000
0.7071069 -1 -0.7071069 0.6343926 -3.378938e-08 -0.773011 255 255 255 255 0.875000 0.500000
0.7071069 -1 -0.7071069 0.773011 -2.773018e-08 -0.6343926 255 255 255 255 0.875000 0.500000
0.7071069 0.9999999 -0.7071071 0.773011 -2.773018e-08 -0.6343927 255 255 255 255 0.875000 1.000000
0.83147 1 -0.5555701 0.773011 -2.773018e-08 -0.6343926 255 255 255 255 0.843750 1.000000
0.83147 -1 -0.5555699 0.773011 -2.773018e-08 -0.6343927 255 255 255 255 0.843750 0.500000
0.83147 -1 -0.5555699 0.8819215 -2.060539e-08 -0.4713964 255 255 255 255 0.843750 0.500000
0.83147 1 -0.5555701 0.8819214 -2.06054e-08 -0.4713965 255 255 255 255 0.843750 1.000000
0.9238799 1 -0.382683 0.8819215 -2.060539e-08 -0.4713964 255 255 255 255 0.812500 1.000000
0.9238799 -1 -0.382683 0.8819214 -2.06054e-08 -0.4713965 255 255 255 255 0.812500 0.500000
0.9238799 -1 -0.382683 0.9569414 -1.26886e-08 -0.2902814 255 255 255 255 0.812500 0.500000
0.9238799 1 -0.382683 0.9569413 -1.268861e-08 -0.2902815 255 255 255 255 0.812500 1.000000
0.980785 1 -0.19509 0.9569414 -1.26886e-08 -0.2902814 255 255 255 255 0.781250 1.000000
0.980785 -1 -0.19509 0.9569413 -1.268861e-08 -0.2902815 255 255 255 255 0.781250 0.500000
0.980785 -1 -0.19509 0.9951846 -4.284533e-09 -0.09801868 255 255 255 255 0.781250 0.500000
0.980785 1 -0.19509 0.9951846 -4.284533e-09 -0.09801868 255 255 255 255 0.781250 1.000000
0.9999999 1 -4.371139e-08 0.9951846 -4.284533e-09 -0.09801868 255 255 255 255 0.750000 1.000000
0.9999999 -1 4.371139e-08 0.9951846 -4.284533e-09 -0.09801868 255 255 255 255 0.750000 0.500000
0.9999999 -1 4.371139e-08 0.9951846 4.284533e-09 0.09801868 255 255 255 255 0.750000 0.500000
0.9999999 1 -4.371139e-08 0.9951846 4.284533e-09 0.09801868 255 255 255 255 0.750000 1.000000
0.980785 1 0.19509 0.9951846 4.284533e-09 0.09801868 255 255 255 255 0.718750 1.000000
0.980785 -1 0.19509 0.9951846 4.284533e-09 0.09801868 255 255 255 255 0.718750 0.500000
0.980785 -1 0.19509 0.9569414 1.26886e-08 0.2902814 255 255 255 255 0.718750 0.500000
0.980785 1 0.19509 0.9569413 1.268861e-08 0.2902815 255 255 255 255 0.718750 1.000000
0.9238799 1 0.382683 0.9569414 1.26886e-08 0.2902814 255 255 255 255 0.687500 1.000000
0.9238799 -1 0.382683 0.9569413 1.268861e-08 0.2902815 255 255 255 255 0.687500 0.500000
0.9238799 -1 0.382683 0.8819215 2.060539e-08 0.4713964 255 255 255 255 0.687500 0.500000
0.9238799 1 0.382683 0.8819214 2.06054e-08 0.4713965 255 255 255 255 0.687500 1.000000
0.83147 1 0.5555699 0.8819215 2.060539e-08 0.4713964 255 255 255 255 0.656250 1.000000
0.83147 -1 0.5555701 0.8819214 2.06054e-08 0.4713965 255 255 255 255 0.656250 0.500000
0.83147 -1 0.5555701 0.773011 2.773018e-08 0.6343926 255 255 255 255 0.656250 0.500000
0.83147 1 0.5555699 0.773011 2.773018e-08 0.6343927 255 255 255 255 0.656250 1.000000
0.7071069 1 0.7071069 0.773011 2.773018e-08 0.6343926 255 255 255 255 0.625000 1.000000
0.7071069 -0.9999999 0.7071071 0.773011 2.773018e-08 0.6343927 255 255 255 255 0.625000 0.500000
0.7071069 -0.9999999 0.7071071 0.6343926 3.378939e-08 0.7730111 255 255 255 255 0.625000 0.500000
0.7071069 1 0.7071069 0.6343926 3.378938e-08 0.773011 255 255 255 255 0.625000 1.000000
0.5555699 1 0.83147 0.6343926 3.378939e-08 0.7730111 255 255 255 255 0.593750 1.000000
0.5555699 -0.9999999 0.8314701 0.6343926 3.378938e-08 0.773011 255 255 255 255 0.593750 0.500000
0.5555699 -0.9999999 0.8314701 0.4713964 3.855001e-08 0.8819215 255 255 255 255 0.593750 0.500000
0.5555699 1 0.83147 0.4713965 3.855001e-08 0.8819214 255 255 255 255 0.593750 1.000000
0.382683 1 0.9238799 0.4713964 3.855001e-08 0.8819215 255 255 255 255 0.562500 1.000000
0.382683 -0.9999999 0.92388 0.4713965 3.855001e-08 0.8819214 255 255 255 255 0.562500 0.500000
0.382683 -0.9999999 0.92388 0.2902814 4.182924e-08 0.9569414 255 255 255 255 0.562500 0.500000
0.382683 1 0.9238799 0.2902815 4.182923e-08 0.9569413 255 255 255 255 0.562500 1.000000
0.19509 1 0.980785 0.2902814 4.182924e-08 0.9569414 255 255 255 255 0.531250 1.000000
0.19509 -0.9999999 0.9807851 0.2902815 4.182923e-08 0.9569413 255 255 255 255 0.531250 0.500000
0.19509 -0.9999999 0.9807851 0.09801866 4.35009e-08 0.9951846 255 255 255 255 0.531250 0.500000
0.19509 1 0.980785 0.09801866 4.35009e-08 0.9951846 255 255 255 255 0.531250 1.000000
0 1 0.9999999 0.09801866 4.35009e-08 0.9951846 255 255 255 255 0.500000 1.000000
0 -0.9999999 1 0.09801866 4.35009e-08 0.9951846 255 255 255 255 0.500000 0.500000
0 -0.9999999 1 -0.09801866 4.35009e-08 0.9951846 255 255 255 255 0.500000 0.500000
0 1 0.9999999 -0.09801866 4.35009e-08 0.9951846 255 255 255 255 0.500000 1.000000
-0.19509 1 0.980785 -0.09801866 4.35009e-08 0.9951846 255 255 255 255 0.468750 1.000000
-0.19509 -0.9999999 0.9807851 -0.09801866 4.35009e-08 0.9951846 255 255 255 255 0.468750 0.500000
-0.19509 -0.9999999 0.9807851 -0.2902814 4.182924e-08 0.9569414 255 255 255 255 0.468750 0.500000
-0.19509 1 0.980785 -0.2902815 4.182923e-08 0.9569413 255 255 255 255 0.468750 1.000000
-0.382683 1 0.9238799 -0.2902814 4.182924e-08 0.9569414 255 255 255 255 0.437500 1.000000
-0.382683 -0.9999999 0.92388 -0.2902815 4.182923e-08 0.9569413 255 255 255 255 0.437500 0.500000
-0.382683 -0.9999999 0.92388 -0.4713964 3.855001e-08 0.8819215 255 255 255 255 0.437500 0.500000
-0.382683 1 0.9238799 -0.4713965 3.855001e-08 0.8819214 255 255 255 255 0.437500 1.000000
-0.5555699 1 0.83147 -0.4713964 3.855001e-08 0.8819215 255 255 255 255 0.406250 1.000000
-0.5555699 -0.9999999 0.8314701 -0.4713965 3.855001e-08 0.8819214 255 255 255 255 0.406250 0.500000
-0.5555699 -0.9999999 0.8314701 -0.6343926 3.378939e-08 0.7730111 255 255 255 255 0.406250 0.500000
-0.5555699 1 0.83147 -0.6343926 3.378938e-08 0.773011 255 255 255 255 0.406250 1.000000
-0.7071069 1 0.7071069 -0.6343926 3.378939e-08 0.7730111 255 255 255 255 0.375000 1.000000
-0.7071069 -0.9999999 0.7071071 -0.6343926 3.378938e-08 0.773011 255 255 255 255 0.375000 0.500000
-0.7071069 -0.9999999 0.7071071 -0.7730135 2.773005e-08 0.6343896 255 255 255 255 0.375000 0.500000
-0.7071069 1 0.7071069 -0.7730135 2.773005e-08 0.6343896 255 255 255 255 0.375000 1.000000
-0.8314689 1 0.5555699 -0.7730135 2.773005e-08 0.6343896 255 255 255 255 0.343750 1.000000
-0.8314689 -1 0.5555701 -0.7730135 2.773005e-08 0.6343896 255 255 255 255 0.343750 0.500000
-0.8314689 -1 0.5555701 -0.8819181 2.060566e-08 0.4714026 255 255 255 255 0.343750 0.500000
-0.8314689 1 0.5555699 -0.8819181 2.060566e-08 0.4714026 255 255 255 255 0.343750 1.000000
-0.9238799 1 0.382684 -0.8819181 2.060566e-08 0.4714026 255 255 255 255 0.312500 1.000000
-0.9238799 -1 0.382684 -0.8819181 2.060566e-08 0.4714026 255 255 255 255 0.312500 0.500000
-0.9238799 -1 0.382684 -0.9569417 1.268855e-08 0.2902801 255 255 255 255 0.312500 0.500000
-0.9238799 1 0.382684 -0.9569417 1.268855e-08 0.2902801 255 255 255 255 0.312500 1.000000
-0.980785 1 0.19509 -0.9569417 1.268855e-08 0.2902801 255 255 255 255 0.281250 1.000000
-0.980785 -1 0.19509 -0.9569417 1.268855e-08 0.2902801 255 255 255 255 0.281250 0.500000
-0.980785 -1 0.19509 -0.9951846 4.284533e-09 0.09801868 255 255 255 255 0.281250 0.500000
-0.980785 1 0.19509 -0.9951846 4.284533e-09 0.09801868 255 255 255 255 0.281250 1.000000
-0.9999999 1 -4.371139e-08 -0.9951846 4.284533e-09 0.09801868 255 255 255 255 0.250000 1.000000
-0.9999999 -1 4.371139e-08 -0.9951846 4.284533e-09 0.09801868 255 255 255 255 0.250000 0.500000
-0.9999999 -1 4.371139e-08 -0.9951846 -4.284533e-09 -0.09801868 255 255 255 255 0.250000 0.500000
-0.9999999 1 -4.371139e-08 -0.9951846 -4.284533e-09 -0.09801868 255 255 255 255 0.250000 1.000000
-0.980785 1 -0.19509 -0.9951846 -4.284533e-09 -0.09801868 255 255 255 255 0.218750 1.000000
-0.980785 -1 -0.19509 -0.9951846 -4.284533e-09 -0.09801868 255 255 255 255 0.218750 0.500000
-0.980785 -1 -0.19509 -0.9569404 -1.268874e-08 -0.2902845 255 255 255 255 0.218750 0.500000
-0.980785 1 -0.19509 -0.9569404 -1.268874e-08 -0.2902845 255 255 255 255 0.218750 1.000000
-0.923879 1 -0.382684 -0.9569404 -1.268874e-08 -0.2902845 255 255 255 255 0.187500 1.000000
-0.923879 -1 -0.382684 -0.9569404 -1.268874e-08 -0.2902845 255 255 255 255 0.187500 0.500000
-0.923879 -1 -0.382684 -0.8819222 -2.060533e-08 -0.471395 255 255 255 255 0.187500 0.500000
-0.923879 1 -0.382684 -0.8819222 -2.060533e-08 -0.4713949 255 255 255 255 0.187500 1.000000
-0.83147 1 -0.5555701 -0.8819222 -2.060533e-08 -0.471395 255 255 255 255 0.156250 1.000000
-0.83147 -1 -0.5555699 -0.8819222 -2.060533e-08 -0.4713949 255 255 255 255 0.156250 0.500000
-0.83147 -1 -0.5555699 -0.773011 -2.773018e-08 -0.6343926 255 255 255 255 0.156250 0.500000
-0.83147 1 -0.5555701 -0.773011 -2.773018e-08 -0.6343927 255 255 255 255 0.156250 1.000000
-0.7071069 0.9999999 -0.7071071 -0.773011 -2.773018e-08 -0.6343926 255 255 255 255 0.125000 1.000000
-0.7071069 -1 -0.7071069 -0.773011 -2.773018e-08 -0.6343927 255 255 255 255 0.125000 0.500000
-0.7071069 -1 -0.7071069 -0.6343926 -3.378939e-08 -0.7730111 255 255 255 255 0.125000 0.500000
-0.7071069 0.9999999 -0.7071071 -0.6343926 -3.378938e-08 -0.773011 255 255 255 255 0.125000 1.000000
-0.5555699 0.9999999 -0.8314701 -0.6343926 -3.378939e-08 -0.7730111 255 255 255 255 0.093750 1.000000
-0.5555699 -1 -0.83147 -0.6343926 -3.378938e-08 -0.773011 255 255 255 255 0.093750 0.500000
-0.5555699 -1 -0.83147 -0.4713964 -3.855001e-08 -0.8819215 255 255 255 255 0.093750 0.500000
-0.5555699 0.9999999 -0.8314701 -0.4713965 -3.855001e-08 -0.8819214 255 255 255 255 0.093750 1.000000
-0.382683 0.9999999 -0.92388 -0.4713964 -3.855001e-08 -0.8819215 255 255 255 255 0.062500 1.000000
-0.382683 -1 -0.9238799 -0.4713965 -3.855001e-08 -0.8819214 255 255 255 255 0.062500 0.500000
0.19509 0.9999999 -0.9807851 0 1 -4.371139e-08 255 255 255 255 0.296822 0.485388
0 0.9999999 -1 0 1 -4.371139e-08 255 255 255 255 0.250000 0.490000
-0.19509 0.9999999 -0.9807851 0 1 -4.371139e-08 255 255 255 255 0.203178 0.485388
-0.382683 0.9999999 -0.92388 0 1 -4.371139e-08 255 255 255 255 0.158156 0.471731
-0.5555699 0.9999999 -0.8314701 0 1 -4.371139e-08 255 255 255 255 0.116663 0.449553
-0.7071069 0.9999999 -0.7071071 0 1 -4.371139e-08 255 255 255 255 0.080294 0.419706
-0.83147 1 -0.5555701 0 1 -4.371139e-08 255 255 255 255 0.050447 0.383337
-0.923879 1 -0.382684 0 1 -4.371139e-08 255 255 255 255 0.028269 0.341844
-0.980785 1 -0.19509 0 1 -4.371139e-08 255 255 255 255 0.014612 0.296822
-0.9999999 1 -4.371139e-08 0 1 -4.371139e-08 255 255 255 255 0.010000 0.250000
-0.980785 1 0.19509 0 1 -4.371139e-08 255 255 255 255 0.014612 0.203178
-0.9238799 1 0.382684 0 1 -4.371139e-08 255 255 255 255 0.028269 0.158156
-0.8314689 1 0.5555699 0 1 -4.371139e-08 255 255 255 255 0.050447 0.116663
-0.7071069 1 0.7071069 0 1 -4.371139e-08 255 255 255 255 0.080294 0.080294
-0.5555699 1 0.83147 0 1 -4.371139e-08 255 255 255 255 0.116663 0.050447
-0.382683 1 0.9238799 0 1 -4.371139e-08 255 255 255 255 0.158156 0.028269
-0.19509 1 0.980785 0 1 -4.371139e-08 255 255 255 255 0.203178 0.014612
0 1 0.9999999 0 1 -4.371139e-08 255 255 255 255 0.250000 0.010000
0.19509 1 0.980785 0 1 -4.371139e-08 255 255 255 255 0.296822 0.014612
0.382683 1 0.9238799 0 1 -4.371139e-08 255 255 255 255 0.341844 0.028269
0.5555699 1 0.83147 0 1 -4.371139e-08 255 255 255 255 0.383337 0.050447
0.7071069 1 0.7071069 0 1 -4.371139e-08 255 255 255 255 0.419706 0.080294
0.83147 1 0.5555699 0 1 -4.371139e-08 255 255 255 255 0.449553 0.116663
0.9238799 1 0.382683 0 1 -4.371139e-08 255 255 255 255 0.471731 0.158156
0.980785 1 0.19509 0 1 -4.371139e-08 255 255 255 255 0.485388 0.203178
0.9999999 1 -4.371139e-08 0 1 -4.371139e-08 255 255 255 255 0.490000 0.250000
0.980785 1 -0.19509 0 1 -4.371139e-08 255 255 255 255 0.485388 0.296822
0.9238799 1 -0.382683 0 1 -4.371139e-08 255 255 255 255 0.471731 0.341844
0.83147 1 -0.5555701 0 1 -4.371139e-08 255 255 255 255 0.449553 0.383337
0.7071069 0.9999999 -0.7071071 0 1 -4.371139e-08 255 255 255 255 0.419706 0.419706
0.5555699 0.9999999 -0.8314701 0 1 -4.371139e-08 255 255 255 255 0.383337 0.449553
0.382683 0.9999999 -0.92388 0 1 -4.371139e-08 255 255 255 255 0.341844 0.471731
-0.382683 -1 -0.9238799 -0.2902814 -4.182924e-08 -0.9569414 255 255 255 255 0.062500 0.500000
-0.382683 0.9999999 -0.92388 -0.2902815 -4.182923e-08 -0.9569413 255 255 255 255 0.062500 1.000000
-0.19509 0.9999999 -0.9807851 -0.2902814 -4.182924e-08 -0.9569414 255 255 255 255 0.031250 1.000000
-0.19509 -1 -0.980785 -0.2902815 -4.182923e-08 -0.9569413 255 255 255 255 0.031250 0.500000
-0.19509 -1 -0.980785 -0.09801866 -4.35009e-08 -0.9951846 255 255 255 255 0.031250 0.500000
-0.19509 0.9999999 -0.9807851 -0.09801866 -4.35009e-08 -0.9951846 255 255 255 255 0.031250 1.000000
0 0.9999999 -1 -0.09801866 -4.35009e-08 -0.9951846 255 255 255 255 0.000000 1.000000
0 -1 -0.9999999 -0.09801866 -4.35009e-08 -0.9951846 255 255 255 255 0.000000 0.500000
0 -1 -0.9999999 0 -1 4.371139e-08 255 255 255 255 0.750000 0.490000
0.19509 -1 -0.980785 0 -1 4.371139e-08 255 255 255 255 0.796822 0.485388
0.382683 -1 -0.9238799 0 -1 4.371139e-08 255 255 255 255 0.841844 0.471731
0.5555699 -1 -0.83147 0 -1 4.371139e-08 255 255 255 255 0.883337 0.449553
0.7071069 -1 -0.7071069 0 -1 4.371139e-08 255 255 255 255 0.919706 0.419706
0.83147 -1 -0.5555699 0 -1 4.371139e-08 255 255 255 255 0.949553 0.383337
0.9238799 -1 -0.382683 0 -1 4.371139e-08 255 255 255 255 0.971731 0.341844
0.980785 -1 -0.19509 0 -1 4.371139e-08 255 255 255 255 0.985388 0.296822
0.9999999 -1 4.371139e-08 0 -1 4.371139e-08 255 255 255 255 0.990000 0.250000
0.980785 -1 0.19509 0 -1 4.371139e-08 255 255 255 255 0.985388 0.203178
0.9238799 -1 0.382683 0 -1 4.371139e-08 255 255 255 255 0.971731 0.158156
0.83147 -1 0.5555701 0 -1 4.371139e-08 255 255 255 255 0.949553 0.116663
0.7071069 -0.9999999 0.7071071 0 -1 4.371139e-08 255 255 255 255 0.919706 0.080294
0.5555699 -0.9999999 0.8314701 0 -1 4.371139e-08 255 255 255 255 0.883337 0.050447
0.382683 -0.9999999 0.92388 0 -1 4.371139e-08 255 255 255 255 0.841844 0.028269
0.19509 -0.9999999 0.9807851 0 -1 4.371139e-08 255 255 255 255 0.796822 0.014612
0 -0.9999999 1 0 -1 4.371139e-08 255 255 255 255 0.750000 0.010000
-0.19509 -0.9999999 0.9807851 0 -1 4.371139e-08 255 255 255 255 0.703178 0.014612
-0.382683 -0.9999999 0.92388 0 -1 4.371139e-08 255 255 255 255 0.658156 0.028269
-0.5555699 -0.9999999 0.8314701 0 -1 4.371139e-08 255 255 255 255 0.616663 0.050447
-0.7071069 -0.9999999 0.7071071 0 -1 4.371139e-08 255 255 255 255 0.580294 0.080294
-0.8314689 -1 0.5555701 0 -1 4.371139e-08 255 255 255 255 0.550447 0.116663
-0.9238799 -1 0.382684 0 -1 4.371139e-08 255 255 255 255 0.528269 0.158156
-0.980785 -1 0.19509 0 -1 4.371139e-08 255 255 255 255 0.514612 0.203178
-0.9999999 -1 4.371139e-08 0 -1 4.371139e-08 255 255 255 255 0.510000 0.250000
-0.980785 -1 -0.19509 0 -1 4.371139e-08 255 255 255 255 0.514612 0.296822
-0.923879 -1 -0.382684 0 -1 4.371139e-08 255 255 255 255 0.528269 0.341844
-0.83147 -1 -0.5555699 0 -1 4.371139e-08 255 255 255 255 0.550447 0.383337
-0.7071069 -1 -0.7071069 0 -1 4.371139e-08 255 255 255 255 0.580294 0.419706
-0.5555699 -1 -0.83147 0 -1 4.371139e-08 255 255 255 255 0.616663 0.449553
-0.382683 -1 -0.9238799 0 -1 4.371139e-08 255 255 255 255 0.658156 0.471731
-0.19509 -1 -0.980785 0 -1 4.371139e-08 255 255 255 255 0.703178 0.485388
3 0 1 2 
3 0 2 3 
3 4 5 6 
3 4 6 7 
3 8 9 10 
3 8 10 11 
3 12 13 14 
3 12 14 15 
3 16 17 18 
3 16 18 19 
3 20 21 22 
3 20 22 23 
3 24 25 26 
3 24 26 27 
3 28 29 30 
3 28 30 31 
3 32 33 34 
3 32 34 35 
3 36 37 38 
3 36 38 39 
3 40 41 42 
3 40 42 43 
3 44 45 46 
3 44 46 47 
3 48 49 50 
3 48 50 51 
3 52 53 54 
3 52 54 55 
3 56 57 58 
3 56 58 59 
3 60 61 62 
3 60 62 63 
3 64 65 66 
3 64 66 67 
3 68 69 70 
3 68 70 71 
3 72 73 74 
3 72 74 75 
3 76 77 78 
3 76 78 79 
3 80 81 82 
3 80 82 83 
3 84 85 86 
3 84 86 87 
3 88 89 90 
3 88 90 91 
3 92 93 94 
3 92 94 95 
3 96 97 98 
3 96 98 99 
3 100 101 102 
3 100 102 103 
3 104 105 106 
3 104 106 107 
3 108 109 110 
3 108 110 111 
3 112 113 114 
3 112 114 115 
3 116 117 118 
3 116 118 119 
3 120 121 122 
3 120 122 123 
3 120 123 124 
3 120 124 125 
3 120 125 126 
3 120 126 127 
3 120 127 128 
3 120 128 129 
3 120 129 130 
3 120 130 131 
3 120 131 132 
3 120 132 133 
3 120 133 134 
3 120 134 135 
3 120 135 136 
3 120 136 137 
3 120 137 138 
3 120 138 139 
3 120 139 140 
3 120 140 141 
3 120 141 142 
3 120 142 143 
3 120 143 144 
3 120 144 145 
3 120 145 146 
3 120 146 147 
3 120 147 148 
3 120 148 149 
3 120 149 150 
3 120 150 151 
3 152 153 154 
3 152 154 155 
3 156 157 158 
3 156 158 159 
3 160 161 162 
3 160 162 163 
3 160 163 164 
3 160 164 165 
3 160 165 166 
3 160 166 167 
3 160 167 168 
3 160 168 169 
3 160 169 170 
3 160 170 171 
3 160 171 172 
3 160 172 173 
3 160 173 174 
3 160 174 175 
3 160 175 176 
3 160 176 177 
3 160 177 178 
3 160 178 179 
3 160 179 180 
3 160 180 181 
3 160 181 182 
3 160 182 183 
3 160 183 184 
3 160 184 185 
3 160 185 186 
3 160 186 187 
3 160 187 188 
3 160 188 189 
3 160 189 190 
3 160 190 191 
