ply
format ascii 1.0
comment VCGLIB generated
comment TextureFile PolygonCity_Texture.bmp
element vertex 47
property float x
property float y
property float z
property float nx
property float ny
property float nz
property uchar red
property uchar green
property uchar blue
property uchar alpha
property float texture_u
property float texture_v
element face 50
property list uchar int vertex_indices
end_header
0.2987518 0.466369 0.2987289 0.5835715 0.5619838 0.5861898 255 255 255 255 0.006297 0.330046
0.2987518 0.466369 0.004440755 0.7423192 0.6700464 0 255 255 255 255 0.006297 0.330046
0.09681521 0.4870902 -0.01595185 0.0231438 0.9996136 0.01539836 255 255 255 255 0.006297 0.330046
0.2987518 0 0.2987289 0.5773503 -0.5773503 0.5773503 255 255 255 255 0.006297 0.330046
0.2987518 0 -0.2987366 0.5773501 -0.5773504 -0.5773504 255 255 255 255 0.006297 0.330046
0.2987518 0.4547948 0.004440755 1 0 0 255 255 255 255 0.006297 0.330046
0.2987518 0.4547948 0.2987289 0.7071067 0 0.7071069 255 255 255 255 0.006297 0.330046
-0.2987213 0 -0.2987366 -0.5773498 -0.5773506 -0.5773506 255 255 255 255 0.006297 0.330046
-0.2987213 0 0.2987289 -0.5773503 -0.5773503 0.5773503 255 255 255 255 0.006297 0.330046
-0.2987213 0.4547948 0.2987289 -0.7071066 0 0.7071071 255 255 255 255 0.006297 0.330046
-0.2987213 0.4547948 0.004440755 -1 0 0 255 255 255 255 0.006297 0.330046
-0.2987213 0.466369 0.2987289 -0.5834072 0.566092 0.5823882 255 255 255 255 0.005525 0.228155
-0.2987213 0.466369 0.004440755 -0.725367 0.6883624 0 255 255 255 255 0.005525 0.228155
0.2987518 0.466369 -0.2987366 0.5881767 0.5397069 -0.6022996 255 255 255 255 0.006297 0.330046
0.09681521 0.5052583 -0.02484861 0.00534822 0.8413479 0.5404675 255 255 255 255 0.006297 0.330046
0.2987518 0.4845372 -0.004456013 0.5923682 0.6199349 0.5145684 255 255 255 255 0.006297 0.330046
-0.2987213 0.4547948 -0.2987366 -0.7071068 0 -0.7071068 255 255 255 255 0.005525 0.228155
-0.2987213 0.4729629 -0.004456013 -1 0 0 255 255 255 255 0.005525 0.228155
-0.2987213 0.4845372 -0.004456013 -0.5907605 0.6352841 0.4974095 255 255 255 255 0.005525 0.228155
-0.2987213 0.466369 -0.2987366 -0.5875927 0.5450212 -0.5980691 255 255 255 255 0.005525 0.228155
0.2987518 0.4729629 -0.004456013 1 0 0 255 255 255 255 0.006297 0.330046
0.2987518 0.4547948 -0.2987366 0.7071071 0 -0.7071066 255 255 255 255 0.006297 0.330046
0.09681521 0.4870902 -0.02040023 0.001532321 0.759784 0.6501738 255 255 255 255 0.005525 0.228155
0.2987518 0.466369 -7.628507e-06 0.8800818 0.3891015 0.2721323 255 255 255 255 0.005525 0.228155
-0.2987213 0.4547948 -7.628507e-06 -1 0 0 255 255 255 255 0.005525 0.228155
-0.2987213 0.466369 -7.628507e-06 -0.8774014 0.3856944 0.2853186 255 255 255 255 0.005525 0.228155
0.2987518 0.4547948 -7.628507e-06 1 0 0 255 255 255 255 0.006297 0.330046
0.2987518 0.4547948 0.2987289 0.7071067 0 0.7071069 255 255 255 255 0.005525 0.228155
0.2987518 0.4547948 0.004440755 1 0 0 255 255 255 255 0.005525 0.228155
0.2987518 0.466369 0.004440755 0.7423192 0.6700464 0 255 255 255 255 0.005525 0.228155
0.2987518 0.466369 0.2987289 0.5835715 0.5619838 0.5861898 255 255 255 255 0.005525 0.228155
-0.2987213 0.4547948 0.004440755 -1 0 0 255 255 255 255 0.005525 0.228155
-0.2987213 0.4547948 0.2987289 -0.7071066 0 0.7071071 255 255 255 255 0.005525 0.228155
-0.2987213 0.4729629 -0.004456013 -1 0 0 255 255 255 255 0.006297 0.330046
-0.2987213 0.4547948 -0.2987366 -0.7071068 0 -0.7071068 255 255 255 255 0.006297 0.330046
0.2987518 0.4845372 -0.004456013 0.5923682 0.6199349 0.5145684 255 255 255 255 0.005525 0.228155
0.2987518 0.4729629 -0.004456013 1 0 0 255 255 255 255 0.005525 0.228155
0.2987518 0.4547948 -0.2987366 0.7071071 0 -0.7071066 255 255 255 255 0.005525 0.228155
0.2987518 0.466369 -0.2987366 0.5881767 0.5397069 -0.6022996 255 255 255 255 0.005525 0.228155
0.09681521 0.5052583 -0.02484861 0.00534822 0.8413479 0.5404675 255 255 255 255 0.005525 0.228155
-0.2987213 0.4547948 -7.628507e-06 -1 0 0 255 255 255 255 0.006297 0.330046
0.2987518 0.4547948 -7.628507e-06 1 0 0 255 255 255 255 0.005525 0.228155
0.09681521 0.4870902 -0.01595185 0.0231438 0.9996136 0.01539836 255 255 255 255 0.005525 0.228155
-0.2987213 0.466369 0.2987289 -0.5834072 0.566092 0.5823882 255 255 255 255 0.006297 0.330046
-0.2987213 0.466369 -0.2987366 -0.5875927 0.5450212 -0.5980691 255 255 255 255 0.006297 0.330046
-0.2987213 0.4845372 -0.004456013 -0.5907605 0.6352841 0.4974095 255 255 255 255 0.006297 0.330046
-0.2987213 0.466369 0.004440755 -0.725367 0.6883624 0 255 255 255 255 0.006297 0.330046
3 0 1 2 
3 3 4 5 
3 3 5 6 
3 7 8 9 
3 7 9 10 
3 27 28 29 
3 27 29 30 
3 31 32 11 
3 31 11 12 
3 13 14 15 
3 16 17 18 
3 16 18 19 
3 7 33 34 
3 20 4 21 
3 35 36 37 
3 35 37 38 
3 22 23 35 
3 22 35 39 
3 17 24 25 
3 17 25 18 
3 7 40 33 
3 26 4 20 
3 23 41 36 
3 23 36 35 
3 42 29 23 
3 42 23 22 
3 24 31 12 
3 24 12 25 
3 7 10 40 
3 5 4 26 
3 29 28 41 
3 29 41 23 
3 25 22 39 
3 25 39 18 
3 12 42 22 
3 12 22 25 
3 43 0 2 
3 9 6 0 
3 9 0 43 
3 8 3 6 
3 8 6 9 
3 7 4 3 
3 7 3 8 
3 34 21 4 
3 34 4 7 
3 13 21 34 
3 13 34 44 
3 44 14 13 
3 45 14 44 
3 43 2 46 
